<svg width="101" height="100" viewBox="0 0 101 100" fill="none" xmlns="http://www.w3.org/2000/svg">
<path fill-rule="evenodd" clip-rule="evenodd" d="M50.5 100C78.1142 100 100.5 77.6142 100.5 50C100.5 22.3858 78.1142 0 50.5 0C22.8858 0 0.5 22.3858 0.5 50C0.5 77.6142 22.8858 100 50.5 100ZM58.8536 49.6464L55.6716 46.4645C55.4763 46.2692 55.1597 46.2692 54.9645 46.4645C54.7692 46.6597 54.7692 46.9763 54.9645 47.1716L57.2929 49.5H42.5V50.5H57.2929L54.9645 52.8284C54.7692 53.0237 54.7692 53.3403 54.9645 53.5355C55.1597 53.7308 55.4763 53.7308 55.6716 53.5355L58.8536 50.3536C59.0488 50.1583 59.0488 49.8417 58.8536 49.6464Z" fill="white"/>
</svg>
