<svg width="24" height="24" viewBox="0 0 24 24" fill="none" xmlns="http://www.w3.org/2000/svg">
<g id="Iconly/Light-Outline/Scan">
<g id="Scan">
<path id="Fill 1" fill-rule="evenodd" clip-rule="evenodd" d="M22.75 13.9551H1.75C1.336 13.9551 1 13.6191 1 13.2051C1 12.7911 1.336 12.4551 1.75 12.4551H22.75C23.164 12.4551 23.5 12.7911 23.5 13.2051C23.5 13.6191 23.164 13.9551 22.75 13.9551Z" fill="#323232"/>
<path id="Fill 3" fill-rule="evenodd" clip-rule="evenodd" d="M20.8794 9.745C20.4654 9.745 20.1294 9.409 20.1294 8.995V7.481C20.1294 5.838 18.7914 4.5 17.1464 4.5H15.9414C15.5274 4.5 15.1914 4.164 15.1914 3.75C15.1914 3.336 15.5274 3 15.9414 3H17.1464C19.6184 3 21.6294 5.011 21.6294 7.481V8.995C21.6294 9.409 21.2934 9.745 20.8794 9.745Z" fill="#323232"/>
<path id="Fill 5" fill-rule="evenodd" clip-rule="evenodd" d="M3.61914 9.745C3.20514 9.745 2.86914 9.409 2.86914 8.995V7.481C2.86914 5.011 4.88014 3 7.35214 3H8.58814C9.00214 3 9.33814 3.336 9.33814 3.75C9.33814 4.164 9.00214 4.5 8.58814 4.5H7.35214C5.70714 4.5 4.36914 5.838 4.36914 7.481V8.995C4.36914 9.409 4.03314 9.745 3.61914 9.745Z" fill="#323232"/>
<path id="Fill 7" fill-rule="evenodd" clip-rule="evenodd" d="M17.1464 21.7601H15.9414C15.5274 21.7601 15.1914 21.4241 15.1914 21.0101C15.1914 20.5961 15.5274 20.2601 15.9414 20.2601H17.1464C18.7914 20.2601 20.1294 18.9221 20.1294 17.2781V13.2031C20.1294 12.7891 20.4654 12.4531 20.8794 12.4531C21.2934 12.4531 21.6294 12.7891 21.6294 13.2031V17.2781C21.6294 19.7491 19.6184 21.7601 17.1464 21.7601Z" fill="#323232"/>
<path id="Fill 9" fill-rule="evenodd" clip-rule="evenodd" d="M8.58814 21.7601H7.35214C4.88014 21.7601 2.86914 19.7491 2.86914 17.2781V13.2031C2.86914 12.7891 3.20514 12.4531 3.61914 12.4531C4.03314 12.4531 4.36914 12.7891 4.36914 13.2031V17.2781C4.36914 18.9221 5.70714 20.2601 7.35214 20.2601H8.58814C9.00214 20.2601 9.33814 20.5961 9.33814 21.0101C9.33814 21.4241 9.00214 21.7601 8.58814 21.7601Z" fill="#323232"/>
</g>
</g>
</svg>
