<svg width="24" height="24" viewBox="0 0 24 24" fill="none" xmlns="http://www.w3.org/2000/svg">
<g id="Iconly/Light-Outline/Document">
<g id="Document">
<path id="Fill 1" fill-rule="evenodd" clip-rule="evenodd" d="M15.7161 16.9736H8.49609C8.08209 16.9736 7.74609 16.6376 7.74609 16.2236C7.74609 15.8096 8.08209 15.4736 8.49609 15.4736H15.7161C16.1301 15.4736 16.4661 15.8096 16.4661 16.2236C16.4661 16.6376 16.1301 16.9736 15.7161 16.9736Z" fill="#8C8C91"/>
<path id="Fill 3" fill-rule="evenodd" clip-rule="evenodd" d="M15.7161 12.7874H8.49609C8.08209 12.7874 7.74609 12.4514 7.74609 12.0374C7.74609 11.6234 8.08209 11.2874 8.49609 11.2874H15.7161C16.1301 11.2874 16.4661 11.6234 16.4661 12.0374C16.4661 12.4514 16.1301 12.7874 15.7161 12.7874Z" fill="#8C8C91"/>
<path id="Fill 5" fill-rule="evenodd" clip-rule="evenodd" d="M11.2511 8.61035H8.49609C8.08209 8.61035 7.74609 8.27435 7.74609 7.86035C7.74609 7.44635 8.08209 7.11035 8.49609 7.11035H11.2511C11.6651 7.11035 12.0011 7.44635 12.0011 7.86035C12.0011 8.27435 11.6651 8.61035 11.2511 8.61035Z" fill="#8C8C91"/>
<g id="Group 9">
<mask id="mask0" mask-type="alpha" maskUnits="userSpaceOnUse" x="3" y="2" width="19" height="20">
<path id="Clip 8" fill-rule="evenodd" clip-rule="evenodd" d="M3 2.00024H21.1647V21.91H3V2.00024Z" fill="white"/>
</mask>
<g mask="url(#mask0)">
<path id="Fill 7" fill-rule="evenodd" clip-rule="evenodd" d="M15.909 3.5L8.22 3.504C5.892 3.518 4.5 4.958 4.5 7.357V16.553C4.5 18.968 5.905 20.41 8.256 20.41L15.945 20.407C18.273 20.393 19.665 18.951 19.665 16.553V7.357C19.665 4.942 18.261 3.5 15.909 3.5ZM8.257 21.91C5.113 21.91 3 19.757 3 16.553V7.357C3 4.124 5.047 2.023 8.215 2.004L15.908 2H15.909C19.053 2 21.165 4.153 21.165 7.357V16.553C21.165 19.785 19.118 21.887 15.95 21.907L8.257 21.91Z" fill="#8C8C91"/>
</g>
</g>
</g>
</g>
</svg>
