<svg width="110" height="110" viewBox="0 0 110 110" fill="none" xmlns="http://www.w3.org/2000/svg">
<path fill-rule="evenodd" clip-rule="evenodd" d="M39.2553 51.8363H51.6236V6.46053H39.2553V51.8363ZM32.498 58.3045H58.3765V0H32.498V58.3045Z" fill="white"/>
<path fill-rule="evenodd" clip-rule="evenodd" d="M0 71.0951H109.998V64.6533H0V71.0951Z" fill="white"/>
<path fill-rule="evenodd" clip-rule="evenodd" d="M6.73242 96.2668H38.5273V83.9693H6.73242V96.2668ZM0 109.999H6.73242V102.701H45.2614V77.5293H0V109.999Z" fill="white"/>
<path fill-rule="evenodd" clip-rule="evenodd" d="M84.1211 6.46053V58.3037H90.8741V19.3936L103.24 6.46566V58.3037H110V0H100.508L90.8741 10.0423V0H81.3866L64.9922 16.947V58.3037H71.7537V19.3961L84.1211 6.46053Z" fill="white"/>
<path fill-rule="evenodd" clip-rule="evenodd" d="M58.5835 96.2668H77.3429V83.9693H58.5835V96.2668ZM84.367 96.2668H103.269V83.9693H84.367V96.2668ZM51.8477 102.701H77.3438V109.999H84.367V102.701H110.001V77.5293H51.8477V102.701Z" fill="white"/>
<path fill-rule="evenodd" clip-rule="evenodd" d="M6.75979 19.3961L19.1229 6.46566V51.8372H6.75979V19.3961ZM19.1229 58.3037H25.881V0H16.3927L0 16.947V58.3037H19.1229Z" fill="white"/>
</svg>
