<svg width="40" height="40" viewBox="0 0 40 40" fill="none" xmlns="http://www.w3.org/2000/svg">
<circle cx="20" cy="20" r="19.5" stroke="white"/>
<g clip-path="url(#clip0)">
<path d="M21.3497 29.9609H18.1406C17.6046 29.9609 17.1685 29.5258 17.1685 28.9908V21.7667H15.2963C14.7603 21.7667 14.3242 21.3313 14.3242 20.7965V17.701C14.3242 17.166 14.7603 16.7308 15.2963 16.7308H17.1685V15.1807C17.1685 13.6436 17.6521 12.336 18.5668 11.3992C19.4857 10.4582 20.7698 9.96094 22.2803 9.96094L24.7277 9.9649C25.2628 9.96582 25.6981 10.401 25.6981 10.9351V13.8092C25.6981 14.3442 25.2622 14.7794 24.7263 14.7794L23.0785 14.78C22.576 14.78 22.448 14.8805 22.4206 14.9113C22.3755 14.9625 22.3219 15.107 22.3219 15.506V16.7307H24.6025C24.7742 16.7307 24.9405 16.7729 25.0835 16.8526C25.3918 17.0245 25.5835 17.3497 25.5835 17.7011L25.5823 20.7967C25.5823 21.3313 25.1463 21.7665 24.6103 21.7665H22.3219V28.9908C22.3219 29.5258 21.8857 29.9609 21.3497 29.9609ZM18.3433 28.7885H21.1469V21.2418C21.1469 20.8846 21.4382 20.594 21.7959 20.594H24.4075L24.4086 17.9033H21.7958C21.438 17.9033 21.1469 17.6128 21.1469 17.2556V15.506C21.1469 15.0479 21.1936 14.527 21.54 14.1354C21.9586 13.6621 22.6183 13.6075 23.0782 13.6075L24.5233 13.6069V11.1371L22.2794 11.1334C19.8518 11.1334 18.3433 12.6843 18.3433 15.1807V17.2556C18.3433 17.6126 18.0522 17.9033 17.6944 17.9033H15.499V20.594H17.6944C18.0522 20.594 18.3433 20.8846 18.3433 21.2418V28.7885ZM24.7254 11.1374H24.7255H24.7254Z" fill="white"/>
</g>
<defs>
<clipPath id="clip0">
<rect width="20" height="20" fill="white" transform="translate(10 10)"/>
</clipPath>
</defs>
</svg>
