<svg width="80" height="80" viewBox="0 0 80 80" fill="none" xmlns="http://www.w3.org/2000/svg">
<circle opacity="0.3" cx="40" cy="40" r="39.5" stroke="#323232"/>
<path d="M41.3497 49.9609H38.1406C37.6046 49.9609 37.1685 49.5258 37.1685 48.9908V41.7667H35.2963C34.7603 41.7667 34.3242 41.3313 34.3242 40.7965V37.701C34.3242 37.166 34.7603 36.7308 35.2963 36.7308H37.1685V35.1807C37.1685 33.6436 37.6521 32.336 38.5668 31.3992C39.4857 30.4582 40.7698 29.9609 42.2803 29.9609L44.7277 29.9649C45.2628 29.9658 45.6981 30.401 45.6981 30.9351V33.8092C45.6981 34.3442 45.2622 34.7794 44.7263 34.7794L43.0785 34.78C42.576 34.78 42.448 34.8805 42.4206 34.9113C42.3755 34.9625 42.3219 35.107 42.3219 35.506V36.7307H44.6025C44.7742 36.7307 44.9405 36.7729 45.0835 36.8526C45.3918 37.0245 45.5835 37.3497 45.5835 37.7011L45.5823 40.7967C45.5823 41.3313 45.1463 41.7665 44.6103 41.7665H42.3219V48.9908C42.3219 49.5258 41.8857 49.9609 41.3497 49.9609ZM38.3433 48.7885H41.1469V41.2418C41.1469 40.8846 41.4382 40.594 41.7959 40.594H44.4075L44.4086 37.9033H41.7958C41.438 37.9033 41.1469 37.6128 41.1469 37.2556V35.506C41.1469 35.0479 41.1936 34.527 41.54 34.1354C41.9586 33.6621 42.6183 33.6075 43.0782 33.6075L44.5233 33.6069V31.1371L42.2794 31.1334C39.8518 31.1334 38.3433 32.6843 38.3433 35.1807V37.2556C38.3433 37.6126 38.0522 37.9033 37.6944 37.9033H35.499V40.594H37.6944C38.0522 40.594 38.3433 40.8846 38.3433 41.2418V48.7885ZM44.7254 31.1374H44.7255H44.7254Z" fill="#323232"/>
</svg>
