<svg width="40" height="40" viewBox="0 0 40 40" fill="none" xmlns="http://www.w3.org/2000/svg">
<circle cx="20" cy="20" r="19.5" stroke="#8C8C91"/>
<g clip-path="url(#clip0)">
<path d="M21.3503 29.9609H18.1412C17.6052 29.9609 17.1692 29.5258 17.1692 28.9908V21.7667H15.2969C14.7609 21.7667 14.3249 21.3313 14.3249 20.7965V17.701C14.3249 17.166 14.7609 16.7308 15.2969 16.7308H17.1692V15.1807C17.1692 13.6436 17.6528 12.336 18.5675 11.3992C19.4863 10.4582 20.7704 9.96094 22.281 9.96094L24.7284 9.9649C25.2635 9.96582 25.6987 10.401 25.6987 10.9351V13.8092C25.6987 14.3442 25.2628 14.7794 24.727 14.7794L23.0792 14.78C22.5766 14.78 22.4487 14.8805 22.4213 14.9113C22.3762 14.9625 22.3225 15.107 22.3225 15.506V16.7307H24.6031C24.7748 16.7307 24.9412 16.7729 25.0841 16.8526C25.3925 17.0245 25.5842 17.3497 25.5842 17.7011L25.583 20.7967C25.583 21.3313 25.147 21.7665 24.6109 21.7665H22.3225V28.9908C22.3225 29.5258 21.8864 29.9609 21.3503 29.9609ZM18.344 28.7885H21.1476V21.2418C21.1476 20.8846 21.4389 20.594 21.7966 20.594H24.4082L24.4093 17.9033H21.7965C21.4387 17.9033 21.1476 17.6128 21.1476 17.2556V15.506C21.1476 15.0479 21.1942 14.527 21.5407 14.1354C21.9593 13.6621 22.619 13.6075 23.0789 13.6075L24.5239 13.6069V11.1371L22.28 11.1334C19.8525 11.1334 18.344 12.6843 18.344 15.1807V17.2556C18.344 17.6126 18.0529 17.9033 17.6951 17.9033H15.4997V20.594H17.6951C18.0529 20.594 18.344 20.8846 18.344 21.2418V28.7885ZM24.7261 11.1374H24.7262H24.7261Z" fill="#8C8C91"/>
</g>
<defs>
<clipPath id="clip0">
<rect width="20" height="20" fill="white" transform="translate(10 10)"/>
</clipPath>
</defs>
</svg>
