<svg width="40" height="40" viewBox="0 0 40 40" fill="none" xmlns="http://www.w3.org/2000/svg">
<path fill-rule="evenodd" clip-rule="evenodd" d="M20 40C31.0457 40 40 31.0457 40 20C40 8.9543 31.0457 0 20 0C8.9543 0 0 8.9543 0 20C0 31.0457 8.9543 40 20 40ZM18.1406 29.9609H21.3497C21.8857 29.9609 22.3219 29.5258 22.3219 28.9908V21.7665H24.6103C25.1463 21.7665 25.5823 21.3313 25.5823 20.7967L25.5835 17.7011C25.5835 17.3497 25.3918 17.0245 25.0835 16.8526C24.9405 16.7729 24.7742 16.7307 24.6025 16.7307H22.3219V15.506C22.3219 15.107 22.3755 14.9625 22.4206 14.9113C22.448 14.8805 22.576 14.78 23.0785 14.78L24.7263 14.7794C25.2622 14.7794 25.6981 14.3442 25.6981 13.8092V10.9351C25.6981 10.401 25.2628 9.96582 24.7277 9.9649L22.2803 9.96094C20.7698 9.96094 19.4857 10.4582 18.5668 11.3992C17.6521 12.336 17.1685 13.6436 17.1685 15.1807V16.7308H15.2963C14.7603 16.7308 14.3242 17.166 14.3242 17.701V20.7965C14.3242 21.3313 14.7603 21.7667 15.2963 21.7667H17.1685V28.9908C17.1685 29.5258 17.6046 29.9609 18.1406 29.9609ZM21.1469 28.7885H18.3433V21.2418C18.3433 20.8846 18.0522 20.594 17.6944 20.594H15.499V17.9033H17.6944C18.0522 17.9033 18.3433 17.6126 18.3433 17.2556V15.1807C18.3433 12.6843 19.8518 11.1334 22.2794 11.1334L24.5233 11.1371V13.6069L23.0782 13.6075C22.6183 13.6075 21.9586 13.6621 21.54 14.1354C21.1936 14.527 21.1469 15.0479 21.1469 15.506V17.2556C21.1469 17.6128 21.438 17.9033 21.7958 17.9033H24.4086L24.4075 20.594H21.7959C21.4382 20.594 21.1469 20.8846 21.1469 21.2418V28.7885Z" fill="white"/>
</svg>
