<svg width="40" height="40" viewBox="0 0 40 40" fill="none" xmlns="http://www.w3.org/2000/svg">
<path fill-rule="evenodd" clip-rule="evenodd" d="M20 40C31.0457 40 40 31.0457 40 20C40 8.9543 31.0457 0 20 0C8.9543 0 0 8.9543 0 20C0 31.0457 8.9543 40 20 40ZM15.4138 10H24.5862C27.5714 10 30 12.4286 30 15.4138V24.5863C30 27.5714 27.5714 30 24.5863 30H15.4138C12.4286 30 10 27.5714 10 24.5863V15.4138C10 12.4286 12.4286 10 15.4138 10ZM24.5862 28.8275C26.9249 28.8275 28.8275 26.9249 28.8275 24.5863V15.4138C28.8275 13.0751 26.9249 11.1725 24.5863 11.1725H15.4138C13.0751 11.1725 11.1725 13.0751 11.1725 15.4138V24.5863C11.1725 26.9249 13.0751 28.8275 15.4138 28.8275H24.5862ZM19.9998 14.5312C16.9844 14.5312 14.5312 16.9844 14.5312 19.9998C14.5312 23.0153 16.9844 25.4684 19.9998 25.4684C23.0153 25.4684 25.4684 23.0153 25.4684 19.9998C25.4684 16.9844 23.0153 14.5312 19.9998 14.5312ZM19.9998 24.2959C17.6311 24.2959 15.7037 22.3688 15.7037 19.9998C15.7037 17.6311 17.6311 15.7037 19.9998 15.7037C22.3688 15.7037 24.2959 17.6311 24.2959 19.9998C24.2959 22.3688 22.3688 24.2959 19.9998 24.2959ZM23.9844 14.2048C23.9844 13.3138 24.7092 12.5889 25.6003 12.5889C26.4914 12.5889 27.2163 13.3137 27.2163 14.2048C27.2163 15.0959 26.4914 15.8208 25.6003 15.8208C24.7092 15.8208 23.9844 15.0959 23.9844 14.2048ZM25.1569 14.2048C25.1569 14.4492 25.3558 14.6482 25.6003 14.6482C25.8449 14.6482 26.0438 14.4492 26.0438 14.2048C26.0438 13.9602 25.8449 13.7613 25.6003 13.7613C25.3558 13.7613 25.1569 13.9602 25.1569 14.2048Z" fill="white"/>
</svg>
