<svg width="40" height="40" viewBox="0 0 40 40" fill="none" xmlns="http://www.w3.org/2000/svg">
<circle cx="20" cy="20" r="19.5" stroke="white"/>
<path d="M24.5862 10H15.4138C12.4286 10 10 12.4286 10 15.4138V24.5863C10 27.5714 12.4286 30 15.4138 30H24.5863C27.5714 30 30 27.5714 30 24.5863V15.4138C30 12.4286 27.5714 10 24.5862 10V10ZM28.8275 24.5863C28.8275 26.9249 26.9249 28.8275 24.5862 28.8275H15.4138C13.0751 28.8275 11.1725 26.9249 11.1725 24.5863V15.4138C11.1725 13.0751 13.0751 11.1725 15.4138 11.1725H24.5863C26.9249 11.1725 28.8275 13.0751 28.8275 15.4138V24.5863Z" fill="white"/>
<path d="M19.9998 14.5312C16.9844 14.5312 14.5312 16.9844 14.5312 19.9998C14.5312 23.0153 16.9844 25.4684 19.9998 25.4684C23.0153 25.4684 25.4684 23.0153 25.4684 19.9998C25.4684 16.9844 23.0153 14.5312 19.9998 14.5312ZM19.9998 24.2959C17.6311 24.2959 15.7037 22.3688 15.7037 19.9998C15.7037 17.6311 17.6311 15.7037 19.9998 15.7037C22.3688 15.7037 24.2959 17.6311 24.2959 19.9998C24.2959 22.3688 22.3688 24.2959 19.9998 24.2959Z" fill="white"/>
<path d="M25.6003 12.5889C24.7092 12.5889 23.9844 13.3138 23.9844 14.2048C23.9844 15.0959 24.7092 15.8208 25.6003 15.8208C26.4914 15.8208 27.2163 15.0959 27.2163 14.2048C27.2163 13.3137 26.4914 12.5889 25.6003 12.5889ZM25.6003 14.6482C25.3558 14.6482 25.1569 14.4492 25.1569 14.2048C25.1569 13.9602 25.3558 13.7614 25.6003 13.7614C25.8449 13.7614 26.0438 13.9602 26.0438 14.2048C26.0438 14.4492 25.8449 14.6482 25.6003 14.6482Z" fill="white"/>
</svg>
