<svg width="80" height="80" viewBox="0 0 80 80" fill="none" xmlns="http://www.w3.org/2000/svg">
<circle opacity="0.3" cx="40" cy="40" r="39.5" stroke="#323232"/>
<path d="M44.5862 30H35.4138C32.4286 30 30 32.4286 30 35.4138V44.5863C30 47.5714 32.4286 50 35.4138 50H44.5863C47.5714 50 50 47.5714 50 44.5863V35.4138C50 32.4286 47.5714 30 44.5862 30V30ZM48.8275 44.5863C48.8275 46.9249 46.9249 48.8275 44.5862 48.8275H35.4138C33.0751 48.8275 31.1725 46.9249 31.1725 44.5863V35.4138C31.1725 33.0751 33.0751 31.1725 35.4138 31.1725H44.5863C46.9249 31.1725 48.8275 33.0751 48.8275 35.4138V44.5863Z" fill="#323232"/>
<path d="M39.9998 34.5312C36.9844 34.5312 34.5312 36.9844 34.5312 39.9998C34.5312 43.0153 36.9844 45.4684 39.9998 45.4684C43.0153 45.4684 45.4684 43.0153 45.4684 39.9998C45.4684 36.9844 43.0153 34.5312 39.9998 34.5312ZM39.9998 44.2959C37.6311 44.2959 35.7037 42.3688 35.7037 39.9998C35.7037 37.6311 37.6311 35.7037 39.9998 35.7037C42.3688 35.7037 44.2959 37.6311 44.2959 39.9998C44.2959 42.3688 42.3688 44.2959 39.9998 44.2959Z" fill="#323232"/>
<path d="M45.6003 32.5889C44.7092 32.5889 43.9844 33.3138 43.9844 34.2048C43.9844 35.0959 44.7092 35.8208 45.6003 35.8208C46.4914 35.8208 47.2163 35.0959 47.2163 34.2048C47.2163 33.3137 46.4914 32.5889 45.6003 32.5889ZM45.6003 34.6482C45.3558 34.6482 45.1569 34.4492 45.1569 34.2048C45.1569 33.9602 45.3558 33.7614 45.6003 33.7614C45.8449 33.7614 46.0438 33.9602 46.0438 34.2048C46.0438 34.4492 45.8449 34.6482 45.6003 34.6482Z" fill="#323232"/>
</svg>
