<svg width="172" height="73" viewBox="0 0 172 73" fill="none" xmlns="http://www.w3.org/2000/svg">
<path fill-rule="evenodd" clip-rule="evenodd" d="M33.1115 29.9451L51.6311 60.5913H32.7717L17.9899 35.0528V60.5913H0.99944V1.00151H17.9899V24.8374L31.9221 1.00151H50.7816L33.1115 29.9451ZM18.9894 21.1459V0H0V61.5928H18.9894V38.7757L32.1959 61.5928H53.4047L34.2815 29.9478L52.5646 0H31.3493L18.9894 21.1459ZM56.5564 0H105.279V61.5928H86.2898V18.5179H75.5458V61.5928H56.5564V0ZM74.5463 17.5164H87.2892V60.5913H104.28V1.00151H57.5559V60.5913H74.5463V17.5164ZM165.629 0V43.0749H172V73H153.011V61.5928H129.524V73H110.534V43.0749H117.22C119.304 39.0042 120.389 33.3498 120.389 26.0292V0H165.629ZM117.82 44.0764H111.534V71.9985H128.524V60.5913H154.01V71.9985H171.001V44.0764H164.629V1.00151H121.388V26.0292C121.388 33.7475 120.199 39.7633 117.82 44.0764ZM147.639 44.0764H135.405C135.546 43.7495 135.682 43.4156 135.813 43.0749C137.524 38.625 138.379 32.9998 138.379 26.1995V16.6651H147.639V44.0764ZM146.639 17.6666H139.378V26.1995C139.378 32.8943 138.56 38.5318 136.882 43.0749H146.639V17.6666Z" fill="#FFE9BD"/>
</svg>
