<svg width="84" height="90" viewBox="0 0 84 90" fill="none" xmlns="http://www.w3.org/2000/svg">
<g clip-path="url(#clip0)">
<path fill-rule="evenodd" clip-rule="evenodd" d="M24.9335 69.1604V58.6644H30.1649V69.1604H24.9335ZM24.9335 53.4164H19.7051V74.4085H35.3954V53.4164H24.9335Z" fill="#5A2400"/>
<path fill-rule="evenodd" clip-rule="evenodd" d="M44.6396 58.6644H49.871V63.9124H44.6396V58.6644ZM55.1025 58.6644V53.4164H39.4102V74.4085H44.6416V69.1594H55.1045V58.6644H55.1025Z" fill="#5A2400"/>
<path fill-rule="evenodd" clip-rule="evenodd" d="M69.5351 53.4164H64.3047H59.0723V58.6644H64.3047V63.9124V69.1604V74.4075H69.5351V69.1604V63.9124V58.6644H74.7666V53.4164H69.5351Z" fill="#5A2400"/>
<path fill-rule="evenodd" clip-rule="evenodd" d="M10.4629 58.6644L5.23143 63.9124V58.6644V53.4164H0V58.6644V63.9124V69.1604V74.4075H5.23143V69.1604L10.4629 63.9124V69.1604V74.4075H15.6943V72.6354V69.1604V58.6644V53.4164H10.4629V58.6644Z" fill="#5A2400"/>
<path fill-rule="evenodd" clip-rule="evenodd" d="M6.30333 82.0116V83.8258L6.29233 84.6677L7.76873 82.0085L9.44419 82.0116L7.76173 84.7098L9.39618 88.7166H7.67871L6.71844 85.9822L6.30333 86.6715V88.7166H4.76291V86.6715L4.34879 85.9822L3.38853 88.7166H1.67006L3.30551 84.7098L1.62305 82.0116L3.30151 82.0136L4.7549 84.6807L4.76291 83.8348V82.0116H6.30333Z" fill="#5A2400"/>
<path fill-rule="evenodd" clip-rule="evenodd" d="M16.2577 88.7167H14.7763L14.8823 85.5066L14.9774 84.2343L13.3429 88.7167H11.7305V82.0116H13.2239L13.1058 85.2086L13.0188 86.492L14.6283 82.0096L16.2577 82.0116V88.7167Z" fill="#5A2400"/>
<path fill-rule="evenodd" clip-rule="evenodd" d="M19.5758 82.0116H23.6999V88.7166H22.1595V83.1977H21.0101V85.8949C21.0101 86.8984 20.9034 87.5958 20.6901 87.9871C20.366 88.5738 19.7258 88.8671 18.7695 88.8671V87.5275C19.1416 87.5275 19.375 87.3967 19.4697 87.1352C19.5407 86.9345 19.5758 86.4809 19.5758 85.7685V82.0116Z" fill="#5A2400"/>
<path fill-rule="evenodd" clip-rule="evenodd" d="M28.1322 84.2974V86.5381C28.1216 86.7816 28.1374 87.0255 28.1792 87.2656C28.2659 87.5666 28.5227 87.7175 28.9494 87.7181C29.2829 87.7181 29.5003 87.6268 29.6016 87.4442C29.681 87.3004 29.7203 86.9993 29.7197 86.5411V84.2974C29.7197 83.7622 29.6603 83.4167 29.5416 83.2608C29.4229 83.105 29.2255 83.0254 28.9494 83.022C28.5863 83.022 28.3493 83.1535 28.2382 83.4144C28.1676 83.5823 28.1322 83.8766 28.1322 84.2974ZM28.9494 88.9052C27.9865 88.9052 27.3427 88.647 27.0179 88.1306C26.7338 87.6784 26.5918 86.8368 26.5918 85.6059C26.5918 84.662 26.6231 83.9954 26.6858 83.606C26.7812 83.004 26.9866 82.5671 27.302 82.2955C27.6581 81.9865 28.2072 81.8316 28.9494 81.8309C29.6763 81.8309 30.2135 81.9858 30.5609 82.2955C30.8703 82.5631 31.072 82.9999 31.166 83.606C31.2287 84.0021 31.2601 84.6687 31.2601 85.6059C31.2601 86.8522 31.1267 87.6937 30.86 88.1306C30.5425 88.647 29.9057 88.9052 28.9494 88.9052Z" fill="#5A2400"/>
<path fill-rule="evenodd" clip-rule="evenodd" d="M37.6479 79.4437H38.4181C38.3461 79.9983 38.1387 80.4244 37.7959 80.7221C37.4531 81.0198 36.997 81.1683 36.4275 81.1677C35.8114 81.1677 35.3256 81.0071 34.9701 80.686C34.7956 80.531 34.6573 80.3393 34.565 80.1246C34.4727 79.9099 34.4286 79.6774 34.436 79.4437H35.2092C35.2174 79.5681 35.2538 79.6889 35.3155 79.797C35.3772 79.9052 35.4626 79.9978 35.5653 80.0679C35.807 80.2163 36.0875 80.2886 36.3705 80.2756C36.782 80.2756 37.0884 80.2087 37.2898 80.0749C37.3935 80.0027 37.4798 79.908 37.5423 79.7979C37.6048 79.6878 37.6419 79.5651 37.6509 79.4387L37.6479 79.4437ZM38.6551 88.7166H37.1737L37.2808 85.5056L37.3748 84.2332L35.7403 88.7156H34.1289V82.0116H35.6213L35.5023 85.2085L35.4163 86.497L37.0257 82.0146H38.6551V88.7166Z" fill="#5A2400"/>
<path fill-rule="evenodd" clip-rule="evenodd" d="M49.0612 83.2007H47.8759V85.6732C47.8803 86.0387 47.8606 86.404 47.8169 86.7669C47.7804 87.0413 47.6773 87.3024 47.5168 87.5275H49.0572V83.2007H49.0612ZM46.4535 82.0116H50.6017V87.5305H51.0148V90.003H49.5944V88.7166H47.0347V90H45.6133V87.5275H45.7323C46.0484 87.4968 46.2538 87.3105 46.3485 86.9686C46.4198 86.7157 46.4552 86.2445 46.4545 85.5548L46.4535 82.0116Z" fill="#5A2400"/>
<path fill-rule="evenodd" clip-rule="evenodd" d="M55.0317 84.2974V86.5381C55.0211 86.7816 55.0368 87.0255 55.0787 87.2656C55.1654 87.5666 55.4221 87.7175 55.8489 87.7181C56.1823 87.7181 56.3997 87.6268 56.5011 87.4442C56.5791 87.3007 56.6191 86.9987 56.6191 86.5411V84.2974C56.6191 83.7622 56.5597 83.4167 56.441 83.2608C56.3223 83.105 56.125 83.0254 55.8489 83.022C55.4858 83.022 55.2487 83.1535 55.1377 83.4144C55.0663 83.5823 55.031 83.8766 55.0317 84.2974ZM55.8489 88.9052C54.8846 88.9052 54.2408 88.647 53.9173 88.1306C53.6326 87.6784 53.4902 86.8368 53.4902 85.6059C53.4902 84.662 53.5236 83.9954 53.5903 83.606C53.685 83.004 53.8903 82.5671 54.2064 82.2955C54.5625 81.9865 55.1117 81.8316 55.8539 81.8309C56.5807 81.8309 57.1179 81.9858 57.4653 82.2955C57.7734 82.5631 57.9735 82.9999 58.0655 83.606C58.1275 84.0021 58.1588 84.6687 58.1595 85.6059C58.1595 86.8522 58.0261 87.6937 57.7594 88.1306C57.442 88.647 56.8051 88.9052 55.8489 88.9052Z" fill="#5A2400"/>
<path fill-rule="evenodd" clip-rule="evenodd" d="M61.0508 88.7166V82.0116H63.4514L64.3027 85.8387C64.3427 86.0133 64.376 86.2097 64.4027 86.4278C64.4307 86.6455 64.4567 86.8863 64.4807 87.1472C64.5474 86.7117 64.6141 86.2769 64.6808 85.8428L65.581 82.0136H67.9377V88.7186H66.3712L66.4423 84.4861L66.5133 82.8103L65.1509 88.7186H63.8235L62.5082 82.8103L62.5322 84.4861L62.6142 88.7186L61.0508 88.7166Z" fill="#5A2400"/>
<path fill-rule="evenodd" clip-rule="evenodd" d="M31.3568 48.3937C31.3568 48.3865 31.3629 48.3783 31.367 48.3701H31.3496L31.3568 48.3937Z" fill="#E59F71"/>
<path d="M83.8053 20.6635C83.9379 20.8306 83.8582 21.0698 83.9991 21.2334V21.5083C83.8726 21.7146 83.6685 21.6857 83.4774 21.6719C82.3954 21.5922 81.3114 21.5963 80.2287 21.5503C78.4511 21.4733 76.6708 21.4588 74.8938 21.3502C74.4264 21.3214 73.9576 21.3722 73.4909 21.3193C73.1355 21.1509 73.033 20.8072 72.9148 20.4766C72.8935 20.4161 72.9492 20.3748 73.0028 20.3466C73.2489 20.2703 73.5019 20.2937 73.7514 20.3095C74.9585 20.3851 76.1683 20.3872 77.376 20.4429C79.0622 20.5205 80.7518 20.5199 82.4367 20.6347C82.8924 20.6663 83.3495 20.6099 83.8053 20.6635Z" fill="#5F8E49"/>
<path d="M73.4152 21.2334C74.5797 21.2568 75.7448 21.254 76.9079 21.309C78.2641 21.3736 79.6224 21.3846 80.9752 21.4616C81.8166 21.509 82.6642 21.4149 83.5007 21.5716C83.6695 21.6147 83.8484 21.5921 84.0012 21.5084V22.3332C83.8211 22.479 83.61 22.448 83.4086 22.4205C83.1245 22.3855 82.8384 22.3697 82.5521 22.3731C80.8336 22.3621 79.1241 22.2652 77.409 22.2184C76.2446 22.1868 75.078 22.1634 73.915 22.0775C73.605 21.9208 73.3829 21.5475 73.4152 21.2334Z" fill="#62914B"/>
<path d="M84.0012 22.9519C83.8685 23.0591 83.9166 23.2324 83.8527 23.3643C83.6396 23.5321 83.3921 23.4805 83.1598 23.4523C82.8305 23.4179 82.4996 23.4016 82.1686 23.4035C80.4796 23.3829 78.7934 23.2825 77.1045 23.2489C76.5127 23.2365 75.9194 23.2028 75.3255 23.1987C75.0286 23.1941 74.7328 23.1593 74.4429 23.0949C74.0731 22.8577 73.9404 22.556 74.0841 22.2776C74.2951 22.1985 74.5144 22.2198 74.7302 22.2343C75.8727 22.3112 77.0172 22.314 78.1597 22.3649C80.0005 22.4473 81.8434 22.4549 83.6822 22.5711C83.7977 22.5674 83.9108 22.6049 84.0012 22.6769V22.9519Z" fill="#64944C"/>
<path d="M83.9995 22.6769C83.088 22.6624 82.1765 22.6232 81.2657 22.5944C79.9115 22.5524 78.5567 22.5112 77.2032 22.4569C76.146 22.4136 75.0867 22.4163 74.0309 22.3338C73.8391 22.294 73.7559 22.1881 73.8246 21.9901C74.8509 21.964 75.8758 22.0493 76.9014 22.074C78.2666 22.1077 79.6345 22.1428 80.9983 22.2115C81.9985 22.2624 83.0028 22.1943 83.9988 22.3304L83.9995 22.6769Z" fill="#64944C"/>
<path d="M70.0469 48.7291C70.0661 48.6796 70.0861 48.6301 70.1053 48.58C70.3541 48.5209 70.6064 48.5525 70.8566 48.5518C71.9074 48.5486 72.9582 48.5486 74.009 48.5518C74.1768 48.5518 74.3527 48.5243 74.4978 48.6549C74.5033 48.679 74.5095 48.7037 74.515 48.7284L70.0469 48.7291Z" fill="#835A3F"/>
<path d="M0 7.96661V7.41669C0.00774024 7.41078 0.0166476 7.40658 0.0261321 7.40438C0.0356166 7.40217 0.0454618 7.402 0.0550156 7.40389C0.0645693 7.40577 0.0736136 7.40967 0.0815494 7.41531C0.0894851 7.42095 0.0961312 7.42822 0.101047 7.43662C0.140565 7.51583 0.161136 7.60313 0.161136 7.69165C0.161136 7.78016 0.140565 7.86747 0.101047 7.94667C0.0961312 7.95508 0.0894851 7.96234 0.0815494 7.96799C0.0736136 7.97363 0.0645693 7.97752 0.0550156 7.97941C0.0454618 7.98129 0.0356166 7.98113 0.0261321 7.97892C0.0166476 7.97671 0.00774024 7.97252 0 7.96661Z" fill="#F1CDB5"/>
<path d="M0.0611784 7.42141C0.0407164 7.42086 0.0202965 7.41926 0 7.4166V7.00416C0.00827121 6.99699 0.0183923 6.99228 0.0292093 6.99058C0.0400263 6.98888 0.0511037 6.99025 0.0611784 6.99454C0.151228 7.06328 0.153977 7.1657 0.147103 7.2695C0.144401 7.29947 0.13534 7.32853 0.120523 7.35472C0.105706 7.38092 0.0854752 7.40365 0.0611784 7.42141Z" fill="#EAB18C"/>
<path d="M0 7.96655C0.0190484 7.96996 0.0384028 7.97134 0.0577414 7.97068C0.167725 8.08478 0.168412 8.19889 0.0577414 8.31438H0.0281833L0 8.31025V7.96655Z" fill="#F9EADC"/>
<path d="M0.0769353 7.28267L0.0625 6.99465C0.840634 6.59184 1.66551 6.29213 2.47595 5.9553C3.21834 5.64391 3.96142 5.32427 4.70931 5.01769C5.57222 4.66437 6.4372 4.31609 7.30424 3.97285C8.2879 3.58241 9.27226 3.19265 10.26 2.81115C11.1956 2.44957 12.1346 2.09831 13.0729 1.74568C14.095 1.36142 15.1145 0.96892 16.1435 0.604599C16.6886 0.412128 17.2158 0.164664 17.7877 0.0546806C17.9053 0.0168738 17.906 0.105548 17.9211 0.177725C17.6709 0.973732 17.3602 1.74774 17.0811 2.53344C16.6137 3.84224 16.1476 5.15999 15.663 6.46673C15.1859 7.75216 14.7494 9.05203 14.2573 10.3327C14.1138 10.681 13.9946 11.0388 13.9005 11.4036C13.8938 11.4398 13.8787 11.4739 13.8565 11.5033C13.8343 11.5326 13.8056 11.5564 13.7727 11.5727C12.7697 11.8477 11.8012 12.2285 10.8107 12.5433C9.6462 12.9138 8.48931 13.3084 7.33036 13.6961C6.1934 14.079 5.05713 14.4619 3.91949 14.8337C3.69436 14.9171 3.4609 14.9758 3.22316 15.009C3.2052 15.0082 3.18762 15.0036 3.17161 14.9954C3.15561 14.9872 3.14154 14.9757 3.13036 14.9616C2.50551 13.5737 1.98309 12.1433 1.39811 10.7396C1.01111 9.81023 0.683908 8.85612 0.267345 7.93913C0.168359 7.72673 0.158048 7.49576 0.0769353 7.28267Z" fill="#DF8856"/>
<path d="M18.0133 0.0449219C18.6285 0.451174 19.2575 0.838179 19.8548 1.26849C20.6206 1.81841 21.4193 2.32158 22.2126 2.83026C23.2739 3.50941 24.3476 4.16908 25.4337 4.80928C27.0739 5.78057 28.7188 6.74361 30.4084 7.62761C31.1907 8.04005 31.9509 8.49029 32.7208 8.92335C32.8184 9.15363 32.6816 9.34954 32.6026 9.53789C31.8128 11.411 31.0656 13.3007 30.2874 15.1787C30.2441 15.2838 30.2139 15.3966 30.1232 15.4756C29.9039 15.5444 29.719 15.4268 29.5361 15.3491C27.2361 14.3662 24.9601 13.3282 22.6573 12.3459C22.0923 12.1053 21.5101 11.8881 20.9869 11.5526C20.7292 11.1931 20.7319 10.7518 20.613 10.3497C20.1669 8.83743 19.817 7.29559 19.3853 5.77713C19.0918 4.74604 18.8402 3.69707 18.5604 2.65841C18.3755 1.96276 18.1844 1.26849 18.0249 0.566657C17.9885 0.39687 17.8723 0.222271 18.0133 0.0449219Z" fill="#DD804D"/>
<path d="M73.8268 21.9895C73.8433 22.1352 73.9436 22.2314 74.033 22.3332C74.0942 22.5896 74.2392 22.8054 74.3767 23.0206C74.609 23.1732 74.6791 23.4399 74.8132 23.6592C74.9472 23.8784 75.0579 24.0936 75.1844 24.3094C75.403 24.7487 75.6594 25.1673 75.8965 25.5969C76.1942 26.2053 76.5626 26.7751 76.8644 27.3807C77.3827 28.262 77.8618 29.168 78.3595 30.0581C78.4406 30.2046 78.5416 30.3675 78.3292 30.5022C77.9786 30.6335 77.6013 30.6287 77.2431 30.7229C76.5406 30.8603 75.8292 30.9456 75.1232 31.0666C74.596 31.1442 74.0653 31.1917 73.5422 31.2728C73.294 31.3071 73.0438 31.3195 72.7957 31.3518C72.5894 31.3786 72.4004 31.3429 72.3695 31.0769C72.3619 30.5201 72.531 29.9928 72.685 29.4697C73.0323 28.2575 73.6102 27.1237 74.387 26.1304C74.4784 26.0149 74.686 25.8588 74.5499 25.733C74.4014 25.5956 74.2413 25.8018 74.1265 25.9124C73.2781 26.7313 72.5624 27.6773 72.0052 28.7163C71.5932 29.4707 71.2593 30.2651 71.0084 31.0872C70.9603 31.248 70.9314 31.4261 70.7678 31.5271C70.552 31.6096 70.3162 31.5271 70.1011 31.6151C69.8144 31.6838 69.5168 31.5959 69.2315 31.679C69.1345 31.7007 69.0353 31.711 68.9359 31.71C68.6767 31.6984 68.4171 31.718 68.1626 31.7684C67.315 31.8158 66.4661 31.8406 65.6192 31.9176C65.4727 31.9328 65.3247 31.9263 65.18 31.8983C64.8479 31.7505 64.5062 31.6253 64.1571 31.5237C63.7619 31.4006 63.6973 31.2391 63.8822 30.8631C64.2864 30.0478 64.7236 29.2505 65.1463 28.4455C65.4749 27.8433 65.7925 27.235 66.1148 26.6294C66.3623 26.1482 66.6496 25.6822 66.871 25.1859C67.1026 24.8078 67.2985 24.4105 67.4965 24.0173C67.7502 23.6 67.9646 23.1622 68.1839 22.7284C68.3805 22.3916 68.5469 22.041 68.7249 21.6925C68.8548 21.4952 68.9697 21.2884 69.0686 21.0739C69.1276 20.9656 69.1782 20.853 69.2198 20.737C69.2631 20.6367 69.3284 20.548 69.3772 20.4497C69.5608 20.1342 69.7608 19.831 69.9058 19.4922C70.0969 19.1526 70.277 18.8082 70.4496 18.4611C70.6792 18.0795 70.8345 17.654 71.137 17.3172C71.2421 17.2423 71.3611 17.256 71.4807 17.2622C71.4697 17.3647 71.2511 17.4286 71.4264 17.564C71.5762 17.7867 71.68 18.0335 71.8099 18.2665C71.9337 18.4679 72.0443 18.679 72.1536 18.8852C72.3083 19.1258 72.4224 19.3884 72.573 19.631C72.6774 19.8977 72.9366 20.0957 72.927 20.4139L73.4081 21.2388C73.4927 21.5179 73.6742 21.7454 73.8268 21.9895Z" fill="#75A856"/>
<path d="M32.7877 8.93713C34.575 9.83625 36.3306 10.7869 38.1439 11.6304C39.3593 12.1954 40.5677 12.7763 41.7817 13.344C42.8224 13.8314 43.8803 14.2789 44.9182 14.7711C45.0159 14.8171 45.1197 14.8398 45.0812 14.9773C44.8853 15.7816 44.5168 16.5212 44.1965 17.276C43.817 18.1696 43.4699 19.0783 43.0726 19.9651C42.931 20.2806 42.8664 20.6456 42.5646 20.8724C42.0992 20.9102 41.7535 20.5975 41.3603 20.4373C40.1566 19.9472 38.9668 19.4234 37.7693 18.9175C37.0352 18.6074 36.2942 18.3112 35.5827 17.9489C35.4668 17.9005 35.3611 17.8305 35.2713 17.7427C34.9744 17.2897 34.9372 16.7501 34.7901 16.249C34.4863 15.2179 34.2038 14.1827 33.9027 13.1523C33.5398 11.9149 33.2036 10.6673 32.8077 9.44031C32.7554 9.27602 32.719 9.10692 32.7877 8.93713Z" fill="#DD804D"/>
<path d="M44.5423 23.433C45.1837 23.6433 45.8367 23.8248 46.4671 24.0716C47.3476 24.4187 48.2543 24.673 49.1658 24.9171C50.3399 25.2319 51.5215 25.524 52.7183 25.7475C53.4785 25.887 54.2347 26.0451 54.9908 26.1922C55.0239 26.233 55.0455 26.2819 55.0533 26.3338C54.9386 26.7689 54.6849 27.1408 54.4725 27.5264C53.8614 28.6359 53.3156 29.7784 52.7018 30.8858C52.6468 30.9854 52.609 31.0954 52.5134 31.169C52.4814 31.1874 52.4465 31.2007 52.4103 31.2081C51.7545 31.2136 51.118 31.0555 50.4856 30.9222C49.5727 30.7297 48.6427 30.5909 47.7621 30.2616C47.6811 30.2309 47.5982 30.2054 47.514 30.1853C47.2094 29.7509 47.052 29.2449 46.841 28.7665C46.0924 27.0714 45.3239 25.3852 44.5726 23.6908C44.5472 23.6393 44.5278 23.5851 44.5148 23.5292C44.5125 23.5121 44.5137 23.4948 44.5184 23.4782C44.5232 23.4616 44.5313 23.4462 44.5423 23.433Z" fill="#DB7D49"/>
<path d="M54.9922 26.3201C54.9922 26.2775 54.9922 26.2349 54.9922 26.1923C56.565 26.4768 58.1473 26.6968 59.7352 26.8797C59.881 26.9237 59.905 27.0556 59.9353 27.1732C60.0363 27.5602 60.1972 27.9245 60.3388 28.2964C60.7883 29.52 61.3499 30.6947 61.9198 31.8647C61.9597 31.9973 62.0964 32.1183 61.972 32.2723C61.9374 32.2925 61.8994 32.3064 61.86 32.3135C61.2558 32.3204 60.6557 32.2489 60.0556 32.1912C59.2059 32.1087 58.3508 32.0901 57.5019 31.9973C57.4252 31.9855 57.3503 31.9638 57.2792 31.9327C57.0881 31.7684 57.0255 31.5333 56.941 31.3141C56.3576 29.7816 55.7767 28.2478 55.1984 26.7126C55.1411 26.5761 55.0721 26.4448 54.9922 26.3201Z" fill="#DD824F"/>
<path d="M44.5428 23.4331L44.547 23.5067C44.64 23.7648 44.6736 24.0407 44.6452 24.3137C44.5463 25.4705 44.494 26.6302 44.3902 27.7864C44.3531 28.1954 44.3833 28.6065 44.3737 29.0161C44.3696 29.1736 44.3895 29.3378 44.2782 29.4733C44.0493 29.4788 44.1111 29.2884 44.1132 29.1839C44.1242 28.7089 44.072 28.634 43.5571 28.4965C42.4531 28.2009 41.3794 27.7988 40.2755 27.4984C40.1523 27.4697 40.0379 27.4117 39.9421 27.3293C39.917 27.3024 39.8999 27.2691 39.8926 27.233C39.9077 26.8893 40.0892 26.6041 40.2184 26.3051C40.9003 24.724 41.5506 23.1341 42.2119 21.5455C42.3028 21.3246 42.4063 21.1091 42.5219 20.9C42.6992 20.8182 42.8601 20.8932 43.0134 20.9688C43.4169 21.1606 43.8382 21.3084 44.2383 21.5098C44.3799 21.5785 44.5243 21.5751 44.6707 21.584L44.5428 23.4331Z" fill="#E6A072"/>
<path d="M32.79 8.93718C33.1176 10.07 33.4455 11.2028 33.7736 12.3357C34.1943 13.7971 34.6233 15.2557 35.0247 16.722C35.1182 17.0615 35.1917 17.4045 35.334 17.7283C35.3407 17.7338 35.3459 17.741 35.349 17.7491C35.3521 17.7573 35.353 17.766 35.3517 17.7746C35.3504 17.7832 35.3469 17.7913 35.3415 17.7982C35.3361 17.805 35.329 17.8103 35.321 17.8135C34.8804 17.7586 34.5147 17.5063 34.1208 17.3372C32.8072 16.7756 31.4977 16.2043 30.1978 15.6111C30.1671 15.5957 30.1385 15.5766 30.1126 15.5541C30.0999 15.5417 30.0925 15.525 30.0918 15.5073C30.0912 15.4897 30.0974 15.4724 30.1091 15.4592C30.2885 14.8928 30.5401 14.3552 30.7628 13.806C31.2193 12.6759 31.6565 11.5376 32.1273 10.4144C32.3335 9.92084 32.5686 9.43898 32.7226 8.9248L32.79 8.93718Z" fill="#DB7D49"/>
<path d="M18.0139 0.0449936C18.1198 0.55573 18.2752 1.05616 18.3893 1.56208C18.5556 2.29416 18.7721 3.01043 18.9571 3.73563C19.3434 5.25547 19.7599 6.76706 20.1648 8.28139C20.4549 9.36748 20.745 10.454 21.0351 11.541L20.9931 11.5713C20.5807 11.4716 20.2116 11.2688 19.828 11.1052C19.1791 10.8303 18.5426 10.523 17.8758 10.2893C17.8217 10.2696 17.7719 10.24 17.7287 10.202C17.7028 10.174 17.6829 10.141 17.6702 10.1051C17.6293 9.91152 17.6293 9.71157 17.6702 9.51802C17.7352 8.91006 17.7318 8.29673 17.6599 7.68955C17.5871 7.18431 17.7245 6.68938 17.7287 6.18758C17.8081 5.63247 17.8081 5.06888 17.7287 4.51377C17.7177 3.47305 17.6503 2.43233 17.75 1.39229C17.7878 0.995665 17.7376 0.5901 17.8744 0.20447C17.8779 0.17359 17.8716 0.14239 17.8562 0.115346C17.8409 0.0883008 17.8175 0.0668008 17.7892 0.0539298C17.8607 -0.00724865 17.9363 -0.0244336 18.0139 0.0449936Z" fill="#DF8856"/>
<path d="M68.2578 22.7456C68.056 23.1947 67.8264 23.6309 67.5704 24.0516C67.4463 24.1376 67.294 24.1725 67.1449 24.1492C66.2925 24.02 65.4312 24.0853 64.5754 24.0475C63.5264 24.0014 62.4747 23.9299 61.4216 23.9533C60.8614 23.9657 60.3053 23.8605 59.743 23.8743C59.6316 23.8743 59.4763 23.888 59.457 23.7052C59.4742 23.2288 59.6337 22.7957 59.8605 22.3833C61.0456 22.4349 62.2307 22.4727 63.4164 22.5084C64.8875 22.5531 66.3571 22.6356 67.8289 22.6459C67.9784 22.6372 68.1274 22.6718 68.2578 22.7456Z" fill="#68994E"/>
<path d="M60.2661 28.3204C60.0227 27.8647 59.9224 27.358 59.732 26.8817C59.7059 26.7442 59.6797 26.6005 59.6543 26.4603C59.7725 26.3386 59.9251 26.3441 60.0709 26.3648C60.9212 26.4837 61.7797 26.4266 62.6328 26.4631C63.6563 26.5064 64.6819 26.5792 65.7089 26.5565C65.8759 26.5531 66.0526 26.5277 66.1949 26.6638L65.2325 28.451C64.8888 28.6497 64.5218 28.5596 64.1657 28.5356C63.8715 28.5065 63.576 28.4925 63.2803 28.4936C62.3922 28.5266 61.5096 28.3843 60.6215 28.4201C60.4951 28.4288 60.3695 28.3936 60.2661 28.3204Z" fill="#6FA253"/>
<path d="M59.4591 23.7079C59.4809 23.7345 59.5094 23.7548 59.5416 23.7669C59.5738 23.7789 59.6087 23.7823 59.6426 23.7766C60.3513 23.7313 61.0531 23.8646 61.7625 23.8502C62.7441 23.8302 63.7271 23.8873 64.7046 23.9368C65.6587 23.9828 66.619 23.9141 67.5704 24.0516L66.9517 25.2202C66.8786 25.2839 66.7936 25.3325 66.7015 25.3629C66.6094 25.3934 66.5122 25.4052 66.4155 25.3975C65.3226 25.3517 64.2296 25.3141 63.1366 25.2848C62.0657 25.2552 60.9961 25.1755 59.9237 25.1899C59.7457 25.1899 59.5546 25.2236 59.4034 25.0827C59.3807 24.6214 59.3319 24.1595 59.4591 23.7079Z" fill="#6B9C50"/>
<path d="M59.4043 25.0828C60.6382 25.0346 61.8693 25.135 63.1011 25.1694C64.201 25.1996 65.3104 25.2244 66.413 25.2897C66.5955 25.2986 66.7782 25.2754 66.9526 25.2209L66.1965 26.6645C64.9681 26.6411 63.7356 26.6686 62.512 26.5792C61.5593 26.5105 60.6031 26.604 59.6559 26.461C59.5089 26.0154 59.4242 25.5516 59.4043 25.0828Z" fill="#6D9F51"/>
<path d="M68.2598 22.7457C67.4418 22.7161 66.6204 22.8144 65.8051 22.6818C65.771 22.6769 65.7365 22.6756 65.702 22.6776C64.7527 22.7258 63.8083 22.6 62.8603 22.6089C61.9805 22.6165 61.1047 22.4927 60.2242 22.5402C60.1556 22.549 60.0859 22.5392 60.0225 22.5119C59.959 22.4846 59.904 22.4407 59.8633 22.3848C59.9973 21.9607 60.2716 21.6287 60.5603 21.3008C62.063 21.4225 63.5697 21.4224 65.0744 21.4823C66.2025 21.5276 67.3319 21.5393 68.4592 21.6108C68.5836 21.6184 68.7135 21.6108 68.8091 21.716C68.6276 22.0583 68.4846 22.4247 68.2598 22.7457Z" fill="#64944C"/>
<path d="M72.9339 20.4085L72.5215 19.6523C72.659 19.5149 72.8425 19.5382 73.0095 19.5465C74.1052 19.5967 75.203 19.596 76.298 19.6654C77.0734 19.7142 77.8523 19.7169 78.6283 19.7341C79.7282 19.7568 80.8211 19.8531 81.9203 19.8242C82.2736 19.8152 82.6242 19.9108 82.9809 19.8867C83.1397 19.8757 83.3019 19.8819 83.4518 19.8132C83.6368 20.0641 83.7591 20.3557 83.8086 20.6635C83.7295 20.7824 83.6065 20.7494 83.4958 20.7515C82.4454 20.7728 81.3972 20.6889 80.3482 20.6621C79.7227 20.6456 79.0944 20.6491 78.4689 20.6126C77.0349 20.5301 75.599 20.5006 74.163 20.4628C73.7588 20.4518 73.3464 20.4167 72.9339 20.4085Z" fill="#5C8A48"/>
<path d="M83.4502 19.8132C83.4571 20.0366 83.2928 19.9858 83.1622 19.9968C82.6122 20.0421 82.0713 19.906 81.5213 19.9239C80.4703 19.9576 79.42 19.8682 78.3696 19.8428C77.0244 19.8105 75.6785 19.75 74.3325 19.7053C73.729 19.686 73.1248 19.6586 72.5199 19.6517C72.3582 19.4136 72.2201 19.1603 72.1074 18.8955C72.7893 18.8158 73.4719 18.8481 74.1545 18.8866C74.2679 18.8935 74.3806 18.9244 74.4982 18.9203C75.5609 18.8804 76.6216 18.9636 77.6808 19.0062C79.4681 19.0784 81.2636 19.066 83.0494 19.2186C83.2385 19.3774 83.3491 19.5919 83.4502 19.8132Z" fill="#5A8746"/>
<path d="M83.0486 19.2192C82.8987 19.3849 82.6946 19.3285 82.5337 19.2935C82.2755 19.2449 82.0124 19.2276 81.7501 19.2419C80.675 19.266 79.6026 19.1807 78.5296 19.156C77.1727 19.1244 75.8151 19.0694 74.4588 19.0185C73.7714 18.9924 73.0902 18.98 72.4056 18.9669C72.3027 18.9687 72.201 18.9451 72.1093 18.8982C71.9658 18.7094 71.8501 18.5011 71.7656 18.2795C71.8674 18.0871 72.0481 18.1084 72.2172 18.1256C73.1164 18.2142 74.0203 18.2019 74.9208 18.2266C76.6908 18.2754 78.4595 18.3545 80.2296 18.4005C80.9101 18.4177 81.6002 18.3799 82.2787 18.4995C82.6031 18.6652 82.7963 18.9738 83.0486 19.2192Z" fill="#578344"/>
<path d="M44.6688 21.577C44.567 21.7626 44.4392 21.6939 44.2955 21.6279C43.7208 21.3646 43.1503 21.091 42.5488 20.8889C42.5316 20.8738 42.5255 20.8587 42.5316 20.8436C42.5378 20.8284 42.5426 20.8209 42.5488 20.8209C42.7722 20.6387 42.8135 20.3507 42.92 20.1129C43.3002 19.2646 43.6239 18.3944 43.9827 17.5331C44.3416 16.6717 44.7141 15.8304 45.0826 14.9794C45.1321 15.9761 45.0008 16.9659 44.9307 17.9551C44.8427 19.1629 44.7251 20.3679 44.6688 21.577Z" fill="#DF8856"/>
<path d="M69.9761 19.5149C69.8427 19.8618 69.6573 20.1863 69.4262 20.4773C69.2138 20.546 68.9952 20.5206 68.7793 20.5082C67.5035 20.4333 66.2257 20.4099 64.9485 20.3659C64.1923 20.3405 63.4424 20.3144 62.689 20.3041C62.5285 20.304 62.3691 20.276 62.2181 20.2216C62.1253 20.1872 62.0119 20.1563 62.071 20.0106C62.5721 19.6242 63.1447 19.3706 63.7208 19.1224C64.0844 19.1444 64.4501 19.1946 64.8103 19.1912C65.8875 19.174 66.9598 19.2902 68.0369 19.2771C68.5621 19.2709 69.0866 19.3589 69.6138 19.3507C69.7534 19.3472 69.8895 19.3823 69.9761 19.5149Z" fill="#5D8B48"/>
<path d="M82.2819 18.4967C81.6942 18.6047 81.1037 18.5552 80.5139 18.5222C80.4349 18.5181 80.3558 18.4823 80.2788 18.4864C79.2601 18.5332 78.2462 18.4143 77.2282 18.4101C76.3263 18.4101 75.4196 18.3902 74.5239 18.3221C73.7266 18.2617 72.923 18.3806 72.1339 18.2122C72.0084 18.186 71.8777 18.2092 71.7688 18.2768L71.3633 17.5894C71.4698 17.4773 71.6121 17.4828 71.7475 17.4835C72.9457 17.4925 74.1431 17.5378 75.3392 17.6024C75.4533 17.6086 75.5674 17.621 75.6829 17.6176C76.791 17.5804 77.8956 17.6863 79.0037 17.7049C79.6829 17.7152 80.3682 17.733 81.0473 17.8059C81.4959 17.9627 81.9136 18.1965 82.2819 18.4967Z" fill="#537F42"/>
<path d="M69.9765 19.5149C69.8008 19.4676 69.6195 19.4444 69.4376 19.4461C67.8566 19.409 66.2707 19.3087 64.6849 19.3018C64.4168 19.3018 64.1446 19.233 63.8703 19.2406C63.8533 19.2427 63.836 19.2414 63.8194 19.2368C63.8028 19.2322 63.7873 19.2244 63.7738 19.2138C63.7602 19.2032 63.7489 19.19 63.7405 19.1751C63.732 19.1601 63.7267 19.1436 63.7246 19.1265C64.5663 18.7485 65.4406 18.4478 66.3367 18.2281C67.473 18.2143 68.6051 18.3305 69.7414 18.3147C70.0116 18.3112 70.2913 18.3016 70.5223 18.4858C70.3675 18.8426 70.185 19.1866 69.9765 19.5149Z" fill="#588545"/>
<path d="M81.0451 17.806C80.4952 17.927 79.937 17.8651 79.3836 17.8397C79.229 17.8328 79.0695 17.7922 78.9107 17.7977C77.7469 17.8342 76.5859 17.7379 75.4235 17.7118C74.07 17.6809 72.7173 17.595 71.3617 17.5895C71.2077 17.4025 71.2881 17.3063 71.4896 17.2561C73.5463 16.9914 75.6078 16.8663 77.6803 17.0389C78.8365 17.1351 79.9659 17.3537 81.0451 17.806Z" fill="#507B41"/>
<path d="M68.8074 21.7145C67.757 21.7379 66.7081 21.6554 65.6584 21.63C64.3145 21.5977 62.9714 21.5076 61.6247 21.5062C61.3299 21.5062 61.0405 21.4093 60.7414 21.4334C60.6541 21.4409 60.5964 21.3763 60.5586 21.2959C60.7357 21.0625 60.9439 20.8544 61.1773 20.6772C62.1946 20.7047 63.2106 20.7639 64.2286 20.79C65.7141 20.8278 67.1989 20.9089 68.685 20.9275C68.8575 20.9275 69.0287 20.9453 69.1524 21.0959C69.0365 21.3021 68.9215 21.5083 68.8074 21.7145Z" fill="#62914B"/>
<path d="M62.0716 20.0118C62.2153 20.2236 62.4531 20.1995 62.6484 20.194C63.8169 20.161 64.9766 20.2511 66.1383 20.2889C67.1845 20.3239 68.2341 20.3005 69.2776 20.4119C69.3305 20.4271 69.3808 20.4503 69.4268 20.4806C69.4364 20.5996 69.3285 20.6601 69.2893 20.7556C69.2111 20.8235 69.1188 20.8731 69.019 20.9009C68.9193 20.9287 68.8146 20.934 68.7126 20.9165C67.8877 20.8003 67.0491 20.8546 66.218 20.8195C65.1718 20.7755 64.1228 20.6972 63.0732 20.7281C62.6374 20.7412 62.2091 20.6594 61.776 20.6436C61.6386 20.6401 61.4495 20.6394 61.5155 20.3975C61.6753 20.2355 61.8639 20.1048 62.0716 20.0118Z" fill="#608E4A"/>
<path d="M70.5274 18.4837C69.2962 18.404 68.0637 18.3517 66.8292 18.3462C66.6602 18.3403 66.4943 18.2996 66.3418 18.2266C67.9167 17.7921 69.5243 17.4864 71.1488 17.3124C70.9934 17.7276 70.7336 18.0926 70.5274 18.4837Z" fill="#548043"/>
<path d="M61.5147 20.3939C61.5145 20.4172 61.5197 20.4401 61.5298 20.4611C61.5398 20.482 61.5545 20.5004 61.5727 20.5148C61.5909 20.5293 61.6122 20.5394 61.6349 20.5444C61.6576 20.5494 61.6811 20.5492 61.7037 20.5438C62.1058 20.5012 62.497 20.6283 62.8977 20.6125C64.0299 20.574 65.162 20.6565 66.29 20.7067C67.0963 20.7431 67.9109 20.6593 68.7152 20.8098C68.8959 20.8435 69.0967 20.7727 69.2885 20.75L69.151 21.0937C68.8265 21.0078 68.4952 21.0195 68.1646 21.025C67.1245 21.0442 66.0872 20.9651 65.0486 20.9397C63.8642 20.9102 62.6798 20.8455 61.494 20.8187C61.3648 20.8187 61.2383 20.8187 61.1758 20.6751C61.2452 20.5314 61.3827 20.4675 61.5147 20.3939Z" fill="#608F4A"/>
<path d="M70.7918 31.4708C71.2771 29.821 71.9941 28.2881 73.0768 26.9401C73.4273 26.5036 73.791 26.0768 74.2233 25.7159C74.3512 25.6086 74.5059 25.4602 74.6701 25.6334C74.8221 25.7942 74.6701 25.92 74.5663 26.0458C73.4438 27.4254 72.7894 29.0147 72.4629 30.7497C72.4528 30.829 72.4475 30.9089 72.4471 30.9889C72.421 31.3168 72.5028 31.6474 72.4175 31.9733C72.4175 32.1527 72.4175 32.3314 72.4134 32.5108C72.4224 32.7301 72.4134 32.9494 72.4134 33.1686C72.4097 33.3804 72.4288 33.592 72.4705 33.7997C72.4842 33.9495 72.4822 34.1001 72.4897 34.2499C72.5365 34.4458 72.5523 34.6479 72.5997 34.8438C72.6647 35.2384 72.7536 35.6286 72.8657 36.0124C73.2094 37.2174 73.6865 38.3832 73.9656 39.6096C74.0941 40.1767 74.2295 40.7417 74.3154 41.3177C74.3388 41.4745 74.3718 41.6319 74.3154 41.7886C74.4351 42.8781 74.5718 43.9649 74.6042 45.0634C74.6385 46.2636 74.633 47.4603 74.499 48.655C73.1283 48.655 71.7579 48.6564 70.3877 48.6592C70.288 48.6592 70.178 48.6853 70.1065 48.5794L70.123 48.4474C70.1141 47.9202 70.3031 47.4253 70.3718 46.9104C70.4447 46.5115 70.497 46.109 70.5286 45.7047C70.6124 45.4566 70.5354 45.194 70.5973 44.9438C70.6874 44.6131 70.6083 44.2749 70.6406 43.9422C70.6351 43.7875 70.6386 43.6326 70.6509 43.4782C70.654 43.4413 70.6602 43.4048 70.6695 43.3689C70.7822 43.0163 70.6695 42.6644 70.6695 42.3124C70.6186 41.7432 70.675 41.1713 70.5788 40.6022C70.4035 39.5601 69.9017 38.6946 69.1964 37.9316C69.0259 37.7474 68.841 37.5762 68.665 37.3968C68.3289 37.0222 67.9165 36.7342 67.5267 36.4248C67.2957 36.2152 67.0338 36.0447 66.7871 35.8543C66.6445 35.7254 66.4936 35.606 66.3354 35.4969C66.1746 35.38 66.0186 35.2604 66.077 35.0239C66.1457 34.8638 66.2791 34.828 66.4365 34.8404C66.6929 34.8926 66.8806 35.0858 67.1184 35.1765C67.3198 35.2824 67.5233 35.3828 67.7295 35.4817C67.9792 35.6413 68.2404 35.7819 68.5111 35.9024C69.1139 36.2461 69.7133 36.6001 70.3478 37.0057C70.3347 36.2867 70.2172 35.6261 70.2296 34.9607C70.2283 34.8672 70.2376 34.7738 70.257 34.6823C70.3478 34.3386 70.2447 33.9805 70.3162 33.6347C70.3849 33.434 70.3443 33.2223 70.389 33.016C70.4337 32.8786 70.431 32.7273 70.4626 32.5844C70.5245 32.3781 70.497 32.154 70.5801 31.952C70.6427 31.7877 70.6544 31.6014 70.7918 31.4708Z" fill="#5A2400"/>
<path d="M74.3133 41.7865C74.1133 40.7479 73.9325 39.7037 73.6198 38.6932C73.3641 37.8684 73.0912 37.0435 72.8279 36.2186C72.8114 36.1526 72.7994 36.0855 72.7921 36.0179C72.711 35.835 72.8664 35.8048 72.9709 35.7526C74.0157 35.2349 75.0688 34.7331 76.1185 34.2265C77.1681 33.7199 78.2136 33.203 79.2709 32.7143C79.4633 32.6249 79.6407 32.4812 79.8744 32.508C79.3671 33.5536 78.7574 34.5427 78.1731 35.545C76.9743 37.6023 75.7191 39.626 74.4357 41.6319C74.4 41.6869 74.3539 41.7364 74.3133 41.7865Z" fill="#75A856"/>
<path d="M72.3953 34.2939L72.3809 33.8127C72.4858 33.7064 72.6121 33.6235 72.7514 33.5694C74.7888 32.6029 76.8194 31.6215 78.8431 30.6253C79.0892 30.5043 79.3579 30.4307 79.6068 30.2424C79.2865 30.3256 78.9881 30.3902 78.6926 30.4486C78.5846 30.4713 78.4719 30.529 78.3647 30.4424C78.4224 30.351 78.3867 30.2678 78.3406 30.186L76.7836 27.4199C76.8751 27.2859 77.0125 27.2955 77.1521 27.2948C78.3028 27.2886 79.4508 27.3917 80.6028 27.3904C81.0792 27.3904 81.5563 27.4591 82.0354 27.455C82.1488 27.455 82.2656 27.4619 82.3502 27.5574C82.2127 28.0516 81.9501 28.4902 81.7315 28.9487C81.5129 29.4072 81.2744 29.8547 81.0441 30.307C80.3939 30.6383 79.7429 30.9703 79.0782 31.2694C78.2045 31.666 77.3494 32.1011 76.4853 32.5177C75.3435 33.0676 74.1922 33.6003 73.0641 34.1798C72.8655 34.287 72.6496 34.4465 72.3953 34.2939Z" fill="#70A353"/>
<path d="M75.1331 24.3266C74.8224 23.9251 74.6203 23.4611 74.377 23.0205C75.8253 23.1009 77.275 23.1174 78.7227 23.1772C79.419 23.2061 80.1188 23.1655 80.8103 23.2357C81.8228 23.3374 82.8409 23.2611 83.852 23.3642C83.7928 23.7891 83.6801 24.2049 83.5166 24.6015C83.1262 24.8077 82.7103 24.706 82.3068 24.6847C82.0215 24.6696 81.7369 24.6435 81.4503 24.6421C79.7462 24.6304 78.0456 24.5115 76.3408 24.4854C75.9435 24.4785 75.5146 24.5287 75.1331 24.3266Z" fill="#68994E"/>
<path d="M82.3512 27.5575C81.2775 27.585 80.2037 27.5073 79.1328 27.4633C78.4296 27.4344 77.7181 27.5025 77.017 27.378C76.9448 27.365 76.8623 27.4049 76.7846 27.42C76.4638 26.8242 76.1431 26.2285 75.8223 25.6327C75.9178 25.5283 76.0477 25.5289 76.1721 25.5269C77.3717 25.5097 78.5684 25.5908 79.7659 25.641C79.9143 25.6472 80.0628 25.6664 80.2106 25.6596C81.0575 25.6176 81.8995 25.7352 82.7444 25.7331C82.8695 25.7331 82.9987 25.7331 83.0949 25.8383C82.9066 26.4377 82.6206 26.9945 82.3512 27.5575Z" fill="#6D9F51"/>
<path d="M83.0929 25.839C82.0212 25.8658 80.9516 25.7806 79.8807 25.7551C78.5279 25.7221 77.1751 25.63 75.8202 25.6334C75.5982 25.1942 75.2957 24.7976 75.1328 24.3274C76.0697 24.337 77.006 24.3796 77.9415 24.4106C79.2758 24.4546 80.61 24.5075 81.9449 24.548C82.468 24.5639 82.9925 24.5975 83.517 24.603C83.4338 25.034 83.2592 25.4348 83.0929 25.839Z" fill="#6B9C50"/>
<path d="M79.8768 32.5067C79.2918 32.7878 78.7082 33.0662 78.1218 33.3501C76.9924 33.9001 75.8658 34.4568 74.7364 35.0075C74.1521 35.2927 73.5678 35.5718 72.976 35.8502C72.8935 35.8894 72.7959 35.9004 72.7945 36.0207C72.6445 35.6444 72.5518 35.2477 72.5195 34.8439C72.8399 34.6211 73.2007 34.472 73.5506 34.3077C74.8629 33.689 76.1586 33.0346 77.4688 32.4187C78.3995 31.9815 79.3028 31.4887 80.2514 31.0893C80.3744 31.0377 80.4975 30.9518 80.6329 31.0632C80.4445 31.5766 80.1579 32.0406 79.8768 32.5067Z" fill="#73A655"/>
<path d="M80.6357 31.063C80.2755 31.1063 79.9731 31.3043 79.6589 31.4548C77.7748 32.3581 75.9064 33.295 74.0168 34.1866C73.526 34.4182 73.0634 34.7275 72.5203 34.8437L72.3945 34.2938C72.62 34.3048 72.8166 34.212 73.0132 34.1171C74.8905 33.2008 76.7629 32.2742 78.6499 31.3758C79.2781 31.0761 79.9009 30.7647 80.5285 30.4629C80.6928 30.3846 80.8591 30.3089 81.0475 30.3069C80.9657 30.5901 80.7698 30.8114 80.6357 31.063Z" fill="#71A454"/>
<path d="M31.0065 48.4466C29.6228 48.45 28.239 48.4576 26.8553 48.4569C23.5847 48.4569 20.3138 48.4532 17.0427 48.4459C16.9052 48.3772 16.8915 48.2548 16.8853 48.1249C16.8626 47.6637 16.8736 47.2017 16.875 46.7405C16.875 46.5961 16.8626 46.4442 16.9774 46.328C17.1664 46.3164 17.1286 46.4738 17.132 46.5666C17.1458 47.0003 17.1561 47.4348 17.132 47.8204C17.5039 46.889 17.8848 45.9087 18.2724 44.9333C18.7949 43.6156 19.331 42.3033 19.8225 40.9732C19.9325 40.6756 19.9105 40.6419 19.5778 40.6501C18.9138 40.6666 18.2559 40.5422 17.5912 40.5725C17.4187 40.58 17.2475 40.5477 17.1396 40.3793C17.0544 40.1566 17.1149 39.9222 17.0798 39.6919C17.075 38.7213 17.031 37.7479 17.0887 36.7808C17.1712 35.4108 17.0846 34.0401 17.1623 32.6743C17.2035 31.9463 17.1458 31.2135 17.2688 30.4911C17.4029 30.302 17.5947 30.3502 17.7686 30.388C19.1544 30.6877 20.5553 30.907 21.9411 31.2032C22.3666 31.2947 22.7976 31.351 23.2217 31.4424C23.3942 31.4802 23.595 31.5022 23.6445 31.7318C23.564 32.1869 23.3475 32.5952 23.1791 33.0173C22.2449 35.3544 21.3479 37.7081 20.3972 40.0397C20.3711 40.103 20.3484 40.1676 20.3243 40.2322C20.2556 40.4192 20.314 40.5003 20.5189 40.5223C21.2585 40.6034 22.003 40.6192 22.7447 40.646C24.037 40.6941 25.321 40.8474 26.6106 40.9134C27.2274 40.9446 27.844 40.9744 28.4604 41.0028C28.6198 41.0096 28.7828 40.9856 28.9319 41.0667C29.079 41.1794 29.123 41.3506 29.1649 41.5142C29.5004 42.8202 29.884 44.1132 30.2462 45.4111C30.4641 46.1926 30.7095 46.9673 30.9199 47.7482C30.9769 47.973 31.1013 48.1991 31.0065 48.4466Z" fill="#F2CCAB"/>
<path fill-rule="evenodd" clip-rule="evenodd" d="M17.0405 48.4488C17.0192 48.3553 16.9958 48.2646 16.9718 48.1738C16.6415 47.4591 16.3461 46.7301 16.0507 46.001C15.9526 45.7588 15.8545 45.5167 15.7551 45.2751C15.5233 44.7049 15.2874 44.1363 15.0515 43.5677C14.6662 42.6392 14.281 41.7107 13.9135 40.7754C13.8579 40.6379 13.7994 40.5004 13.6516 40.4317C13.6147 40.4189 13.5759 40.4122 13.5368 40.4117C12.8373 40.4652 12.1362 40.4654 11.4345 40.4656C10.8911 40.4657 10.3473 40.4659 9.80359 40.4908C9.6272 40.4988 9.45074 40.5073 9.27421 40.5157C8.13952 40.5699 7.00216 40.6242 5.8648 40.5802C5.41571 40.5625 4.9689 40.594 4.52199 40.6255C4.27388 40.643 4.02575 40.6604 3.77717 40.6695C3.73662 40.6778 3.69749 40.6919 3.661 40.7114C3.53857 40.7968 3.4988 40.928 3.45926 41.0585C3.45262 41.0804 3.44599 41.1023 3.43897 41.1239C3.37455 41.3241 3.31083 41.5243 3.24714 41.7244C3.05804 42.3186 2.86928 42.9118 2.66359 43.4995C2.37646 44.3243 2.10687 45.1546 1.8373 45.9848C1.64157 46.5876 1.44584 47.1904 1.24343 47.791C1.1685 48.0027 1.09632 48.2226 1.1685 48.4543L7.34796 48.4556V45.6949H14.3499V45.6969L11.5981 48.4566L16.9381 48.4577C16.9549 48.4577 16.9718 48.4555 16.9888 48.4533C17.006 48.4511 17.0232 48.4488 17.0405 48.4488Z" fill="#EDBC96"/>
<path d="M43.6514 48.4542L31.0652 48.4501C30.9909 48.272 31.07 48.1105 31.1339 47.9572C31.7574 46.5212 32.3341 45.066 32.9507 43.6266C33.2112 43.0183 33.4759 42.4099 33.7068 41.7885C33.7708 41.6174 33.834 41.4407 34.0347 41.3761C34.6988 41.3424 35.3587 41.4166 36.0206 41.4366C37.0517 41.4675 38.0732 41.5692 39.1009 41.6222C40.0247 41.6703 40.9527 41.6552 41.8697 41.8043C42.0264 41.8923 42.0622 42.0545 42.1027 42.2065C42.5248 43.8053 42.9702 45.398 43.3641 47.0045C43.47 47.4362 43.6391 47.8514 43.6934 48.2961C43.6973 48.3239 43.6956 48.3522 43.6884 48.3794C43.6812 48.4066 43.6686 48.432 43.6514 48.4542Z" fill="#F2CCAB"/>
<path d="M70.45 46.942C70.3878 47.4532 70.2778 47.9574 70.1214 48.448C70.0733 48.2666 69.9228 48.3243 69.8094 48.3264C69.2594 48.3374 68.7137 48.369 68.1658 48.3717C66.0039 48.3841 63.8407 48.3559 61.6795 48.4041C59.473 48.4529 57.2664 48.435 55.0599 48.4432C55.0426 48.4229 55.0317 48.3979 55.0284 48.3714C55.0251 48.3449 55.0296 48.318 55.0413 48.2941C55.4118 47.6067 55.6717 46.8739 55.9707 46.1576C56.39 45.1547 56.8244 44.1587 57.2197 43.1461C57.2384 43.1042 57.2653 43.0663 57.2987 43.0348C57.3218 43.0157 57.3485 43.0016 57.3772 42.9932C57.4059 42.9848 57.4361 42.9823 57.4658 42.986C58.8681 42.9956 60.2703 42.9605 61.6713 43.0032C61.7093 43.0095 61.7463 43.021 61.7812 43.0375C61.9435 43.1317 61.9875 43.3036 62.0493 43.4617C62.6845 45.0049 63.3217 46.5481 63.9596 48.1422C64.2868 47.4224 64.5604 46.7227 64.8574 46.0325C65.2774 45.0557 65.7104 44.0844 66.1036 43.0967C66.1346 42.9974 66.1944 42.9095 66.2755 42.8444C66.3084 42.8256 66.3441 42.8121 66.3813 42.8045C66.8474 42.7963 67.3072 42.667 67.7767 42.7358C68.0256 42.7811 68.0922 43.0066 68.2139 43.1778C68.2703 43.2733 68.3115 43.3778 68.3748 43.4706C68.4504 43.5826 68.5054 43.7071 68.581 43.8143C68.6312 43.8885 68.6758 43.9662 68.7185 44.0439C68.7838 44.1621 68.8628 44.2721 68.9247 44.3876C69.0299 44.5752 69.1646 44.7443 69.2684 44.9327C69.4175 45.1905 69.5715 45.4455 69.7434 45.6888C69.9035 45.9933 70.1043 46.2731 70.2844 46.5653C70.3596 46.6811 70.4155 46.8083 70.45 46.942Z" fill="#ECB78D"/>
<path d="M0.903343 31.338C0.877222 30.5056 0.848351 29.6731 0.82498 28.84C0.779153 27.094 0.733327 25.348 0.6875 23.602C0.6875 23.4769 0.693687 23.3518 0.697811 23.226C0.917778 23.3126 0.838728 23.5106 0.847664 23.6646C0.860724 23.8783 0.943899 23.9437 1.15356 23.8948C2.69539 23.5381 4.24685 23.2336 5.78937 22.8638C5.97667 22.8148 6.16814 22.7835 6.36128 22.7703C6.39808 22.7703 6.43435 22.779 6.46714 22.7957C6.78059 23.3772 6.98819 24.0055 7.23703 24.6139C7.58966 25.4765 7.96292 26.3324 8.29356 27.2026C8.30625 27.2553 8.30765 27.3101 8.29768 27.3635C7.80207 28.8359 7.31195 30.3096 6.78541 31.7717C6.76981 31.7966 6.74889 31.8177 6.72417 31.8335C6.69945 31.8493 6.67153 31.8594 6.64243 31.8632C4.88269 32.1319 3.11058 32.2976 1.34946 32.5368C0.937025 32.5932 0.937025 32.5622 0.929464 32.1567C0.921903 31.8879 0.961772 31.613 0.903343 31.338Z" fill="#E9AB80"/>
<path d="M55.0614 48.3169V48.4427C53.057 48.4482 51.0525 48.4578 49.0481 48.4592C47.2505 48.4592 45.4523 48.453 43.6541 48.4495L43.6458 48.3052C43.5296 47.6625 43.5358 47.0136 43.5461 46.364C43.5461 46.2389 43.5503 46.1124 43.6266 46.0031C43.7393 45.9213 43.7778 46.0182 43.7833 46.0911C43.8349 46.7675 43.8142 47.4432 43.8025 48.0213C44.2837 47.0404 44.8598 45.9811 45.4021 44.9033C45.8379 44.0364 46.2957 43.1793 46.7274 42.3104C46.7879 42.1894 46.8457 42.0602 46.9941 42.0134C47.3126 42.032 47.6288 42.078 47.9393 42.1509C48.5435 42.274 49.1539 42.3523 49.763 42.4458C50.7563 42.597 51.7606 42.639 52.7559 42.7689C52.8132 42.7728 52.8671 42.7972 52.9078 42.8376C53.2515 43.5436 53.5107 44.286 53.8111 45.0105C54.207 45.9673 54.5844 46.9318 54.9796 47.8879C55.0381 48.0288 55.0999 48.1636 55.0614 48.3169Z" fill="#E9AC80"/>
<path d="M6.3929 22.8145C5.83405 22.9437 5.27588 23.075 4.71634 23.2028C3.49139 23.4828 2.26645 23.7612 1.04151 24.038C0.835289 24.0848 0.751426 24.014 0.751426 23.7947C0.751426 23.6063 0.813292 23.407 0.698497 23.2283C0.606385 21.0499 0.512899 18.8709 0.481279 16.6904C0.47578 16.278 0.37542 15.8738 0.42285 15.4607C0.6765 15.7075 0.672376 15.693 1.07863 15.5748C1.66842 15.4036 2.2472 15.1912 2.83355 15.0187C2.93941 14.9877 3.04459 14.9231 3.16213 14.9767V14.9781C3.37522 15.0517 3.43297 15.2476 3.50583 15.4263C4.42626 17.7703 5.40511 20.0903 6.33928 22.4288C6.38534 22.5526 6.49326 22.6694 6.3929 22.8145Z" fill="#E39667"/>
<path d="M0.903286 31.338C1.03114 31.635 0.93903 31.9457 0.958965 32.2488C0.969276 32.4117 0.974088 32.4818 1.18787 32.455C2.26571 32.2997 3.34561 32.1546 4.42826 32.0426C5.13903 31.967 5.85049 31.9051 6.5537 31.7676C6.58669 31.7608 6.63 31.8041 6.66849 31.824C6.7606 31.9498 6.67811 32.0667 6.64237 32.1801C6.12064 33.823 5.54253 35.4473 4.99262 37.0798C4.61317 38.2044 4.24266 39.3318 3.86528 40.4563C3.83882 40.567 3.78599 40.6696 3.71131 40.7554H3.64257C3.54221 40.8454 3.41847 40.8564 3.29268 40.8598C2.62453 40.8805 1.95569 40.8262 1.28892 40.9018C1.24359 40.9075 1.19757 40.9029 1.15425 40.8884C1.11094 40.8738 1.07145 40.8498 1.0387 40.8179C1.0387 40.7375 1.03045 40.6578 1.02977 40.578C1.00502 38.0676 0.987148 35.56 0.951403 33.0469C0.940405 32.4791 0.87029 31.9113 0.903286 31.338Z" fill="#ECB78D"/>
<path d="M33.9573 41.4429C33.6789 42.1406 33.373 42.8259 33.1043 43.5277C32.8355 44.2296 32.4664 44.8908 32.2106 45.5954C31.8587 46.5578 31.3658 47.4638 31.0661 48.4474L31.0366 48.4509L31.007 48.4468C30.6777 47.0885 30.2509 45.757 29.8762 44.411C29.5703 43.3071 29.2878 42.1942 28.9297 41.1047L28.9764 41.0614C29.305 40.9967 29.6329 41.0614 29.9587 41.0813C30.7637 41.1315 31.57 41.1597 32.3749 41.2085C32.8912 41.2401 33.4218 41.1906 33.9188 41.3934L33.9573 41.4429Z" fill="#E6A072"/>
<path d="M3.16277 14.978C2.5503 15.2172 1.92546 15.4152 1.29443 15.6001C1.18582 15.6317 1.07446 15.6592 0.969974 15.7011C0.550662 15.8716 0.550662 15.8716 0.423493 15.4591C0.297699 13.8664 0.263329 12.2682 0.206963 10.6707C0.177405 9.88366 0.110727 9.09865 0.0605469 8.31296C0.0605469 8.19885 0.0605469 8.08474 0.0605469 7.96926C0.0605469 7.78572 0.0605469 7.60288 0.0605469 7.41934L0.0749822 7.28186C0.297699 7.80428 0.530727 8.32258 0.742445 8.84982C1.4594 10.637 2.15299 12.4353 2.90431 14.2115C3.0088 14.4549 3.17858 14.6879 3.16277 14.978Z" fill="#DE8451"/>
<path d="M1.03635 40.8193C1.90247 40.7155 2.77203 40.7657 3.64021 40.7568C3.31942 41.7874 2.98306 42.8121 2.63111 43.8308C2.25716 44.9183 1.93477 46.0236 1.57252 47.1145C1.42473 47.5606 1.25356 47.9916 1.16833 48.4543C1.07232 48.3011 1.02577 48.122 1.03497 47.9415C1.03222 45.5667 1.03268 43.1927 1.03635 40.8193Z" fill="#F6DCC4"/>
<path d="M6.39288 22.8144C6.06659 21.9996 5.73962 21.1851 5.41196 20.3707C5.19062 19.8208 4.96515 19.2709 4.74312 18.721C4.286 17.5916 3.83163 16.4601 3.36833 15.3321C3.30851 15.2091 3.23957 15.0908 3.16211 14.9781L5.65393 14.1587C6.49599 13.8838 7.33805 13.6088 8.17874 13.3256C9.11566 13.0121 10.0512 12.6925 10.9874 12.3763C11.6748 12.1433 12.3622 11.9047 13.0551 11.6813C13.2792 11.6126 13.5006 11.4937 13.7508 11.5384C13.7171 12.012 13.5253 12.443 13.372 12.8808C12.9898 13.9717 12.5911 15.0565 12.2124 16.1487C11.857 17.1757 11.4865 18.1979 11.1263 19.2228C10.8005 20.1514 10.4602 21.0746 10.1564 22.0109C10.1267 22.06 10.0818 22.0981 10.0285 22.1195C8.95481 22.3442 7.88934 22.6006 6.82113 22.8495C6.69602 22.8784 6.57367 22.9079 6.46231 22.8137L6.39288 22.8144Z" fill="#E6A072"/>
<path d="M10.1055 21.9895C10.2313 21.3268 10.5131 20.7144 10.7241 20.0799C10.9812 19.3038 11.274 18.5401 11.5435 17.7689C11.9284 16.6759 12.3106 15.5816 12.6901 14.4858C12.9815 13.6507 13.3232 12.8326 13.5706 11.9816C13.6228 11.8312 13.6836 11.6838 13.7528 11.5403C13.7755 11.5258 13.7936 11.5053 13.8052 11.481C13.8167 11.4567 13.8212 11.4296 13.8181 11.4029C14.324 11.1279 14.8815 10.9835 15.4218 10.8062C16.0515 10.6 16.6722 10.3628 17.3101 10.1807C17.4476 10.1408 17.585 10.0535 17.7335 10.1635C17.9095 10.413 17.8469 10.6935 17.8194 10.9609C17.7906 11.2454 17.7789 11.5293 17.7734 11.8153C17.7317 13.9737 17.7037 16.1322 17.6895 18.2906C17.6847 18.9601 17.673 19.6365 17.6057 20.3067C17.5933 20.347 17.5735 20.3845 17.5472 20.4174C16.8598 20.6765 16.1333 20.7776 15.4204 20.9295C14.3577 21.1543 13.3053 21.4272 12.2398 21.6368C11.6562 21.7516 11.0864 21.9276 10.498 22.0177C10.3687 22.041 10.2292 22.0946 10.1055 21.9895Z" fill="#DE8451"/>
<path d="M17.7357 10.1662C17.082 10.3161 16.4702 10.5993 15.8261 10.7739C15.1484 10.9581 14.5242 11.3073 13.8203 11.4056C13.8691 11.0172 14.0492 10.6687 14.1723 10.3058C14.5249 9.2623 14.905 8.22776 15.281 7.19254C15.5175 6.54158 15.7691 5.89611 16.0069 5.24514C16.2922 4.46632 16.5623 3.682 16.8531 2.90799C17.1858 2.00131 17.4649 1.07676 17.8732 0.202393C17.8127 1.64593 17.7983 3.08946 17.8045 4.533C17.8582 5.08161 17.8582 5.63415 17.8045 6.18275C17.8519 6.69074 17.7007 7.19048 17.7357 7.69503C17.7887 8.31141 17.7887 8.93119 17.7357 9.54757C17.7357 9.75379 17.7357 9.96 17.7357 10.1662Z" fill="#DB7D49"/>
<path d="M42.5499 20.8209V20.8897C42.5169 21.3021 42.2612 21.6252 42.1244 21.9964C41.8886 22.635 41.5978 23.2536 41.3325 23.8819C40.9132 24.8759 40.495 25.8703 40.078 26.8652C40.0292 26.9807 39.9845 27.0976 39.9405 27.2137C39.8085 27.3306 39.6594 27.2962 39.5205 27.2454C39.1012 27.0921 38.6626 27.0137 38.2351 26.8913C38.1505 26.8673 38.0529 26.7972 37.9766 26.8632C37.8811 26.9463 37.9608 27.0549 37.9876 27.1484C38.2626 28.1005 38.5265 29.0546 38.7541 30.019C38.7417 30.4101 38.5203 30.7305 38.3822 31.0762C37.9732 32.0943 37.5415 33.0965 37.1194 34.1049C37.0973 34.1582 37.0626 34.2053 37.0184 34.2424C36.9872 34.2641 36.9519 34.279 36.9146 34.2864C36.5138 34.2658 36.1241 34.175 35.733 34.096C33.8213 33.7076 31.8986 33.3708 29.9863 32.9844C29.0081 32.7878 28.0458 32.5624 27.0552 32.438C26.8729 32.4174 26.6958 32.3636 26.5328 32.2792C26.4111 32.1953 26.3651 32.0661 26.3314 31.9314C25.9953 30.5786 25.6193 29.2354 25.2529 27.8901C25.2059 27.7248 25.1947 27.5514 25.2199 27.3815C25.7134 26.1551 26.1822 24.9178 26.684 23.6956C26.8215 23.3677 26.8105 23.3121 26.4558 23.2213C25.6591 23.0151 24.9126 22.6625 24.1187 22.4514C24.0166 22.4305 23.9218 22.3831 23.8437 22.314C23.8185 22.2872 23.7974 22.2569 23.7812 22.2239C23.5138 21.3379 23.3041 20.4367 23.0546 19.5431C22.3768 17.1248 21.7891 14.6825 21.1065 12.2656C21.0378 12.0319 20.9168 11.7933 21.0323 11.5363C21.5547 11.737 22.0592 11.9755 22.5665 12.2106C23.124 12.4691 23.6952 12.698 24.2582 12.944C25.0089 13.2719 25.7554 13.6081 26.5074 13.9318C27.401 14.3175 28.3042 14.688 29.1965 15.0784C29.4969 15.2104 29.7849 15.3719 30.1052 15.4565V15.5252C29.9437 16.1714 29.6584 16.7729 29.4055 17.3812C28.7744 18.9031 28.1936 20.4449 27.5756 21.9716C27.4807 22.2054 27.3584 22.426 27.2725 22.6632C27.0793 23.1966 27.0807 23.2172 27.6107 23.4001C28.2383 23.6159 28.8789 23.7919 29.5141 23.9837C30.8277 24.381 32.1262 24.8209 33.4425 25.2141C34.7245 25.5977 35.9983 26.0087 37.2789 26.3964C37.3621 26.4219 37.4576 26.4927 37.5346 26.4136C37.5972 26.349 37.5346 26.2617 37.5154 26.1861C37.1291 24.6559 36.696 23.1388 36.2781 21.6176C36.0141 20.6553 35.7281 19.7046 35.4999 18.7374C35.4546 18.547 35.3624 18.3717 35.3191 18.1827C35.2868 18.0535 35.2208 17.9187 35.3294 17.7909C35.3294 17.7689 35.3294 17.7462 35.3294 17.7221C36.4224 18.2769 37.5546 18.7477 38.686 19.2131C39.6319 19.6022 40.5537 20.0476 41.5043 20.4133C41.8563 20.5522 42.1519 20.8251 42.5499 20.8209Z" fill="#E08D5B"/>
<path d="M60.2676 28.3204C61.4726 28.2626 62.6735 28.3994 63.8771 28.4015C64.3253 28.4015 64.7817 28.4358 65.234 28.451C64.9041 29.0854 64.5831 29.7254 64.2387 30.3523C64.1184 30.5716 64.0325 30.806 63.8998 31.0205C63.7953 31.1896 63.8386 31.347 64.0964 31.4198C64.4401 31.5174 64.8078 31.5711 65.0972 31.813C64.8615 31.9924 64.5748 31.9725 64.3088 31.9849C63.6131 32.0172 62.9147 31.9979 62.2177 31.9952C62.0912 32.0042 61.9655 31.9682 61.863 31.8935C61.243 30.7438 60.7097 29.5494 60.2676 28.3204Z" fill="#72A554"/>
<path d="M61.8652 31.8935C62.9431 31.8777 64.023 31.9238 65.096 31.8131L68.1893 31.6825C68.2147 31.8681 68.0587 31.908 67.9453 31.9657C66.4096 32.7438 64.8479 33.4697 63.2985 34.2211C63.2191 34.2678 63.1265 34.2867 63.0352 34.2747C62.992 34.2607 62.9524 34.2373 62.9194 34.2061C62.8863 34.175 62.8606 34.1369 62.8441 34.0946C62.5602 33.5447 62.2797 32.9879 62.0096 32.4283C61.9923 32.3991 61.9811 32.3667 61.9766 32.333C61.9721 32.2994 61.9744 32.2651 61.9835 32.2324C61.9431 32.1192 61.9037 32.0063 61.8652 31.8935Z" fill="#436B39"/>
<path d="M78.3648 30.4445L79.8819 30.1008C79.6929 30.3345 79.4922 30.4363 79.288 30.5332C78.4515 30.9298 77.6128 31.3216 76.7776 31.7224C75.3754 32.3961 73.9744 33.0725 72.5749 33.7516C72.5118 33.7771 72.447 33.7982 72.381 33.8148C72.3216 33.6144 72.3029 33.404 72.3261 33.1962C72.6911 32.8717 73.1509 32.7281 73.5812 32.5212C74.7436 31.9582 75.9129 31.4083 77.067 30.8281C77.1454 30.7889 77.2416 30.7594 77.265 30.6549C77.6211 30.5256 77.9943 30.494 78.3648 30.4445Z" fill="#6DA052"/>
<path d="M70.7907 31.4708C70.7488 31.633 70.7062 31.7953 70.6642 31.9568C70.5756 32.1012 70.4319 32.172 70.2875 32.2428C68.1958 33.2663 66.0944 34.2733 63.9972 35.2838C63.8501 35.3525 63.703 35.4213 63.5449 35.3113C63.4424 35.2254 63.3764 35.125 63.4198 34.9834C63.5799 34.8081 63.8047 34.7401 64.0089 34.6397C66.0532 33.665 68.0947 32.6841 70.1267 31.6839C70.1772 31.6571 70.2305 31.6357 70.2855 31.62C70.3302 31.6296 70.2999 31.5512 70.2944 31.5987C70.2944 31.6097 70.2827 31.6097 70.2635 31.6103C70.2348 31.6114 70.2062 31.6057 70.1801 31.5938C70.154 31.5818 70.131 31.564 70.1129 31.5416C70.3267 31.4069 70.5659 31.5072 70.7907 31.4708Z" fill="#588545"/>
<path d="M77.2642 30.6506C77.3577 30.7661 77.3611 30.7723 77.2243 30.8417C76.7562 31.0789 76.2888 31.3174 75.8158 31.5449C74.8535 32.0092 73.887 32.4695 72.9164 32.9259C72.7212 33.0187 72.5225 33.1033 72.3252 33.1919C72.3252 32.9637 72.3204 32.7348 72.3184 32.5045C72.937 32.1402 73.588 31.8385 74.2383 31.5367C74.4871 31.4212 74.7346 31.3043 74.9779 31.1785C75.0508 31.1407 75.1656 31.1236 75.1333 30.9923C75.6419 30.8397 76.1733 30.8135 76.693 30.7235C76.8806 30.6932 77.0662 30.6163 77.2642 30.6506Z" fill="#6A9B50"/>
<path d="M70.1147 31.5443H70.4666C70.4288 31.6818 70.3126 31.6866 70.2308 31.7271C68.3432 32.6515 66.4543 33.5733 64.5639 34.4925C64.1955 34.6713 63.814 34.8225 63.438 34.9861C63.2469 34.9325 63.207 34.7957 63.2379 34.6204C64.102 34.2898 64.8513 33.7206 65.7311 33.4223C65.8512 33.3824 65.9664 33.3294 66.0748 33.2642C67.0118 32.6881 68.0779 32.3705 69.0155 31.7979C69.0932 31.7505 69.1887 31.7292 69.2637 31.6845C69.3572 31.6275 69.2052 31.657 69.2231 31.6158C69.507 31.4694 69.815 31.5787 70.1147 31.5443Z" fill="#527D41"/>
<path d="M69.2202 31.613H69.4223C68.8565 31.9691 68.3025 32.3307 67.6832 32.5637C67.5426 32.6068 67.406 32.6617 67.2748 32.728C66.2437 33.335 65.1006 33.7137 64.0723 34.3255C63.8201 34.4821 63.54 34.5883 63.2474 34.6383C63.2254 34.6329 63.205 34.6226 63.1877 34.6081C63.1704 34.5936 63.1566 34.5753 63.1475 34.5547C63.1383 34.534 63.134 34.5116 63.1349 34.489C63.1358 34.4664 63.1418 34.4444 63.1525 34.4245C63.4069 34.1977 63.7389 34.1241 64.0331 33.9756C65.5137 33.2312 67.0102 32.5204 68.5053 31.8055C68.6503 31.7368 68.8064 31.6983 68.9459 31.6178L69.2202 31.613Z" fill="#4C773E"/>
<path d="M68.9478 31.6165C68.7286 31.8688 68.4082 31.9492 68.123 32.0881C66.8953 32.6923 65.6607 33.2835 64.4255 33.8719C64.0041 34.0726 63.5731 34.2513 63.1469 34.4404C63.0225 34.4136 62.9537 34.3579 63.0355 34.2245C63.4418 34.0437 63.8535 33.8746 64.2536 33.6808C65.4909 33.0821 66.7207 32.4737 67.9532 31.8688C68.0446 31.8241 68.1477 31.7911 68.1896 31.6825C68.4344 31.5636 68.6942 31.6317 68.9478 31.6165Z" fill="#48713C"/>
<path d="M75.1333 30.9945C75.2329 31.0021 75.4013 30.9945 75.2164 31.1382C75.0597 31.253 74.8878 31.3455 74.7057 31.4131C73.8904 31.7376 73.157 32.238 72.3184 32.5095L72.3287 31.9562C72.6036 31.6688 73.0113 31.6063 73.3295 31.3918C73.4079 31.3389 73.5708 31.3726 73.5515 31.2028C74.0708 31.0826 74.6005 31.0129 75.1333 30.9945Z" fill="#65954D"/>
<path d="M73.553 31.2006C73.5976 31.2054 73.6664 31.1944 73.6829 31.2185C73.7516 31.3154 73.643 31.3257 73.5942 31.3491C73.1742 31.5553 72.7521 31.7533 72.3301 31.9547C72.3754 31.6323 72.3425 31.3016 72.4483 30.9868C72.4146 31.2817 72.6078 31.312 72.8106 31.2618C73.0573 31.1965 73.3034 31.2006 73.553 31.2006Z" fill="#61904A"/>
<path d="M46.9551 42.0615L43.7773 48.257L43.7085 48.2412V45.9701C43.6226 45.8793 43.6151 45.7639 43.6151 45.6504C43.6151 44.4681 43.5917 43.2851 43.6267 42.1028C43.632 42.0608 43.6401 42.0193 43.6508 41.9784C43.7381 41.6766 43.6735 41.3679 43.6893 41.0634C43.6893 40.5073 43.6542 39.9512 43.7099 39.3958C43.8178 38.8727 43.7353 38.3434 43.7587 37.8148C43.7436 37.5855 43.7512 37.3552 43.7814 37.1274C43.8611 36.8682 43.8268 36.6029 43.8226 36.3389C43.8226 36.108 43.8171 35.877 43.8275 35.646C43.7931 34.7311 43.8962 33.8217 43.9361 32.9095C43.9704 32.1224 43.9574 31.3333 44.0254 30.5476C44.0564 30.1888 44.0144 29.8162 44.2069 29.4849C44.3031 29.377 44.2688 29.2443 44.2653 29.1233C44.22 27.664 44.4406 26.2177 44.4929 24.7625C44.508 24.3432 44.521 23.9211 44.5492 23.5011C44.8125 24.0551 45.0854 24.6051 45.3384 25.1639C45.7797 26.1421 46.2072 27.1264 46.6444 28.1074C46.9505 28.7948 47.2578 29.4821 47.5662 30.1695C47.6291 30.2138 47.6784 30.2747 47.7085 30.3455C47.7546 30.4404 47.7834 30.5421 47.8274 30.6384C47.8824 30.7614 47.9422 30.8831 48.0075 31.002C48.0228 31.0278 48.0365 31.0544 48.0488 31.0817C48.112 31.2302 48.1567 31.3869 48.2309 31.532C48.257 31.6007 48.2763 31.6694 48.3059 31.7382C48.3636 31.8757 48.4317 32.0021 48.499 32.1321C48.513 32.1592 48.5252 32.1872 48.5354 32.2159C48.6496 32.5555 48.8138 32.8738 48.941 33.2072C48.9616 33.2484 48.9809 33.2903 49.0015 33.3323C49.0702 33.4842 49.1184 33.6478 49.194 33.799C49.2215 33.8677 49.2421 33.9413 49.2723 34.01C49.3239 34.1331 49.3899 34.2499 49.4304 34.3771C49.4469 34.4184 49.4621 34.4596 49.4799 34.5002C49.5168 34.5807 49.5496 34.6631 49.5782 34.7469C49.6095 34.8313 49.6477 34.9129 49.6923 34.991C49.7728 35.1772 49.8463 35.3656 49.9206 35.5539C49.9604 35.6914 50.0388 35.8103 50.0869 35.9437C50.0986 35.9911 50.0986 36.0406 50.0869 36.088C50.0285 36.2599 49.9192 36.4036 49.8353 36.5617C49.1204 37.9763 48.4117 39.3937 47.7092 40.8139C47.5367 41.1617 47.3208 41.4848 47.1593 41.8381C47.1145 41.9309 47.0435 42.0085 46.9551 42.0615Z" fill="#D97643"/>
<path d="M50.0423 36.0811L50.0389 35.9436C50.0148 35.8117 50.0712 35.6989 50.1276 35.5862C50.8324 34.1784 51.5457 32.775 52.2674 31.3759C52.3126 31.2833 52.3763 31.201 52.4544 31.1339C52.4764 31.1339 52.4984 31.1339 52.5232 31.1339C53.2629 31.1714 53.9984 31.2677 54.7228 31.4219C55.2377 31.534 55.7539 31.5793 56.275 31.6474C56.3889 31.6539 56.5012 31.6771 56.6084 31.7161C56.6653 31.7527 56.7295 31.7765 56.7966 31.786C56.8636 31.7955 56.9319 31.7904 56.9967 31.7711C57.1102 31.7539 57.192 31.8124 57.2717 31.8846L57.4779 31.89C57.524 32.4695 57.8058 32.9734 58.0127 33.4979C58.4898 34.7056 58.9881 35.9038 59.4466 37.1198C59.503 37.2696 59.6219 37.436 59.4253 37.581C58.9441 37.6766 58.463 37.6291 57.9818 37.5645C57.7866 37.5356 57.5872 37.5645 57.392 37.5308C57.2826 37.5036 57.1706 37.4879 57.0579 37.4841C56.9088 37.4752 56.7589 37.4875 56.6104 37.4662C56.5013 37.4414 56.3906 37.4244 56.2791 37.4154C56.1244 37.4078 55.9691 37.4188 55.8158 37.3975C55.072 37.2786 54.3125 37.3088 53.5721 37.1576C53.4594 37.1301 53.3412 37.1404 53.2284 37.1143C52.3176 37.0242 51.4192 36.8531 50.518 36.7018C50.4288 36.6815 50.3436 36.6467 50.2657 36.5987C50.1241 36.4475 50.03 36.2873 50.0423 36.0811Z" fill="#E6A072"/>
<path d="M57.2613 31.8838L56.9822 31.8226C56.9289 31.8467 56.871 31.8592 56.8124 31.8592C56.7539 31.8592 56.696 31.8467 56.6427 31.8226C56.4028 31.692 56.1209 31.7044 55.8776 31.7051C55.1902 31.7051 54.5523 31.4301 53.8724 31.3786C53.4194 31.3463 52.9451 31.3469 52.5176 31.1366C52.7052 30.5461 53.073 30.0436 53.3328 29.4868C53.7219 28.6551 54.2017 27.8666 54.6224 27.0493C54.7468 26.8081 54.9379 26.5998 54.9922 26.3228C55.3902 26.529 55.3792 26.9723 55.5229 27.3112C55.8453 28.0722 56.0927 28.8648 56.3842 29.6394C56.6688 30.3894 56.9692 31.1352 57.2613 31.8838Z" fill="#DF8856"/>
<path d="M52.4522 31.1318C52.2074 31.7951 51.828 32.3932 51.5221 33.0263C51.0478 34.0086 50.5336 34.9709 50.0366 35.9415L49.8366 35.5999C49.8717 35.3586 49.7156 35.1826 49.6304 34.9812L49.4929 34.775C49.5747 34.6554 49.4675 34.5874 49.42 34.5001L49.3513 34.4313C49.4159 34.2567 49.2936 34.1454 49.2138 34.0189C49.1368 33.9687 49.1451 33.8896 49.1451 33.8127C49.0612 33.6573 49.0619 33.4648 48.9341 33.328L48.8701 33.2593C48.8213 32.8592 48.5849 32.53 48.4577 32.1595C48.389 32.022 48.3656 31.8605 48.2515 31.747C48.1752 31.6969 48.1827 31.6178 48.1827 31.5408C48.1002 31.3855 48.0961 31.1971 47.9765 31.0596C47.9078 30.9222 47.8947 30.7558 47.7703 30.6472L47.6328 30.3722C47.6823 30.3124 47.6191 30.2155 47.7016 30.166C48.2941 30.3131 48.8832 30.4767 49.4799 30.6046C50.4656 30.819 51.4472 31.0438 52.4522 31.1318Z" fill="#DE8451"/>
<path d="M47.7061 30.1695C47.7061 30.2451 47.7205 30.3255 47.6373 30.3757C47.6133 30.307 47.5892 30.2382 47.5645 30.1695C47.6112 30.0911 47.6579 30.1619 47.7061 30.1695Z" fill="#E19262"/>
<path d="M63.0354 34.2251C63.0377 34.2669 63.0488 34.3078 63.068 34.345C63.0871 34.3822 63.114 34.4149 63.1468 34.441L63.2458 34.6376L63.4355 34.9854C63.4542 35.0897 63.5069 35.1849 63.5853 35.2562C63.6733 35.3827 63.7867 35.49 63.8562 35.6302C63.9201 35.7525 63.9799 35.877 64.0459 35.9986C64.1139 36.1368 64.191 36.2702 64.2768 36.398C64.3735 36.6037 64.4864 36.8014 64.6144 36.9892C64.6885 37.1173 64.7535 37.2505 64.8089 37.3879C64.8508 37.4972 64.8873 37.612 64.7271 37.6628C64.5694 37.6985 64.4072 37.7108 64.2459 37.6993C62.8615 37.6993 61.4764 37.7261 60.094 37.6305C60.0013 37.6302 59.9089 37.6184 59.8191 37.5955C59.5696 37.4635 59.7084 37.2772 59.7723 37.1239C60.2013 36.0928 60.6226 35.0548 61.064 34.0272C61.2798 33.524 61.4805 33.0146 61.6943 32.5101C61.7368 32.3902 61.823 32.2908 61.9356 32.2317H61.9858L63.0354 34.2251Z" fill="#DF8856"/>
<path d="M61.9352 32.2318C61.729 32.7088 61.5138 33.1831 61.3124 33.6629C60.8271 34.8178 60.3459 35.9744 59.8689 37.1329C59.8173 37.258 59.7836 37.3914 59.741 37.5213C59.7195 37.5491 59.6896 37.5691 59.6558 37.5784C59.6216 37.5896 59.5848 37.5904 59.5501 37.5809C59.5154 37.5714 59.4842 37.5518 59.4605 37.5247C59.2729 36.8064 58.9519 36.1362 58.6879 35.4461C58.2693 34.3462 57.8156 33.2663 57.3667 32.1816C57.3055 32.0324 57.3901 31.9754 57.4643 31.8922L61.9352 32.2318Z" fill="#E19161"/>
<path d="M44.2074 29.4883C44.0843 31.0563 44.063 32.629 43.9757 34.199C43.9489 34.6892 43.9352 35.1779 43.9283 35.668C43.9147 35.6802 43.8978 35.6881 43.8798 35.6909C43.8617 35.6937 43.8433 35.6913 43.8266 35.6838C43.2162 35.4508 42.5631 35.4219 41.9321 35.2851C41.8783 35.2763 41.8253 35.2637 41.7733 35.2473C41.2062 35.1339 40.6412 35.0088 40.0651 34.9435C40.0293 34.9313 39.9975 34.9094 39.9732 34.8803C39.949 34.8512 39.9332 34.816 39.9277 34.7785C39.6527 33.7564 39.3963 32.7314 39.1028 31.7148C38.9804 31.2886 38.9124 30.8473 38.7474 30.4335C38.6986 30.3097 38.7247 30.1867 38.735 30.0637C38.7089 29.9514 38.7274 29.8333 38.7866 29.7344C39.1117 29.0552 39.3612 28.3438 39.6658 27.6564C39.729 27.5134 39.7647 27.3471 39.9407 27.2838C41.121 27.6502 42.3026 28.0104 43.4808 28.3837C44.1923 28.6105 44.1888 28.6208 44.2012 29.3845C44.2012 29.4202 44.2053 29.4539 44.2074 29.4883Z" fill="#EDBC96"/>
<path d="M39.9362 27.2824L38.7629 30.032C38.7415 30.0657 38.7196 30.0677 38.6941 30.032C38.5498 29.5357 38.3951 29.0428 38.2769 28.5383C38.1586 28.0337 37.9957 27.5374 37.8486 27.0384C37.8156 26.9284 37.7538 26.804 37.8431 26.718C37.9325 26.6321 38.0322 26.7387 38.1263 26.7607C38.7312 26.8981 39.3128 27.136 39.9335 27.2137C39.9362 27.237 39.9362 27.2604 39.9362 27.2824Z" fill="#E49B6D"/>
<path d="M35.3327 17.7963C35.5334 18.5415 35.732 19.2873 35.9369 20.0318C36.1431 20.7879 36.359 21.5399 36.5693 22.294C36.7068 22.7862 36.8621 23.2749 36.9756 23.7733C37.1398 24.493 37.4141 25.1831 37.5378 25.9138C37.5691 26.0704 37.6151 26.2237 37.6753 26.3716C37.7509 26.573 37.6822 26.6287 37.4904 26.571C37.2388 26.4963 36.9884 26.4188 36.7391 26.3386C35.6454 25.9894 34.5394 25.6732 33.4485 25.3247C31.5925 24.7322 29.7366 24.1458 27.871 23.589C27.8057 23.5698 27.739 23.5505 27.6757 23.5251C26.811 23.1759 26.9244 23.3993 27.2564 22.4885C27.6146 21.5062 28.0366 20.5473 28.425 19.5767C28.8966 18.4047 29.3448 17.223 29.8624 16.071C29.9435 15.8902 29.8974 15.6523 30.1064 15.5293C30.6652 15.6668 31.1533 15.972 31.6812 16.1823C32.6016 16.5501 33.4829 17.0106 34.4171 17.3509C34.7353 17.4643 35.0288 17.6451 35.3327 17.7963Z" fill="#DE8451"/>
<path d="M21.035 11.541C21.3677 13.0058 21.8159 14.4398 22.1665 15.9005C22.4902 17.2491 22.9144 18.5731 23.2574 19.9169C23.4567 20.6992 23.7159 21.467 23.852 22.2658C23.6286 22.3716 23.423 22.2575 23.2237 22.197C21.9025 21.7846 20.5841 21.3584 19.2567 20.9597C18.7639 20.8119 18.2779 20.6428 17.7754 20.5294C17.6816 20.5197 17.5943 20.4768 17.5293 20.4084C17.6138 18.2246 17.5561 16.0393 17.6138 13.8568C17.6365 13.0127 17.6173 12.1658 17.6743 11.3238C17.7011 10.9368 17.7314 10.5511 17.7328 10.1635C18.4428 10.3566 19.0966 10.6866 19.7661 10.9821C20.1902 11.1712 20.6226 11.3348 21.035 11.541Z" fill="#E6A072"/>
<path d="M17.7363 9.54761C17.7363 8.92986 17.7363 8.31235 17.7363 7.69507C17.8841 8.15562 17.7748 8.62855 17.7989 9.0953C17.8051 9.24309 17.8635 9.41013 17.7363 9.54761Z" fill="#E2946E"/>
<path d="M17.8027 6.1793V4.52954C17.9157 5.07366 17.9157 5.63518 17.8027 6.1793Z" fill="#E18E62"/>
<path d="M68.681 37.3143C69.952 38.4141 70.7474 39.7504 70.7343 41.484C70.7343 41.7693 70.7391 42.0539 70.7419 42.3385C70.6673 42.4084 70.5755 42.4573 70.4758 42.4801C69.6042 42.5138 68.7347 42.6031 67.8637 42.5852C67.6871 42.6004 67.5998 42.4835 67.52 42.3529C67.3138 42.0092 67.1076 41.671 66.9014 41.3307C66.4931 40.6035 66.0559 39.8927 65.6476 39.1648C65.5878 39.0582 65.4977 38.9551 65.5603 38.8162C65.7713 38.597 66.0504 38.4863 66.3164 38.3701C67.0162 38.0684 67.6871 37.7109 68.3662 37.3672C68.4652 37.3184 68.5601 37.2366 68.681 37.3143Z" fill="#75A856"/>
<path d="M68.6788 37.3144C68.2444 37.5316 67.8113 37.7516 67.3728 37.9647C66.774 38.2568 66.1719 38.5428 65.5711 38.8315C65.5367 38.839 65.4941 38.8404 65.4769 38.8122C65.2384 38.4211 64.8885 38.0856 64.8672 37.5873C65.037 37.4017 65.2858 37.3714 65.4955 37.2642C66.0399 36.9851 66.5873 36.7115 67.1377 36.4434C67.2628 36.3823 67.3851 36.2695 67.5453 36.3582C67.9522 36.6435 68.3495 36.9384 68.6788 37.3144Z" fill="#71A454"/>
<path d="M63.9906 36.0124C63.8909 35.9161 63.8531 35.7855 63.7988 35.6687C63.8758 35.5422 64.0099 35.4968 64.1315 35.437C66.1422 34.4444 68.1631 33.4745 70.1875 32.5115C70.266 32.4635 70.3544 32.4341 70.446 32.4255C70.5621 32.4255 70.5834 32.4874 70.5298 32.5823C70.5202 32.7197 70.5594 32.8703 70.4611 32.9947C69.1303 33.6312 67.8139 34.3008 66.4694 34.9091C66.3319 34.9015 66.1944 34.8981 66.1181 35.05C65.7806 35.3071 65.3716 35.4267 65.0066 35.6316C64.7887 35.7539 64.5625 35.8618 64.3364 35.9684C64.2298 36.0199 64.1205 36.1066 63.9906 36.0124Z" fill="#61904A"/>
<path d="M70.5274 32.5816C70.5171 32.4442 70.4415 32.482 70.3631 32.5184C70.0634 32.6559 69.7609 32.7899 69.464 32.9343C67.6401 33.8224 65.8157 34.711 63.9909 35.6C63.9285 35.6268 63.8644 35.6498 63.7991 35.6687C63.7091 35.5409 63.6101 35.4178 63.584 35.2563C63.6953 35.3367 63.7957 35.2893 63.9029 35.2377C64.2425 35.0741 64.5903 34.9222 64.9265 34.7566C66.8402 33.8254 68.753 32.8921 70.6649 31.9568C70.5666 32.1541 70.6518 32.3898 70.5274 32.5816Z" fill="#5D8B48"/>
<path d="M70.3191 34.9814C70.3638 35.6873 70.4092 36.3933 70.4566 37.1618L68.4563 35.9595C68.4109 35.8145 68.5147 35.743 68.6089 35.6846C69.1018 35.3911 69.64 35.1958 70.1583 34.9497C70.1851 34.9377 70.2149 34.9342 70.2438 34.9399C70.2726 34.9456 70.2989 34.9601 70.3191 34.9814Z" fill="#71A454"/>
<path d="M66.4707 34.9125C66.7828 34.6135 67.1938 34.489 67.5705 34.3041C68.458 33.8635 69.3578 33.4483 70.2514 33.0263C70.3146 32.9967 70.3799 32.9108 70.4624 32.9981C70.4397 33.2043 70.4995 33.4174 70.3896 33.6112C69.2897 34.1612 68.1576 34.6313 67.09 35.2411L66.4707 34.9125Z" fill="#65964D"/>
<path d="M67.5494 36.3561C66.9087 36.6682 66.2708 36.9844 65.6247 37.2896C65.3807 37.4058 65.1249 37.4958 64.874 37.5983L64.8445 37.6134L64.8225 37.5935C64.7267 37.3891 64.6309 37.1851 64.5352 36.9817C64.547 36.9433 64.5674 36.9082 64.5949 36.879C64.6225 36.8498 64.6563 36.8273 64.6939 36.8133C65.3972 36.4641 66.0845 36.0805 66.8194 35.798C67.0849 35.9531 67.3301 36.1406 67.5494 36.3561Z" fill="#6D9F51"/>
<path d="M67.0898 35.2384C67.0947 35.1133 67.1881 35.0679 67.283 35.0218C68.2591 34.5457 69.2352 34.0691 70.2113 33.5921C70.2801 33.5597 70.3371 33.5316 70.3894 33.6086C70.3674 33.977 70.4278 34.3503 70.3206 34.7132C70.1495 34.3351 70.1446 34.3262 69.7569 34.5324C69.0812 34.8926 68.3602 35.1614 67.6948 35.5484L67.0898 35.2384Z" fill="#6A9B4F"/>
<path d="M67.7012 35.5484C67.8771 35.2425 68.2181 35.1882 68.4951 35.0425C68.9296 34.8143 69.3819 34.6204 69.8225 34.4053C70.3174 34.1633 70.3153 34.1599 70.3243 34.7132L70.3215 34.9813C69.7716 35.2349 69.2176 35.4872 68.6663 35.7429C68.5733 35.7874 68.4999 35.8644 68.4601 35.9595C68.193 35.8502 67.9386 35.7124 67.7012 35.5484Z" fill="#6D9F51"/>
<path d="M66.8189 35.7972C66.7681 35.9306 66.6409 35.9704 66.5282 36.0158C65.8408 36.2907 65.2022 36.6647 64.5347 36.9781C64.3711 36.8249 64.3079 36.6138 64.2109 36.4214C64.8296 36.0268 65.5246 35.7869 66.1735 35.4542C66.2074 35.4324 66.2472 35.4214 66.2876 35.4226C66.328 35.4238 66.367 35.4372 66.3996 35.4611C66.5502 35.5614 66.711 35.6467 66.8189 35.7972Z" fill="#6A9B4F"/>
<path d="M66.4028 35.4625C65.7997 35.7411 65.1966 36.0195 64.5935 36.2977C64.4719 36.354 64.3591 36.4352 64.2141 36.4228C64.1234 36.2956 64.0271 36.1719 63.9941 36.0103C64.5303 35.8206 65.0129 35.5182 65.525 35.2776C65.7136 35.1778 65.9138 35.1014 66.1209 35.05C66.0962 35.2673 66.2887 35.3381 66.4028 35.4625Z" fill="#65954D"/>
<path d="M69.2148 44.9487C69.0699 44.7861 68.9537 44.6002 68.8711 44.3988C69.4059 44.1609 69.984 44.0647 70.536 43.8853C70.5678 43.8716 70.6028 43.8674 70.637 43.8731C70.6711 43.8788 70.7029 43.8943 70.7284 43.9176C70.7085 44.2613 70.7869 44.6146 70.6652 44.9542C70.5662 44.7583 70.4281 44.7177 70.2218 44.8057C70.0105 44.8893 69.7951 44.962 69.5764 45.0236C69.4437 45.0662 69.3103 45.0992 69.2148 44.9487Z" fill="#5E8C49"/>
<path d="M69.2168 44.9485C69.4952 45.0605 69.7117 44.8495 69.9599 44.8021C70.0827 44.7773 70.2018 44.7364 70.3139 44.6804C70.6232 44.5306 70.6947 44.6749 70.6686 44.9554C70.65 45.209 70.7146 45.4695 70.5998 45.7115C70.4912 45.5644 70.3593 45.5843 70.2039 45.6325C70.0362 45.6847 69.874 45.8105 69.6822 45.7122C69.4952 45.4784 69.3388 45.2218 69.2168 44.9485Z" fill="#65954D"/>
<path d="M70.7335 43.9175C70.2234 44.0695 69.7141 44.2227 69.2033 44.3726C69.0975 44.4035 68.9916 44.4647 68.8761 44.3987C68.7794 44.3035 68.7084 44.1852 68.6699 44.055C68.7256 43.956 68.8246 43.9265 68.9229 43.8983C69.3924 43.7608 69.8502 43.5938 70.3149 43.446C70.4523 43.402 70.5898 43.3222 70.7342 43.435L70.7335 43.9175Z" fill="#588445"/>
<path d="M70.5282 42.4052C70.5852 42.3296 70.6656 42.3475 70.7461 42.3413C70.7591 42.685 70.8835 43.0321 70.7419 43.3765C70.7145 43.3527 70.6924 43.3234 70.677 43.2905C70.6616 43.2575 70.6533 43.2218 70.6526 43.1854C70.6677 42.9345 70.5735 42.861 70.324 42.9469C69.783 43.1339 69.2283 43.2789 68.6894 43.4741C68.576 43.5147 68.4612 43.5992 68.3333 43.5071C68.2562 43.4349 68.2009 43.3425 68.1738 43.2404C68.3409 43.0404 68.5925 43.0232 68.8159 42.9545C69.385 42.7737 69.9528 42.5819 70.5282 42.4052Z" fill="#48713C"/>
<path d="M69.6816 45.7136C69.8927 45.6449 70.1092 45.5892 70.3147 45.5074C70.5416 45.4146 70.622 45.4847 70.5993 45.7136C70.6002 46.1282 70.5497 46.5413 70.4488 46.9434C70.1626 46.5532 69.9062 46.1422 69.6816 45.7136Z" fill="#6B9C50"/>
<path d="M70.7291 43.1614L70.7374 43.3724C70.7388 43.3935 70.7367 43.4146 70.7312 43.435L68.669 44.0536C68.6024 44.0026 68.5564 43.9295 68.5391 43.8474C68.7068 43.6584 68.9453 43.6062 69.1694 43.5305C69.5674 43.3931 69.9613 43.248 70.373 43.1587C70.4892 43.1325 70.6116 43.07 70.7291 43.1614Z" fill="#548043"/>
<path d="M17.5289 20.4086C18.0101 20.434 18.4624 20.5928 18.9147 20.7303C20.1719 21.1132 21.4216 21.5215 22.6761 21.9153C23.0645 22.0377 23.457 22.1484 23.8481 22.2639C24.1142 22.5615 24.1527 22.9513 24.2434 23.3101C24.5507 24.5412 24.9521 25.7469 25.2195 26.9877C25.2436 27.099 25.2882 27.2076 25.2594 27.3245C25.28 27.8256 25.0415 28.2573 24.871 28.6993C24.4895 29.6939 24.0915 30.681 23.7059 31.6736C23.6756 31.7225 23.6371 31.7616 23.5759 31.7472C23.4467 31.4819 23.169 31.5259 22.9573 31.4819C21.7103 31.2282 20.4613 30.9787 19.2055 30.7704C18.5786 30.6659 17.9681 30.4549 17.3275 30.4432C17.2917 30.4148 17.2646 30.3769 17.2491 30.3339C17.1804 30.0871 17.1969 29.8328 17.2154 29.5846C17.3495 27.8393 17.2196 26.0913 17.2883 24.3467C17.3364 23.1389 17.333 21.9284 17.4203 20.722C17.4195 20.6082 17.4579 20.4975 17.5289 20.4086Z" fill="#EDBC96"/>
<path d="M23.576 31.7505L23.6447 31.6818C23.7609 31.58 23.8963 31.5952 24.0338 31.613C24.7556 31.7106 25.4526 31.9368 26.1744 32.033C26.3325 32.0536 26.4308 32.1705 26.5401 32.2695C26.6576 32.3417 26.6975 32.4627 26.7284 32.585C27.0391 33.8038 27.378 35.015 27.7052 36.2282C28.0908 37.6635 28.4916 39.0947 28.882 40.5293C28.9322 40.7149 29.014 40.8984 28.9391 41.0971L28.9267 41.1032C27.8454 41.0544 26.7628 41.0276 25.6829 40.9513C24.6387 40.8778 23.5994 40.7561 22.5497 40.7451C21.8225 40.7369 21.0959 40.6544 20.3686 40.62C20.117 40.6076 20.1122 40.4956 20.1858 40.3093C20.383 39.8116 20.5755 39.3112 20.7721 38.8128C21.2052 37.7162 21.6391 36.6198 22.074 35.5236C22.4074 34.6871 22.7463 33.8533 23.0804 33.0174C23.2488 32.5967 23.4117 32.1733 23.576 31.7505Z" fill="#E9AC80"/>
<path d="M17.3177 30.3757C17.3211 30.3998 17.3253 30.4238 17.3287 30.4479C17.3287 31.9773 17.2545 33.5054 17.238 35.0349C17.2215 36.5987 17.1885 38.1619 17.1775 39.7257C17.0812 39.9594 17.2373 40.2247 17.0847 40.4509C16.8681 40.5726 16.6282 40.5884 16.389 40.5884C15.6377 40.5939 14.8864 40.5884 14.135 40.5884C13.9756 40.598 13.8169 40.5604 13.6786 40.4804C13.3858 40.1292 13.2854 39.6844 13.1156 39.2768C12.4942 37.7907 11.8799 36.3006 11.2727 34.8067C10.8465 33.7577 10.4167 32.7103 9.98316 31.6646C9.93092 31.5395 9.86974 31.404 10.01 31.2886C10.3165 31.136 10.6554 31.1442 10.9813 31.1119C11.8893 31.0219 12.7877 30.8624 13.6958 30.7682C14.7846 30.6534 15.8693 30.4981 16.9541 30.3448C17.0744 30.3262 17.2029 30.2905 17.3177 30.3757Z" fill="#E19161"/>
<path d="M13.6777 40.4805C14.8229 40.4454 15.9716 40.5492 17.1147 40.4062L17.1567 40.4557C17.2769 40.8111 17.1752 41.1796 17.2254 41.5391C17.2728 43.0053 17.1161 44.4681 17.1567 45.9343C17.1567 46.0718 17.1608 46.2134 17.0398 46.3144C16.9202 46.7592 17.0096 47.2129 16.9814 47.6617C16.9711 47.8308 16.9766 48.0013 16.9745 48.1711C16.8583 48.246 16.8563 48.1532 16.8253 48.0776C16.4486 47.1764 16.063 46.2787 15.6904 45.3755C15.1309 44.0185 14.5796 42.6575 14.0242 41.2985C13.908 41.0304 13.8351 40.7369 13.6777 40.4805Z" fill="#E6A072"/>
<path d="M17.1168 40.4116C17.1491 40.1848 17.0556 39.9463 17.1814 39.7242C17.186 39.9534 17.191 40.1846 17.1965 40.4178C17.1927 40.4235 17.1876 40.4282 17.1816 40.4314C17.1756 40.4346 17.1689 40.4363 17.1621 40.4363C17.1553 40.4363 17.1486 40.4346 17.1426 40.4314C17.1366 40.4282 17.1315 40.4235 17.1278 40.4178L17.1168 40.4116Z" fill="#E6A072"/>
<path d="M9.96662 31.3381C10.2258 31.9939 10.4801 32.6524 10.7461 33.3055C11.1331 34.2541 11.5304 35.1986 11.9202 36.1458C12.5008 37.5577 13.0801 38.9701 13.6579 40.3829C13.6688 40.4145 13.6757 40.4473 13.6786 40.4805C12.998 40.6063 12.3106 40.5335 11.6267 40.5438C9.38714 40.5781 7.15104 40.717 4.91081 40.6984C4.51693 40.6984 4.11549 40.75 3.7168 40.7514C3.83572 40.0406 4.14642 39.3883 4.34852 38.7015C4.59254 37.8767 4.89843 37.0635 5.18027 36.2448C5.59271 35.029 6.00514 33.8123 6.41758 32.5947C6.50488 32.3369 6.58531 32.0764 6.66917 31.8173L6.73791 31.7485C6.82152 31.6692 6.92965 31.6207 7.04449 31.611C7.96285 31.5334 8.86541 31.3251 9.78789 31.277C9.83476 31.2745 9.88162 31.282 9.92537 31.299L9.96662 31.3381Z" fill="#E6A376"/>
<path d="M40.0077 34.775C40.0057 34.8019 40.011 34.829 40.0231 34.8532C40.0352 34.8774 40.0536 34.8979 40.0764 34.9124C40.1981 35.0135 40.2036 35.1716 40.2662 35.3008C40.2787 35.3311 40.2895 35.3621 40.2985 35.3936C40.3438 35.549 40.383 35.7071 40.4215 35.8645C40.435 35.9775 40.4635 36.0882 40.5061 36.1937C40.5748 36.3512 40.5844 36.5223 40.6312 36.6845C40.6402 36.718 40.647 36.752 40.6518 36.7863C40.8353 37.3149 40.9268 37.8696 41.111 38.3982C41.1273 38.5019 41.1489 38.6047 41.1756 38.7062C41.3007 39.1289 41.366 39.5675 41.5138 39.9834C41.6004 40.2487 41.6513 40.5237 41.7344 40.7904C41.7881 40.9512 41.8107 41.1189 41.8506 41.2832C41.8774 41.4626 41.9578 41.6311 41.9613 41.8146C41.9551 41.8304 41.9482 41.8455 41.9414 41.8607C40.7913 41.8263 39.642 41.761 38.4934 41.6991C37.2897 41.6304 36.0875 41.5362 34.8804 41.5011C34.5759 41.4922 34.2714 41.4255 33.962 41.4413L33.9524 41.4372C33.9277 41.1959 34.0521 40.9952 34.138 40.7876C34.7917 39.2128 35.4544 37.6414 36.1108 36.0679C36.3267 35.5503 36.5467 35.0368 36.7584 34.5144C36.7968 34.3945 36.8764 34.292 36.9832 34.225C37.2017 34.1494 37.4128 34.2367 37.6204 34.2704C38.3703 34.39 39.1216 34.5076 39.8592 34.6932C39.9142 34.709 39.9649 34.737 40.0077 34.775Z" fill="#E9AC80"/>
<path d="M59.4594 37.5247L59.6553 37.5316C59.7172 37.634 59.6766 37.7378 59.6553 37.8368C58.95 39.4707 58.2771 41.1184 57.5931 42.7613C57.5498 42.8651 57.5285 42.9847 57.3999 43.0259L57.3312 43.0947C57.0452 43.2679 56.729 43.2088 56.4266 43.1888C55.4924 43.127 54.5589 43.0637 53.622 43.0637C53.3567 43.0637 53.0955 43.0445 52.8659 42.8891C52.8432 42.8644 52.8212 42.8396 52.7971 42.8156C52.6067 42.6094 52.5256 42.3399 52.4294 42.0883C51.7805 40.3904 51.0546 38.7249 50.3816 37.0373C50.3438 36.9418 50.2861 36.8517 50.2833 36.7465C50.2806 36.6414 50.3294 36.5706 50.4545 36.6256C50.992 36.6256 51.5021 36.8009 52.0279 36.8723C52.4211 36.926 52.8219 36.9239 53.2061 37.0401C53.2575 37.0684 53.3147 37.0843 53.3733 37.0865C53.4319 37.0888 53.4902 37.0774 53.5436 37.0531C54.1623 37.1906 54.7981 37.1803 55.425 37.2511C55.5625 37.2662 55.7 37.247 55.821 37.3198C55.9749 37.37 56.1407 37.37 56.2946 37.3198C56.3922 37.3088 56.4906 37.3327 56.5723 37.3872C56.7258 37.4402 56.8922 37.4429 57.0473 37.3948C57.1456 37.3948 57.2535 37.3604 57.3285 37.4553C57.5292 37.5091 57.7404 37.5114 57.9423 37.4621C58.4462 37.5377 58.9528 37.5316 59.4594 37.5247Z" fill="#F2CCAB"/>
<path d="M59.5977 37.7996L59.6554 37.5288L59.7351 37.5247C61.4296 37.6106 63.1254 37.5989 64.8219 37.5934C64.8398 37.5969 64.858 37.5994 64.8762 37.601C65.0757 38.0296 65.3105 38.4409 65.578 38.8307C65.9726 39.6267 66.462 40.3684 66.8951 41.1431C66.9198 41.1933 66.9414 41.2449 66.9597 41.2978C66.9743 41.3155 66.9842 41.3367 66.9885 41.3592C66.9928 41.3818 66.9914 41.4051 66.9844 41.427C66.7679 41.9123 66.6586 42.4464 66.3362 42.8843H66.2675C66.1252 43.0486 65.932 43.0589 65.7354 43.0596C64.5407 43.0596 63.3481 43.1208 62.1555 43.1813C62.0295 43.1923 61.9035 43.1611 61.7973 43.0926C61.6 42.962 61.5512 42.7351 61.4749 42.5427C60.8996 41.0868 60.2802 39.6494 59.698 38.1969C59.6516 38.0681 59.618 37.935 59.5977 37.7996Z" fill="#E49A6B"/>
<path d="M52.8613 42.8862L57.3294 43.0924C56.7224 44.5786 56.1333 46.073 55.4927 47.544C55.38 47.8039 55.3793 48.1627 55.061 48.3174L52.8613 42.8862Z" fill="#F6DCC4"/>
<path d="M61.7969 43.0924C63.1717 43.0175 64.552 42.955 65.9316 42.955C66.0447 42.9431 66.1564 42.92 66.265 42.8862C65.8525 44.0301 65.3274 45.1258 64.8599 46.2462C64.6537 46.7398 64.4564 47.2361 64.2481 47.7283C64.1698 47.9145 64.0708 48.0919 63.9512 48.3339C63.217 46.5459 62.5076 44.8185 61.7969 43.0924Z" fill="#E6A172"/>
<path d="M59.5968 37.7996C59.8567 38.2395 60.021 38.7221 60.2079 39.1936C60.6843 40.3938 61.1737 41.5878 61.6934 42.7681C61.7339 42.8742 61.7684 42.9825 61.7965 43.0925C60.4488 43.0925 59.1005 43.0925 57.7519 43.0925C57.6323 43.0925 57.4975 43.1379 57.3965 43.0238C58.0871 41.3497 58.7784 39.6771 59.4704 38.0058C59.5062 37.9333 59.5485 37.8643 59.5968 37.7996Z" fill="#E9AC80"/>
<path d="M66.334 42.8863C66.4921 42.3364 66.7464 41.8291 66.9575 41.2998C67.2242 41.7187 67.4913 42.1373 67.759 42.5557C67.7841 42.5634 67.8073 42.5764 67.8269 42.5939C67.8465 42.6114 67.8622 42.6329 67.8727 42.657C67.8832 42.6811 67.8884 42.7072 67.8878 42.7335C67.8873 42.7598 67.8811 42.7857 67.8696 42.8093L66.334 42.8863Z" fill="#E9AC80"/>
<path d="M67.8665 42.808L67.7559 42.5544C67.7842 42.5266 67.8185 42.5054 67.856 42.4925C67.8936 42.4795 67.9336 42.4751 67.9731 42.4795C68.8227 42.4547 69.6723 42.429 70.5219 42.4025C70.5543 42.5283 70.4381 42.5152 70.3845 42.5331C69.6476 42.7716 68.9079 43.0039 68.1697 43.2377L67.8665 42.808Z" fill="#436B39"/>
<path d="M70.7284 43.1612C69.9723 43.318 69.2629 43.6032 68.5363 43.8486L68.3301 43.5049C68.9904 43.2891 69.6508 43.073 70.3112 42.8567C70.7325 42.7158 70.7325 42.7144 70.7284 43.1612Z" fill="#4E783F"/>
<path d="M17.3195 30.3759C16.5228 30.4907 15.7275 30.6123 14.9301 30.7196C14.2668 30.8082 13.6007 30.8749 12.9367 30.9588C12.1379 31.0591 11.3405 31.165 10.5425 31.2708C10.3514 31.2963 10.1603 31.3169 9.96918 31.3396C9.64129 31.1121 9.59249 30.7209 9.45913 30.3944C9.06548 29.4362 8.6739 28.4773 8.28437 27.5177C8.26314 27.4647 8.2515 27.4084 8.25 27.3513V27.2138C8.25481 26.7079 8.49609 26.2673 8.64663 25.8033C9.01439 24.6725 9.42957 23.5582 9.81039 22.4316C9.85782 22.2941 9.88944 22.1415 10.0365 22.0625L10.1094 21.9937C11.3948 21.7593 12.6665 21.4631 13.9362 21.1592C15.0174 20.9008 16.1221 20.7468 17.1903 20.4271C17.2962 20.3955 17.4178 20.4161 17.534 20.412C17.4934 22.4783 17.3656 24.5426 17.3965 26.611C17.4013 26.9884 17.389 27.3671 17.4027 27.7431C17.4274 28.6202 17.3058 29.496 17.3195 30.3759Z" fill="#E08D5B"/>
<path d="M10.0334 22.0582C9.48897 23.6365 8.94432 25.2148 8.39945 26.793C8.35064 26.9305 8.29771 27.068 8.24684 27.2096C7.86259 26.4768 7.59175 25.6973 7.27624 24.9343C7.02465 24.326 6.77788 23.7155 6.5201 23.1113C6.48037 23.0175 6.46093 22.9163 6.46305 22.8144C7.12295 22.6666 7.77873 22.4982 8.44344 22.3786C8.97686 22.2837 9.48347 22.0617 10.0334 22.0582Z" fill="#EDBC96"/>
<path d="M8.24665 27.3512C8.58485 27.7918 8.70652 28.3328 8.91961 28.8298C9.27775 29.6622 9.58295 30.5132 9.96514 31.3381L6.73438 31.7505C6.92753 31.1587 7.11588 30.5648 7.31454 29.9743C7.58171 29.1788 7.85415 28.3848 8.13186 27.5925C8.16141 27.5093 8.16004 27.4076 8.24665 27.3512Z" fill="#E49B6D"/>
<path d="M50.4558 36.6243C50.3128 36.6435 50.3382 36.7191 50.3795 36.8181C50.8909 38.0451 51.4065 39.2694 51.9055 40.5012C52.2162 41.2669 52.5015 42.0423 52.7991 42.8143C52.5475 42.9662 52.2884 42.8205 52.043 42.8012C51.0348 42.7201 50.031 42.6081 49.0315 42.4651C48.3358 42.3661 47.6498 42.1997 46.959 42.0636L49.7684 36.4937C49.9464 36.3699 50.099 36.4352 50.2441 36.5576C50.3183 36.5624 50.4008 36.5493 50.4558 36.6243Z" fill="#E6A376"/>
<path d="M36.9823 34.2252C36.4324 35.534 35.8843 36.8433 35.3381 38.153C34.8775 39.2496 34.4144 40.3449 33.9488 41.4387C33.315 41.37 32.6792 41.3322 32.0427 41.3013C31.0088 41.2435 29.9709 41.2366 28.9398 41.0992C28.7473 40.3753 28.5603 39.6508 28.361 38.9284C28.1403 38.1296 27.9032 37.335 27.6832 36.5355C27.3567 35.3436 27.0398 34.1482 26.716 32.9549C26.6569 32.7363 26.6438 32.5046 26.5311 32.3012C26.5098 32.2854 26.5036 32.2702 26.5105 32.2551C26.5174 32.24 26.5249 32.2324 26.5325 32.2324C27.515 32.4185 28.4973 32.605 29.4794 32.792C30.9421 33.0669 32.4056 33.3378 33.867 33.6168C34.9071 33.8127 35.9437 34.019 36.9823 34.2252Z" fill="#E19161"/>
<path d="M25.2283 27.3513C24.77 25.6557 24.3118 23.9601 23.8535 22.2645C24.7196 22.5003 25.5321 22.8976 26.4086 23.1025C26.4972 23.1231 26.5811 23.1616 26.667 23.1905C26.8884 23.2647 26.9475 23.3541 26.8368 23.6098C26.4443 24.5151 26.0979 25.4403 25.7287 26.3552C25.5913 26.6907 25.4421 27.0193 25.2977 27.3506C25.2737 27.3815 25.2517 27.3829 25.2283 27.3513Z" fill="#E49B6D"/>
<path d="M40.0082 34.775C39.3751 34.7365 38.7647 34.5599 38.144 34.4492C37.7577 34.3805 37.3501 34.4031 36.9844 34.2258C37.5403 32.8826 38.0964 31.539 38.6527 30.1949C38.6722 30.1415 38.6887 30.0872 38.7022 30.032H38.7709C38.938 30.6802 39.0988 31.3305 39.2734 31.9773C39.4989 32.8111 39.736 33.6422 39.9649 34.4753C39.9849 34.5744 39.9993 34.6744 40.0082 34.775Z" fill="#E6A376"/>
<path d="M25.2275 27.3512H25.2962C25.2564 27.6447 25.365 27.9128 25.4337 28.1871C25.7687 29.4496 26.1039 30.7123 26.4394 31.9753C26.4628 32.0626 26.5012 32.1465 26.5329 32.2317C26.5329 32.2544 26.5329 32.2778 26.5329 32.3005C26.3095 32.1128 26.0324 32.1238 25.7657 32.0729C25.2041 31.9671 24.6521 31.811 24.0864 31.7196C23.9406 31.6985 23.7937 31.6859 23.6465 31.6818C23.7537 31.1436 24.0184 30.6631 24.2074 30.1551C24.5277 29.2945 24.8742 28.4435 25.2048 27.587C25.2229 27.5098 25.2306 27.4305 25.2275 27.3512Z" fill="#E6A376"/>
<path d="M43.7193 41.9927C43.1232 41.9919 42.528 41.9481 41.9383 41.8614C41.853 41.6854 41.7795 41.5067 41.7925 41.3053C41.9465 41.0881 41.8936 40.93 41.6551 40.8241C41.5583 40.5569 41.4892 40.2805 41.4488 39.9992C41.3684 39.5545 41.3389 39.0967 41.1003 38.6932C41.0048 38.6176 41.046 38.511 41.0378 38.4182C41.0752 38.2922 41.0872 38.16 41.0729 38.0294C41.0586 37.8987 41.0184 37.7722 40.9546 37.6573C40.8625 37.4765 40.7573 37.2957 40.7903 37.0757C40.8171 36.8984 40.6487 36.8606 40.5566 36.7692V36.7004C40.7339 36.4777 40.659 36.3258 40.4191 36.2192C40.3583 36.1156 40.3341 35.9946 40.3504 35.8755C40.5422 35.6487 40.4191 35.5092 40.2129 35.3944C40.2129 35.3724 40.2129 35.3497 40.2129 35.3256C40.2328 35.0658 40.4239 35.1194 40.5855 35.1242C40.989 35.1414 41.3904 35.2005 41.796 35.1854H41.9334C42.0792 35.3332 42.2222 35.4775 42.4614 35.3847C42.5301 35.3586 42.5906 35.4088 42.6525 35.437C42.9549 35.5745 43.2643 35.6721 43.6045 35.6095C43.6481 35.5964 43.6943 35.5949 43.7386 35.6053C43.7829 35.6157 43.8236 35.6375 43.8568 35.6686H43.9255C43.9214 35.8978 43.917 36.1287 43.9125 36.3615C43.8437 36.6117 43.9372 36.8736 43.8589 37.1238L43.8444 37.8002C43.7695 37.8841 43.7846 37.9728 43.7942 38.0807C43.8396 38.5168 43.8382 38.9565 43.7901 39.3923L43.7777 41.0991C43.6794 41.174 43.7035 41.262 43.7262 41.3685C43.7739 41.5752 43.7739 41.7901 43.7262 41.9968L43.7193 41.9927Z" fill="#F2CCAB"/>
<path d="M43.7914 39.3916C43.7914 39.0733 43.7914 38.7544 43.7859 38.4361C43.7859 38.3048 43.8045 38.1769 43.7034 38.0505C43.588 37.9061 43.7034 37.8298 43.8457 37.7996C43.8354 38.3309 43.9028 38.8643 43.7914 39.3916Z" fill="#F2CCAB"/>
<path d="M50.2488 36.5624L49.7676 36.4936L50.0425 36.0812C50.1528 36.2204 50.2239 36.3865 50.2488 36.5624Z" fill="#E08D5B"/>
<path d="M43.7245 41.9969C43.6778 41.7487 43.8063 41.4793 43.5623 41.2462C43.4709 41.1589 43.6716 41.1087 43.7781 41.0991C43.7664 41.3988 43.8393 41.7033 43.7245 41.9969Z" fill="#F2CCAB"/>
<path d="M48.4629 32.163C48.6554 32.5067 48.8966 32.8366 48.8753 33.2628C48.7543 32.8895 48.5179 32.5603 48.4629 32.163Z" fill="#E29261"/>
<path d="M49.6309 34.9813C49.7835 35.1587 49.945 35.3333 49.8371 35.6L49.6309 34.9813Z" fill="#E19261"/>
<path d="M43.8592 37.1232C43.8825 36.8695 43.7904 36.6076 43.9128 36.3608C43.9032 36.6152 43.9664 36.875 43.8592 37.1232Z" fill="#F2CCAB"/>
<path d="M47.7734 30.6508C47.9254 30.7126 47.9412 30.7442 47.9797 31.0632C47.8727 30.9484 47.8011 30.8052 47.7734 30.6508Z" fill="#E29464"/>
<path d="M48.9395 33.3315C49.1305 33.4408 49.123 33.6361 49.1505 33.8162C49.013 33.6842 48.9938 33.5 48.9395 33.3315Z" fill="#E29262"/>
<path d="M49.2168 34.0189C49.3584 34.1227 49.4918 34.23 49.3543 34.4314C49.3082 34.2939 49.2615 34.1564 49.2168 34.0189Z" fill="#E29463"/>
<path d="M48.2539 31.7505C48.4429 31.8275 48.4457 31.9986 48.4601 32.1629C48.3534 32.048 48.2818 31.9049 48.2539 31.7505Z" fill="#E29464"/>
<path d="M47.9805 31.0631C48.1661 31.1745 48.1613 31.3676 48.1867 31.5443C48.0492 31.4151 48.0258 31.2336 47.9805 31.0631Z" fill="#E29463"/>
<path d="M49.4238 34.5001C49.5359 34.5689 49.6266 34.6376 49.4967 34.7751C49.4699 34.6816 49.4458 34.5909 49.4238 34.5001Z" fill="#E29564"/>
<path d="M57.9439 37.462C57.8495 37.5131 57.7436 37.5394 57.6362 37.5383C57.5288 37.5372 57.4235 37.5088 57.3301 37.4558L57.9439 37.462Z" fill="#F4D7BC"/>
<path d="M57.0492 37.3948C56.9793 37.4436 56.8958 37.4692 56.8105 37.4678C56.7252 37.4665 56.6425 37.4382 56.5742 37.3872L57.0492 37.3948Z" fill="#F5D8BF"/>
<path d="M56.2946 37.324C56.2256 37.3738 56.1426 37.4005 56.0575 37.4005C55.9723 37.4005 55.8894 37.3738 55.8203 37.324H56.2946Z" fill="#F5D8BE"/>
<path d="M56.6406 31.8193H56.9802C56.9586 31.8429 56.9324 31.8617 56.9032 31.8745C56.8739 31.8874 56.8423 31.8941 56.8104 31.8941C56.7785 31.8941 56.7469 31.8874 56.7177 31.8745C56.6884 31.8617 56.6622 31.8429 56.6406 31.8193Z" fill="#E9AC84"/>
<path d="M53.5406 37.0518C53.4245 37.1418 53.3117 37.1487 53.2031 37.0387L53.5406 37.0518Z" fill="#F5D8BE"/>
<path d="M43.8564 35.6687C43.3965 35.756 42.9497 35.758 42.5462 35.4693C42.533 35.4612 42.5182 35.4562 42.5029 35.4546C42.4875 35.4531 42.472 35.455 42.4575 35.4604C42.1303 35.6597 42.0148 35.4563 41.9316 35.1854C42.4321 35.2775 42.9352 35.3587 43.4315 35.4679C43.5814 35.503 43.7911 35.4439 43.8564 35.6687Z" fill="#F2CCAB"/>
<path d="M41.7948 35.1875C41.6126 35.3112 41.4174 35.2686 41.2132 35.2748C40.8805 35.2851 40.5258 35.0431 40.2117 35.3277C40.1232 35.2083 40.0751 35.0639 40.0742 34.9153C40.2722 34.74 40.4736 34.8892 40.6503 34.9414C41.027 35.05 41.4394 34.9902 41.7948 35.1875Z" fill="#F2CCAB"/>
<path d="M17.125 40.4201C17.1477 40.4161 17.171 40.4161 17.1937 40.4201C17.1511 40.7851 17.2508 41.1583 17.125 41.5199V40.4201Z" fill="#F2CCAB"/>
<path d="M40.5566 36.7685C40.8234 36.7431 40.9588 36.8551 40.8804 37.1246C40.8158 37.3487 40.9883 37.4752 41.0502 37.6463C41.1444 37.9055 41.3107 38.1646 41.0378 38.4176C40.811 37.8876 40.7388 37.3123 40.5566 36.7685Z" fill="#F2CCAB"/>
<path d="M41.0996 38.6932C41.4433 38.7427 41.3402 39.0912 41.4055 39.272C41.4742 39.4659 41.5849 39.7532 41.4481 39.9979C41.246 39.5869 41.1972 39.1352 41.0996 38.6932Z" fill="#F2CCAB"/>
<path d="M41.6562 40.8242C41.7869 40.8304 41.9381 40.7947 41.989 40.9741C42.0398 41.1535 41.9491 41.249 41.7917 41.3061C41.6865 41.1624 41.725 40.9782 41.6562 40.8242Z" fill="#F2CCAB"/>
<path d="M40.2129 35.3938C40.36 35.3938 40.527 35.3691 40.5511 35.5849C40.5683 35.7368 40.5346 35.8599 40.3449 35.875C40.305 35.7148 40.2596 35.554 40.2129 35.3938Z" fill="#F2CCAB"/>
<path d="M40.418 36.2187C40.5651 36.2187 40.7321 36.1946 40.7555 36.4098C40.772 36.5617 40.739 36.6848 40.5493 36.6999C40.5101 36.5397 40.4654 36.3789 40.418 36.2187Z" fill="#F2CCAB"/>
<path fill-rule="evenodd" clip-rule="evenodd" d="M7.45312 45.8013H14.0959L7.45312 52.4651V45.8013Z" fill="#5A2400"/>
</g>
<defs>
<clipPath id="clip0">
<rect width="84" height="90" fill="white"/>
</clipPath>
</defs>
</svg>
