<svg width="140" height="80" viewBox="0 0 140 80" fill="none" xmlns="http://www.w3.org/2000/svg">
<path d="M20.2895 44.5426C20.2013 46.6595 19.2309 47.7179 17.2019 47.8061L13.2322 66.5051H9.52708L13.6733 47.4533L10.0564 46.8359L5.73376 66.5051H2.11687L6.35128 46.7477C4.05764 47.1887 2.91082 48.8646 2.91082 51.7752C2.91082 52.4809 2.99904 53.0101 3.26369 53.3629C3.26369 53.4511 3.35191 53.4511 3.35191 53.5393C1.94044 53.5393 1.14649 53.0983 0.793621 52.2163C0.705404 51.8635 0.617188 51.4224 0.617188 50.7168C0.617188 50.0994 0.793621 49.3056 1.05827 48.5117C1.41114 47.7179 1.85222 47.0123 2.55796 46.3949C4.05764 45.0718 6.35128 44.3662 9.26243 44.3662C10.2328 44.3662 11.2914 44.4544 12.4382 44.5426C13.5851 44.719 14.4672 44.8072 15.0847 44.8072C15.7905 44.8954 16.5844 44.8954 17.5548 44.8954C18.5252 45.0718 19.4074 44.8954 20.2895 44.5426Z" fill="#2483C5"/>
<path d="M24.8767 57.5963C24.8767 56.185 24.4356 55.4794 23.5535 55.4794C23.2888 55.4794 22.9359 55.5676 22.6713 55.8322C22.3184 56.0086 22.0538 56.3614 21.7891 56.8025L20.2894 63.9469C20.4659 64.2997 20.8187 64.5643 21.348 64.5643C21.9656 64.5643 22.4066 64.2997 22.9359 63.8587C23.8181 62.8884 24.4356 61.5654 24.6121 59.8013C24.8767 58.9193 24.8767 58.2137 24.8767 57.5963ZM19.9366 65.7109L17.4665 78.1475L13.585 79.0296L19.0544 52.7451H22.7595L22.3184 54.6856C23.2006 53.98 24.171 53.6271 25.3178 53.6271C26.8175 53.6271 27.7879 54.3328 28.2289 55.744C28.4054 56.2732 28.4936 56.8906 28.4936 57.5081C28.4936 58.2137 28.4936 58.8311 28.4054 59.5367C28.3172 60.2424 28.2289 60.8598 27.9643 61.5654C27.7879 62.271 27.5232 62.8884 27.1703 63.5059C26.8175 64.1233 26.4646 64.6525 26.0235 65.1817C25.5824 65.6227 24.9649 66.0637 24.3474 66.3284C23.7299 66.593 22.9359 66.7694 21.9656 66.7694C20.9952 66.6812 20.2894 66.3284 19.9366 65.7109Z" fill="#2483C5"/>
<path d="M43.4021 61.9185C42.3435 65.0938 40.5792 66.5933 38.2855 66.5933C36.7859 66.5933 35.9037 65.7994 35.7273 64.2118C34.7569 65.7994 33.4336 66.5933 31.9339 66.5933C31.14 66.5933 30.5225 66.3287 29.9932 65.8876C29.4639 65.4466 29.1992 64.6528 29.1992 63.5944C29.1992 63.1533 29.2874 62.5359 29.3757 61.9185L31.14 53.7156H34.8451L32.9925 62.3595C32.9043 62.6241 32.9043 62.8887 32.9043 63.0651C32.9043 63.7708 33.169 64.1236 33.6983 64.1236C34.5804 64.1236 35.2862 63.3298 35.7273 61.8303L37.4916 53.6274H41.1967L39.3441 62.2713C39.2559 62.5359 39.2559 62.8887 39.2559 63.1533C39.2559 63.7708 39.6088 64.0354 40.3145 64.0354C41.2849 64.0354 41.9906 63.2416 42.3435 61.7421H43.4021" fill="#2483C5"/>
<path d="M45.961 63.9472C46.1374 64.2118 46.4903 64.3 46.9314 64.3C47.3724 64.3 47.7253 64.1236 47.99 63.859C48.2546 63.5943 48.5193 63.2415 48.7839 62.8005C49.225 62.0067 49.4896 61.1247 49.7543 60.0662C49.9307 59.0078 50.0189 58.1258 50.0189 57.5083C50.0189 56.8909 49.9307 56.4499 49.7543 56.2735C49.5779 56.0971 49.3132 55.9207 48.9603 55.9207C48.6075 55.9207 48.2546 56.0089 47.9017 56.2735C47.5489 56.5381 47.2842 56.8909 47.0196 57.2437C46.5785 57.9494 46.2256 58.8314 45.961 59.8898C45.6963 60.9483 45.6081 61.7421 45.6081 62.4477C45.6963 63.2415 45.7845 63.6826 45.961 63.9472ZM49.8425 51.687C49.6661 51.687 49.4896 51.7752 49.4896 52.0398C49.4896 52.128 49.6661 52.3926 49.9307 52.6572C51.4304 54.4212 52.2244 56.3617 52.2244 58.3904C52.2244 60.419 51.6951 62.2713 50.6365 63.859C50.1072 64.6528 49.4896 65.3584 48.6957 65.8876C47.9017 66.4168 47.1078 66.6814 46.3138 66.6814C44.8142 66.6814 43.7555 66.3286 43.0498 65.623C42.3441 64.9174 41.9912 63.859 41.9912 62.3595C41.9912 60.3308 42.6087 58.5668 43.7555 56.9791C45.0788 55.3033 46.8431 54.5095 48.9603 54.5095C49.0486 54.5095 49.1368 54.5095 49.225 54.5095C49.3132 54.5095 49.3132 54.5095 49.4014 54.5095C49.0486 54.0684 48.6957 53.7156 48.3428 53.3628C47.99 53.01 47.6371 52.6572 47.3724 52.3044C46.6667 51.5106 46.3138 50.8049 46.3138 50.1875C46.3138 49.4819 46.5785 49.0409 47.0196 48.6881C47.4607 48.4235 48.1664 48.247 49.1368 48.247H54.1651C54.7827 48.247 55.1355 48.0706 55.312 47.806C55.4002 47.6296 55.4884 47.365 55.5766 47.0122H56.7234C56.2823 48.9527 55.8413 50.1875 55.2237 50.8049C54.8709 51.1577 54.518 51.3341 54.0769 51.5106C53.6358 51.5988 53.0183 51.687 52.4008 51.687H49.8425Z" fill="#2483C5"/>
<path d="M61.0457 57.5963C61.0457 56.185 60.6046 55.4794 59.7224 55.4794C59.4577 55.4794 59.1049 55.5676 58.8402 55.8322C58.4874 56.0086 58.2227 56.3614 57.9581 56.8025L56.4584 63.9469C56.6348 64.2997 56.9877 64.5643 57.517 64.5643C58.1345 64.5643 58.5756 64.2997 59.1049 63.8587C59.9871 62.8884 60.6046 61.5654 60.781 59.8013C61.0457 58.9193 61.0457 58.2137 61.0457 57.5963ZM56.1055 65.7109L53.6354 78.1475L49.7539 79.0296L55.2233 52.7451H58.9285L58.4874 54.6856C59.3695 53.98 60.3399 53.6271 61.4867 53.6271C62.9864 53.6271 63.9568 54.3328 64.3979 55.744C64.5743 56.2732 64.6625 56.8906 64.6625 57.5081C64.6625 58.2137 64.6625 58.8311 64.5743 59.5367C64.4861 60.2424 64.3979 60.8598 64.1332 61.5654C63.9568 62.271 63.6922 62.8884 63.3393 63.5059C62.9864 64.1233 62.6336 64.6525 62.1925 65.1817C61.7514 65.6227 61.2221 66.0637 60.5164 66.3284C59.8988 66.593 59.1049 66.7694 58.1345 66.7694C57.1641 66.6812 56.4584 66.3284 56.1055 65.7109Z" fill="#2483C5"/>
<path d="M72.9551 55.8323C72.9551 55.2149 72.7787 54.9503 72.3376 54.9503C71.7201 54.9503 71.1026 55.4795 70.5733 56.6262C69.9558 57.6846 69.6029 58.9194 69.3382 60.2425C70.3086 60.1543 71.1908 59.7133 71.8965 58.8312C72.6023 57.9492 72.9551 56.8908 72.9551 55.8323ZM76.2191 61.9183C74.2784 65.0936 71.9847 66.5931 69.1618 66.5931C67.9268 66.5931 66.9564 66.2403 66.2507 65.6229C65.6331 65.0936 65.2803 64.0352 65.2803 62.624C65.2803 60.6835 65.8096 58.8312 66.78 56.979C67.5739 55.5677 68.5443 54.5975 69.8675 53.9801C70.5733 53.6273 71.279 53.5391 71.9847 53.5391C73.1315 53.5391 73.9255 53.8037 74.3666 54.2447C74.8077 54.6857 74.9841 55.3031 74.9841 56.0087C74.9841 57.42 74.3666 58.6548 73.2198 59.7133C72.073 60.7717 70.6615 61.3009 69.0736 61.3891C69.0736 61.8301 68.9854 62.1829 68.9854 62.4476C68.9854 63.3296 69.1618 63.8588 69.4265 64.2116C69.6911 64.4762 70.1322 64.6526 70.7497 64.6526C71.7201 64.6526 72.514 64.4762 73.2198 64.0352C73.9255 63.5942 74.6312 62.9768 75.337 62.0947H76.2191V61.9183Z" fill="#2483C5"/>
<path d="M95.5382 55.9207C95.5382 55.2151 95.3618 54.8623 94.9207 54.8623C94.3032 54.8623 93.5975 55.6561 93.0682 57.332C92.4506 59.0078 92.186 60.5955 92.186 62.0949C92.186 63.0651 92.3624 63.6826 92.7153 64.1236C93.0682 64.5646 93.5092 64.741 94.1268 64.741C94.7443 64.741 95.3618 64.4764 96.0675 64.0354C96.7733 63.5944 97.479 62.8887 98.0083 61.9185H98.8905C98.273 63.2415 97.479 64.3 96.3322 65.2702C95.1854 66.1522 94.0385 66.6815 92.8035 66.6815C91.5685 66.6815 90.6863 66.3287 89.9806 65.623C89.3631 64.9174 89.0102 63.9472 89.0102 62.7123C89.0102 61.8303 89.0984 61.1247 89.1866 60.5073H87.6869L86.4519 66.5933H83.0115L84.3347 60.5073H82.9232C82.3939 63.3298 81.2471 65.182 79.4828 66.2404C78.8653 66.5933 78.2477 66.7697 77.542 66.7697C76.3952 66.7697 75.513 66.5051 75.0719 65.9758C74.6309 65.4466 74.3662 64.8292 74.3662 64.0354C74.3662 62.9769 74.7191 62.3595 75.3366 62.0067C75.513 61.9185 75.7777 61.8303 76.0423 61.8303C76.307 61.8303 76.5716 61.9185 76.8363 62.1831C76.5716 62.8005 76.4834 63.3298 76.4834 63.859C76.4834 64.3882 76.5716 64.741 76.7481 65.0056C76.9245 65.182 77.1891 65.3584 77.4538 65.3584C77.7184 65.3584 77.9831 65.182 78.2477 64.8292C79.0417 63.7708 79.571 62.3595 79.9239 60.5073C80.1003 59.6252 80.1885 58.8314 80.1885 58.1258C80.1885 56.3617 79.6592 55.4797 78.6006 55.4797C78.0713 55.4797 77.7184 55.6561 77.4538 56.0089C77.1891 56.3617 76.9245 56.8027 76.6598 57.4202H75.3366C76.0423 54.8623 77.4538 53.6274 79.571 53.6274C80.7178 53.6274 81.6882 53.9803 82.3057 54.6859C82.9232 55.3915 83.2761 56.3617 83.2761 57.5966C83.2761 58.0376 83.2761 58.4786 83.1879 58.9196H84.6876L85.7462 53.8038H89.1866L88.128 58.9196H89.5395C90.2452 56.4499 91.392 54.8623 92.8917 54.0685C93.421 53.8038 94.0386 53.6274 94.6561 53.6274C95.7147 53.6274 96.4204 53.892 96.7733 54.3331C97.2144 54.7741 97.3908 55.3033 97.3908 56.0089C97.3908 56.6263 97.3026 57.1556 97.0379 57.4202C96.7733 57.6848 96.5086 57.8612 96.1558 57.8612C95.8029 57.8612 95.5382 57.773 95.1854 57.5966C95.45 56.8909 95.5382 56.3617 95.5382 55.9207Z" fill="#2483C5"/>
<path d="M104.095 63.9469C104.095 63.3294 104.272 62.1828 104.713 60.4188H101.89L100.566 66.5048H96.8613L99.596 53.7153H103.301L102.243 58.8311H105.065L106.212 53.7153H109.653L108.33 60.0659L107.888 62.0064C107.8 62.5356 107.712 62.8884 107.712 63.0648C107.712 63.7705 108.065 64.1233 108.771 64.1233C109.3 64.1233 109.653 63.9469 110.006 63.5059C110.27 63.153 110.623 62.5356 110.888 61.83H111.946C110.888 65.0053 109.3 66.5048 107.183 66.5048C106.212 66.5048 105.418 66.2401 104.977 65.7109C104.36 65.3581 104.095 64.7407 104.095 63.9469Z" fill="#2483C5"/>
<path d="M128.532 61.9185C127.473 65.0938 125.885 66.5933 123.856 66.5933C122.886 66.5933 122.092 66.3287 121.651 65.7994C121.121 65.2702 120.857 64.6528 120.857 63.9472C120.857 63.2416 121.033 62.0067 121.474 60.2427L122.268 56.6263L119.445 58.3022C119.886 58.9196 120.063 59.8016 120.063 61.0365C120.063 62.1831 119.622 63.418 118.74 64.5646C117.681 65.9758 116.27 66.5933 114.417 66.5933C113.27 66.5933 112.388 66.3287 111.682 65.7112C111.065 65.182 110.712 64.3 110.712 63.3298C110.712 62.8887 110.8 62.3595 110.888 61.8303L112.564 53.6274H116.093L114.241 62.6241C114.152 62.8005 114.152 62.9769 114.152 63.3298C114.152 64.0354 114.505 64.3882 115.299 64.3882C116.005 64.3882 116.711 63.9472 117.24 63.1533C117.769 62.3595 118.034 61.3011 118.034 60.1545C118.034 59.7134 117.946 59.4488 117.681 59.1842C117.505 59.3606 117.24 59.4488 116.975 59.4488C116.711 59.4488 116.446 59.3606 116.181 59.1842C115.917 59.0078 115.828 58.7432 115.828 58.3022C115.828 57.9494 116.005 57.5966 116.27 57.4202C116.534 57.2438 116.887 57.1556 117.24 57.1556C117.593 57.1556 117.946 57.2438 118.21 57.332C118.828 57.0674 119.445 56.8027 119.975 56.4499L123.062 54.5977C123.592 54.2449 124.121 53.9803 124.738 53.6274H126.326L125.003 59.978L124.562 61.9185C124.474 62.4477 124.386 62.8005 124.386 62.9769C124.386 63.6826 124.738 64.0354 125.444 64.0354C125.973 64.0354 126.326 63.859 126.679 63.418C126.944 63.0651 127.297 62.4477 127.561 61.7421H128.532" fill="#2483C5"/>
<path d="M132.501 48.4236C133.56 48.4236 134.089 48.8646 134.089 49.8349C134.089 50.3641 133.913 50.7169 133.472 50.9815C133.736 51.0697 134.089 51.0697 134.53 51.0697C136.383 51.0697 137.706 50.0995 138.5 48.0708H139.559C138.765 50.3641 137.53 51.7753 135.854 52.2163C135.324 52.3927 134.619 52.3927 133.825 52.3927C133.031 52.3927 132.325 52.2163 131.707 51.7753C131.09 51.4225 130.825 50.8933 130.825 50.2759C130.825 49.6585 131.002 49.2174 131.266 48.8646C131.531 48.6 131.972 48.4236 132.501 48.4236ZM131.002 63.0653C131.002 63.7709 131.266 64.2119 131.796 64.2119C132.678 64.2119 133.384 63.4181 133.825 61.9186L135.589 53.7158H139.294L137.442 62.3597C137.353 62.6243 137.353 62.9771 137.353 63.2417C137.353 63.8591 137.706 64.1237 138.412 64.1237C138.588 64.1237 138.853 64.0355 139.294 63.9473C139.206 64.8293 138.941 65.535 138.324 65.976C137.794 66.417 137.089 66.5934 136.383 66.5934C135.677 66.5934 135.148 66.417 134.707 65.976C134.266 65.535 134.001 64.9175 133.913 64.2119C132.942 65.7996 131.619 66.5934 130.119 66.5934C129.326 66.5934 128.708 66.3288 128.179 65.8878C127.649 65.4468 127.385 64.6529 127.385 63.5945C127.385 63.1535 127.473 62.5361 127.561 61.9186L129.326 53.7158H133.031L131.178 62.3597C131.002 62.6243 131.002 62.8889 131.002 63.0653Z" fill="#2483C5"/>
<path d="M67.3972 75.237C67.3972 74.9724 67.309 74.8842 67.2207 74.8842C66.9561 74.8842 66.7797 75.1488 66.515 75.7662C66.3386 76.3836 66.1621 76.9128 66.1621 77.4421C66.1621 77.7949 66.2504 78.0595 66.3386 78.1477C66.4268 78.3241 66.6032 78.4123 66.8679 78.4123C67.0443 78.4123 67.309 78.3241 67.5736 78.1477C67.8383 77.9713 68.1029 77.7067 68.2793 77.3538H68.6322C68.4558 77.7949 68.1029 78.2359 67.6618 78.5887C67.2207 78.9415 66.8679 79.1179 66.4268 79.1179C65.9857 79.1179 65.6328 78.9415 65.4564 78.6769C65.1918 78.4123 65.1035 78.0595 65.1035 77.6185C65.1035 77.3539 65.1035 77.001 65.1918 76.8246H64.6625L64.2214 79.0297H62.9863L63.4274 76.8246H62.8981C62.7217 77.8831 62.2806 78.5005 61.6631 78.8533C61.3984 79.0297 61.222 79.0297 60.9574 79.0297C60.5163 79.0297 60.2516 78.9415 60.0752 78.7651C59.8988 78.5887 59.8105 78.3241 59.8105 78.0595C59.8105 77.7067 59.8988 77.4421 60.1634 77.3538C60.2516 77.3538 60.3398 77.2656 60.4281 77.2656C60.5163 77.2656 60.6045 77.2656 60.6927 77.3538C60.6045 77.6185 60.6045 77.7949 60.6045 77.9713C60.6045 78.1477 60.6045 78.3241 60.6927 78.4123C60.7809 78.5005 60.8691 78.5005 60.9574 78.5005C61.0456 78.5005 61.1338 78.4123 61.222 78.3241C61.4867 77.9713 61.6631 77.4421 61.8395 76.7364C61.9277 76.4718 61.9277 76.119 61.9277 75.8544C61.9277 75.237 61.7513 74.8842 61.3984 74.8842C61.222 74.8842 61.0456 74.9724 60.9574 75.0606C60.8691 75.1488 60.7809 75.3252 60.6927 75.5898H60.2516C60.5163 74.7078 61.0456 74.1785 61.7513 74.1785C62.1924 74.1785 62.5453 74.3549 62.7217 74.5313C62.9863 74.796 63.0746 75.1488 63.0746 75.5898C63.0746 75.7662 63.0746 75.8544 63.0746 76.0308H63.5156L63.8685 74.1785H65.1035L64.7507 76.0308H65.28C65.5446 75.1488 65.9857 74.5313 66.515 74.2667C66.6914 74.1785 66.9561 74.0903 67.1325 74.0903C67.4854 74.0903 67.75 74.1785 67.9265 74.3549C68.1029 74.5314 68.1029 74.7078 68.1029 74.9724C68.1029 75.237 68.0147 75.4134 67.9265 75.5016C67.8383 75.5898 67.75 75.678 67.5736 75.678C67.4854 75.678 67.309 75.678 67.2207 75.5898C67.3972 75.5898 67.3972 75.4134 67.3972 75.237Z" fill="#2483C5"/>
<path d="M74.1895 77.4421C73.8366 78.5887 73.2191 79.1179 72.3369 79.1179C71.8076 79.1179 71.4548 78.8533 71.4548 78.2359C71.1019 78.8533 70.6608 79.1179 70.1315 79.1179C69.8669 79.1179 69.6022 79.0297 69.4258 78.8533C69.2493 78.6769 69.1611 78.4123 69.1611 77.9713C69.1611 77.7949 69.1611 77.6185 69.2493 77.3539L69.8669 74.355H71.1901L70.4844 77.6185C70.4844 77.7067 70.4844 77.7949 70.4844 77.8831C70.4844 78.1477 70.5726 78.2359 70.749 78.2359C71.1019 78.2359 71.2783 77.9713 71.4548 77.4421L72.0723 74.4432H73.3955L72.778 77.6185C72.778 77.7067 72.778 77.7949 72.778 77.9713C72.778 78.1477 72.8662 78.3241 73.1309 78.3241C73.4838 78.3241 73.7484 78.0595 73.8366 77.5303H74.1895" fill="#2483C5"/>
<path d="M80.2768 77.4423C79.9239 78.5889 79.3064 79.1181 78.6006 79.1181C78.2478 79.1181 77.9831 79.0299 77.8067 78.8535C77.6302 78.6771 77.542 78.4125 77.542 78.2361C77.542 77.9715 77.6302 77.5304 77.7185 76.913L78.1595 75.0608C77.8949 75.0608 77.6302 75.149 77.4538 75.4136C77.2774 75.6782 77.1892 76.031 77.0127 76.5602C76.9245 77.0894 76.8363 77.4422 76.7481 77.7951C76.6599 78.0597 76.5716 78.3243 76.4834 78.5007C76.307 78.9417 75.9541 79.1181 75.4248 79.1181C75.0719 79.1181 74.8073 79.0299 74.6309 78.8535C74.4544 78.6771 74.3662 78.4125 74.3662 78.0597C74.3662 77.7069 74.4544 77.5305 74.7191 77.4423C74.8073 77.4423 74.8955 77.354 74.9837 77.354C75.0719 77.354 75.1602 77.354 75.2484 77.5305C75.3366 77.6187 75.4248 77.7069 75.4248 77.8833C75.4248 78.0597 75.4248 78.1479 75.3366 78.2361C75.2484 78.3243 75.1602 78.3243 75.0719 78.3243C75.0719 78.4125 75.0719 78.4125 75.1602 78.5007C75.2484 78.5889 75.3366 78.5889 75.4248 78.5889C75.6012 78.5889 75.6895 78.5007 75.7777 78.4125C75.9541 78.2361 76.0423 77.8833 76.1306 77.4423L76.307 76.7366C76.5716 75.4136 77.0127 74.708 77.542 74.5316C77.7185 74.4434 77.8949 74.4434 78.0713 74.4434H79.3946L78.7771 77.4423C78.7771 77.6187 78.6888 77.7069 78.6888 77.7951C78.6888 78.0597 78.7771 78.1479 79.0417 78.1479C79.2181 78.1479 79.3946 78.0597 79.4828 77.9715C79.571 77.7951 79.6592 77.6187 79.8357 77.354H80.2768" fill="#2483C5"/>
<path d="M83.6293 76.3838C83.4528 76.3838 83.3646 76.2074 83.3646 75.9428C83.3646 75.6782 83.4528 75.59 83.6293 75.5018C83.6293 75.3254 83.6293 75.149 83.5411 75.0608C83.5411 74.9726 83.4528 74.9726 83.2764 74.9726C83.0118 74.9726 82.7471 75.3254 82.4824 75.9428C82.2178 76.5602 82.1296 77.0894 82.1296 77.6187C82.1296 77.8833 82.1296 78.1479 82.2178 78.1479C82.306 78.2361 82.306 78.2361 82.3942 78.3243C82.4824 78.3243 82.5707 78.3243 82.6589 78.3243C82.8353 78.3243 83.1 78.1479 83.2764 77.7951C83.4528 77.354 83.5411 76.913 83.6293 76.3838ZM86.0111 75.59C85.6583 75.9428 85.129 76.2074 84.335 76.3838C84.2468 77.2658 83.9821 77.8833 83.6293 78.4125C83.1882 78.9417 82.7471 79.2063 82.1296 79.2063C81.4238 79.2063 80.9828 78.9417 80.7181 78.4125C80.6299 78.2361 80.6299 78.0597 80.6299 77.7951C80.6299 77.5305 80.6299 77.3541 80.7181 77.0894C80.7181 76.8248 80.8063 76.6484 80.8945 76.3838C81.071 75.8546 81.3356 75.4136 81.6885 75.0608C82.1296 74.6198 82.5707 74.4434 83.1882 74.4434C83.9821 74.4434 84.335 74.9726 84.335 75.9428C84.335 75.9428 84.4232 75.9428 84.5115 75.9428C84.6879 75.9428 84.8643 75.8546 85.129 75.7664C85.3936 75.6782 85.6583 75.5018 85.8347 75.3254L86.0111 75.59Z" fill="#2483C5"/>
<path d="M87.5993 72.5028C87.9522 72.5028 88.2168 72.6792 88.2168 73.032C88.2168 73.2084 88.1286 73.3848 88.0404 73.473C88.1286 73.473 88.2168 73.473 88.3932 73.473C89.099 73.473 89.5401 73.1202 89.8047 72.4146H90.1576C89.8929 73.2966 89.4518 73.7376 88.8343 73.914C88.6579 74.0022 88.3932 74.0022 88.1286 74.0022C87.8639 74.0022 87.5993 73.914 87.3346 73.8258C87.1582 73.6494 86.9818 73.473 86.9818 73.2966C86.9818 73.1202 87.07 72.9438 87.1582 72.7674C87.2464 72.591 87.4229 72.5028 87.5993 72.5028ZM87.07 77.7949C87.07 78.0595 87.1582 78.2359 87.3346 78.2359C87.6875 78.2359 87.8639 77.9713 88.0404 77.4421L88.6579 74.4432H89.9811L89.2754 77.6185C89.2754 77.7067 89.2754 77.7949 89.2754 77.9713C89.2754 78.1477 89.3636 78.3241 89.6283 78.3241C89.7165 78.3241 89.8047 78.3241 89.8929 78.2359C89.8929 78.5888 89.7165 78.8534 89.5401 78.9416C89.3636 79.118 89.099 79.2062 88.8343 79.2062C88.5697 79.2062 88.3932 79.118 88.2168 78.9416C88.0404 78.7652 87.9522 78.5888 87.9522 78.3241C87.5993 78.9416 87.1582 79.2062 86.5407 79.2062C86.276 79.2062 86.0114 79.118 85.835 78.9416C85.6585 78.7652 85.5703 78.5006 85.5703 78.0595C85.5703 77.8831 85.5703 77.7067 85.6585 77.4421L86.276 74.4432H87.5993L87.07 77.6185C87.07 77.7067 87.07 77.7949 87.07 77.7949Z" fill="#2483C5"/>
<path d="M96.2445 76.2071C96.4209 76.2071 96.5091 76.2071 96.5974 76.2071C96.9502 76.2071 97.1267 76.2953 97.3031 76.4717C97.3913 76.6481 97.4795 76.8245 97.4795 77.0891C97.4795 77.1773 97.4795 77.2655 97.4795 77.2655V77.5301C97.4795 77.7065 97.3913 77.883 97.3913 77.9712C97.3913 78.2358 97.4795 78.324 97.7442 78.324C97.9206 78.324 98.097 78.2358 98.1853 78.1476C98.2735 78.0594 98.3617 77.7947 98.5381 77.5301H98.891C98.5381 78.6768 97.9206 79.206 97.2149 79.206C96.862 79.206 96.5973 79.1178 96.3327 78.9414C96.1563 78.765 96.0681 78.5004 96.0681 78.2358C96.0681 78.0594 96.0681 77.8829 96.1563 77.7947C96.1563 77.6183 96.2445 77.5301 96.2445 77.3537C96.2445 77.0891 96.1563 76.9127 95.8916 76.9127C95.8034 76.9127 95.7152 76.9127 95.5388 77.0009L95.2741 77.1773L94.833 79.1178H93.5098L94.4801 74.5312H95.8034L95.3623 76.3835L95.9798 75.7661L96.4209 75.3251C96.6856 74.9723 96.9502 74.7959 97.1266 74.7077C97.3031 74.6194 97.4795 74.5312 97.7442 74.5312C97.9206 74.5312 98.097 74.6194 98.2735 74.7077C98.3617 74.7959 98.4499 74.9723 98.4499 75.1487C98.4499 75.3251 98.3617 75.5015 98.2735 75.5897C98.1853 75.6779 98.0088 75.7661 97.8324 75.7661C97.656 75.7661 97.4795 75.6779 97.4795 75.5897C97.3913 75.5015 97.3913 75.4133 97.3913 75.3251V75.2369C97.2149 75.3251 97.0384 75.5015 96.9502 75.5897L96.5974 75.9425C96.4209 75.9425 96.3327 76.1189 96.2445 76.2071Z" fill="#2483C5"/>
<path d="M115.034 77.8833C115.034 78.1479 115.122 78.2361 115.387 78.2361C115.563 78.2361 115.74 78.1479 115.828 78.0597C115.916 77.8833 116.092 77.7069 116.181 77.4423H116.534C116.181 78.5007 115.651 79.0299 115.122 79.1181C115.034 79.1181 114.946 79.1181 114.769 79.1181C114.593 79.1181 114.505 79.1181 114.328 79.0299C113.975 78.8535 113.711 78.5889 113.711 78.0597C113.711 77.7951 113.799 77.4422 113.887 76.8248C114.064 76.2956 114.063 75.8546 114.063 75.6782C114.063 75.3254 113.975 75.2372 113.711 75.2372C113.446 75.2372 113.27 75.4136 113.093 75.7664C113.005 75.8546 113.005 75.9428 113.005 76.1192L112.387 79.1181H111.152L112.123 74.5316H113.446L113.358 74.9726C113.622 74.6198 113.975 74.4434 114.416 74.4434C114.681 74.4434 114.946 74.5316 115.122 74.708C115.299 74.8844 115.387 75.149 115.387 75.4136C115.387 75.7664 115.299 76.1192 115.21 76.472L115.034 77.354C115.034 77.5304 115.034 77.7069 115.034 77.8833Z" fill="#2483C5"/>
<path d="M122.62 77.4423C122.268 78.5889 121.65 79.1181 120.944 79.1181C120.591 79.1181 120.327 79.0299 120.15 78.8535C119.974 78.6771 119.886 78.4125 119.886 78.2361C119.886 77.9715 119.974 77.5304 120.062 76.913L120.503 75.0608C120.15 75.0608 119.974 75.149 119.798 75.4136C119.621 75.6782 119.533 76.031 119.356 76.5602C119.268 77.0894 119.18 77.4422 119.092 77.7951C119.004 78.0597 118.915 78.3243 118.827 78.5007C118.651 78.9417 118.298 79.1181 117.769 79.1181C117.416 79.1181 117.151 79.0299 116.975 78.8535C116.798 78.6771 116.71 78.4125 116.71 78.0597C116.71 77.7069 116.798 77.5305 117.063 77.4423C117.151 77.4423 117.239 77.354 117.327 77.354C117.416 77.354 117.592 77.354 117.68 77.5305C117.769 77.6187 117.857 77.7069 117.857 77.8833C117.857 78.0597 117.857 78.1479 117.769 78.2361C117.68 78.3243 117.592 78.3243 117.504 78.3243C117.504 78.4125 117.504 78.4125 117.592 78.5007C117.68 78.5889 117.769 78.5889 117.857 78.5889C118.033 78.5889 118.121 78.5007 118.21 78.4125C118.386 78.2361 118.474 77.8833 118.651 77.4423L118.827 76.7366C119.092 75.4136 119.533 74.708 120.062 74.5316C120.239 74.4434 120.415 74.4434 120.68 74.4434H122.003L121.385 77.4423C121.385 77.6187 121.297 77.7069 121.297 77.7951C121.297 78.0597 121.385 78.1479 121.65 78.1479C121.827 78.1479 122.003 78.0597 122.091 77.9715C122.179 77.7951 122.268 77.6187 122.444 77.354H122.62" fill="#2483C5"/>
<path d="M125.885 75.237C125.885 74.9724 125.797 74.8842 125.621 74.8842C125.356 74.8842 125.18 75.0606 125.003 75.5016C124.827 75.8544 124.65 76.2954 124.562 76.8247C124.915 76.8247 125.268 76.6483 125.533 76.2954C125.709 75.9426 125.885 75.5898 125.885 75.237ZM127.032 77.4421C126.327 78.5887 125.533 79.1179 124.474 79.1179C124.033 79.1179 123.68 79.0297 123.415 78.7651C123.151 78.5005 123.062 78.1477 123.062 77.6185C123.062 76.9129 123.239 76.2072 123.592 75.5898C123.856 75.0606 124.209 74.7078 124.739 74.5314C125.003 74.4432 125.268 74.355 125.533 74.355C125.974 74.355 126.238 74.4432 126.415 74.6196C126.591 74.796 126.679 74.9724 126.679 75.237C126.679 75.7662 126.503 76.2072 126.062 76.5601C125.621 76.9129 125.18 77.0893 124.562 77.1775C124.562 77.3539 124.562 77.4421 124.562 77.5303C124.562 77.8831 124.65 78.0595 124.739 78.1477C124.827 78.2359 125.003 78.3241 125.18 78.3241C125.533 78.3241 125.797 78.2359 126.062 78.0595C126.327 77.8831 126.591 77.7067 126.856 77.3539H127.032V77.4421Z" fill="#2483C5"/>
<path d="M134.354 77.5305C134.354 78.0597 134.53 78.3243 134.883 78.3243C135.236 78.3243 135.589 78.1479 136.03 77.7951C135.853 78.6771 135.324 79.2063 134.442 79.2063C134.001 79.2063 133.648 79.1181 133.383 78.8535C133.118 78.5889 133.03 78.2361 133.03 77.7069C133.03 77.0012 133.207 76.2956 133.56 75.6782C133.824 75.149 134.177 74.7962 134.706 74.6198C134.971 74.5316 135.236 74.4434 135.5 74.4434C135.941 74.4434 136.206 74.5316 136.383 74.708C136.559 74.8844 136.647 75.0608 136.647 75.3254C136.647 75.59 136.559 75.7664 136.471 75.8546C136.383 75.9428 136.294 76.031 136.118 76.031C136.03 76.031 135.853 76.031 135.765 75.9428C135.853 75.7664 135.853 75.59 135.853 75.4136C135.853 75.149 135.765 75.0608 135.589 75.0608C135.412 75.0608 135.236 75.2372 135.059 75.59C134.795 76.031 134.618 76.5602 134.442 77.2658C134.354 77.1776 134.354 77.3541 134.354 77.5305Z" fill="#2483C5"/>
<path d="M48.3429 27.3429C49.4897 27.2547 50.7247 27.0783 51.9597 26.5491C56.547 24.6086 59.37 20.1985 63.2515 15.4355C67.133 10.6725 71.3674 4.85116 79.2187 4.85116C82.1299 4.85116 84.8646 5.64498 87.3347 6.79162C89.8047 7.23264 91.5691 8.11466 91.5691 8.11466C91.5691 8.11466 83.3649 0 74.1904 0C66.3391 0 62.1047 5.82139 58.2231 10.5843C54.3416 15.3473 51.5187 19.7574 46.9314 21.6979C42.3441 23.6384 37.4922 21.4333 37.4922 21.4333C37.4922 21.4333 42.5205 26.1963 48.9604 27.6075C48.7839 27.4311 48.5193 27.3429 48.3429 27.3429Z" fill="#B4D680"/>
<path d="M91.039 11.3779C91.3037 11.4661 91.6566 11.6425 91.9212 11.7307C88.9218 11.2015 85.0403 11.1133 81.9527 13.4066C76.1304 17.7285 72.1607 25.314 65.9855 29.9005C61.8393 32.9876 57.4285 33.2522 53.5469 32.282C50.1947 32.4584 47.46 31.2236 47.46 31.2236C47.46 31.2236 60.075 43.131 71.0138 34.9281C77.189 30.3415 81.1588 22.7561 86.9811 18.4342C92.8034 14.1122 101.449 18.0813 101.449 18.0813C101.449 18.0813 97.0378 13.6712 91.039 11.3779Z" fill="#7AAEDD"/>
<path d="M53.6358 32.3704C54.6944 32.2822 55.8412 32.1058 56.9881 31.5766C61.5753 29.6361 64.3983 25.226 68.2798 20.463C72.1613 15.7001 76.3957 9.87866 84.247 9.87866C86.9818 9.87866 89.6283 10.5843 92.0101 11.6427C94.6566 12.0837 96.5092 12.9658 96.5092 12.9658C96.5092 12.9658 92.7158 9.17304 87.3346 6.79156C84.247 6.26235 80.2773 6.17414 77.1015 8.46742C71.2792 12.7894 67.3094 20.3748 61.1342 24.9614C56.8116 28.1367 52.3126 28.3131 48.3428 27.2546C45.0788 27.431 42.5205 26.1962 42.5205 26.1962C42.5205 26.1962 48.0782 31.4884 55.1355 32.5468C54.6062 32.5468 54.0769 32.4586 53.6358 32.3704Z" fill="#5BCAF4"/>
<path d="M101.89 77.5305C102.155 77.0012 102.243 76.3838 102.243 75.6782C102.243 75.4136 102.243 75.2372 102.155 75.149C102.066 75.0608 101.978 74.9726 101.89 74.9726C101.625 74.9726 101.361 75.3254 101.096 75.9428C100.831 76.5602 100.743 77.0894 100.743 77.6187C100.743 77.8833 100.743 78.1479 100.831 78.1479C100.92 78.2361 100.92 78.2361 101.008 78.3243C101.096 78.3243 101.184 78.3243 101.272 78.3243C101.361 78.3243 101.537 78.2361 101.625 78.1479C101.714 77.9715 101.802 77.7951 101.89 77.5305ZM110.976 77.4423C110.623 78.5889 110.006 79.1181 109.3 79.1181C108.947 79.1181 108.683 79.0299 108.506 78.8535C108.33 78.6771 108.242 78.4125 108.242 78.1479C108.242 77.8833 108.33 77.4423 108.418 76.913L108.594 76.2956L107.271 79.1181H105.86L105.683 76.2956L105.595 76.913C105.507 77.2658 105.419 77.6187 105.419 77.8833C105.33 78.1479 105.242 78.4125 105.154 78.5889C104.978 79.0299 104.625 79.2063 104.184 79.2063C103.919 79.2063 103.743 79.1181 103.566 79.0299C103.39 78.8535 103.301 78.7653 103.213 78.5007C102.684 78.8535 102.155 79.0299 101.449 79.1181C101.272 79.1181 101.008 79.2063 100.831 79.2063C100.39 79.2063 100.037 79.1181 99.7728 78.8535C99.5081 78.5889 99.4199 78.2361 99.4199 77.7951C99.4199 77.354 99.5081 76.913 99.5964 76.5602C100.037 75.149 100.831 74.4434 101.978 74.4434C102.772 74.4434 103.125 74.9726 103.125 75.9428C103.125 77.0012 102.86 77.8833 102.331 78.5007C102.684 78.4125 102.949 78.2361 103.213 78.1479C103.213 77.9715 103.301 77.7951 103.39 77.7069C103.478 77.6187 103.654 77.5305 103.743 77.5305C103.919 77.5305 104.007 77.6187 104.095 77.7069C104.184 77.7951 104.184 77.8833 104.184 78.0597C104.184 78.2361 104.184 78.3243 104.095 78.4125C104.007 78.5007 103.919 78.5007 103.831 78.5007C103.831 78.5889 103.831 78.6771 103.919 78.7653C104.007 78.8535 104.095 78.8535 104.184 78.8535C104.36 78.8535 104.448 78.7653 104.537 78.6771C104.713 78.5007 104.889 78.1479 104.978 77.6187L105.154 76.913L105.683 74.6198H107.007L107.183 78.1479L108.859 74.6198H110.182C109.83 76.2956 109.653 77.2659 109.565 77.5305C109.477 77.7951 109.477 77.9715 109.477 78.0597C109.477 78.3243 109.565 78.4125 109.83 78.4125C110.006 78.4125 110.182 78.3243 110.271 78.2361C110.359 78.0597 110.535 77.8833 110.623 77.6187H110.976V77.4423Z" fill="#2483C5"/>
<path d="M129.943 76.2071C130.119 76.2071 130.207 76.2071 130.296 76.2071C130.648 76.2071 130.825 76.2953 131.001 76.4717C131.09 76.6481 131.178 76.8245 131.178 77.0891C131.178 77.1773 131.178 77.2655 131.178 77.2655V77.5301C131.178 77.7065 131.09 77.883 131.09 77.9712C131.09 78.2358 131.178 78.324 131.442 78.324C131.619 78.324 131.795 78.2358 131.884 78.1476C131.972 78.0594 132.06 77.7947 132.236 77.5301H132.589C132.236 78.6768 131.619 79.206 130.913 79.206C130.56 79.206 130.296 79.1178 130.031 78.9414C129.855 78.765 129.766 78.5004 129.766 78.2358C129.766 78.0594 129.766 77.8829 129.855 77.7947C129.855 77.6183 129.943 77.5301 129.943 77.3537C129.943 77.0891 129.855 76.9127 129.59 76.9127C129.502 76.9127 129.413 76.9127 129.237 77.0009L128.972 77.1773L128.531 79.1178H127.208L128.178 74.5312H129.502L129.061 76.3835L129.678 75.7661L130.119 75.3251C130.384 74.9723 130.648 74.7959 130.825 74.7077C131.001 74.6194 131.178 74.5312 131.442 74.5312C131.707 74.5312 131.795 74.6194 131.972 74.7077C132.06 74.7959 132.148 74.9723 132.148 75.1487C132.148 75.3251 132.06 75.5015 131.972 75.5897C131.884 75.6779 131.707 75.7661 131.531 75.7661C131.354 75.7661 131.178 75.6779 131.178 75.5897C131.09 75.5015 131.09 75.4133 131.09 75.3251V75.2369C130.913 75.3251 130.737 75.5015 130.648 75.5897L130.296 75.9425C130.207 75.9425 130.119 76.1189 129.943 76.2071Z" fill="#2483C5"/>
<path d="M87.2457 6.79154C84.7756 5.6449 81.9527 4.85107 79.1298 4.85107C71.2785 4.85107 67.0441 10.6725 63.1625 15.4354C59.281 20.1984 56.4581 24.6085 51.8708 26.549C50.6358 27.0782 49.4007 27.2546 48.2539 27.3428C52.2237 28.4012 56.7227 28.2248 61.0453 25.0495C67.2205 20.463 71.1903 12.8775 77.0126 8.55559C80.2766 6.17412 84.2463 6.26232 87.2457 6.79154Z" fill="#00B0BC"/>
<path d="M91.9211 11.7309C89.5393 10.6724 86.8928 9.9668 84.1581 9.9668C76.3068 9.9668 72.0724 15.7882 68.1909 20.5511C64.3093 25.3141 61.4864 29.7242 56.8991 31.6647C55.7523 32.1057 54.6055 32.3703 53.5469 32.4585C57.4284 33.4288 61.8392 33.1641 65.9854 30.077C72.1606 25.4905 76.1304 17.9051 81.9527 13.5831C85.1285 11.1134 89.01 11.1134 91.9211 11.7309Z" fill="#2483C5"/>
</svg>
