<svg width="25" height="24" viewBox="0 0 25 24" fill="none" xmlns="http://www.w3.org/2000/svg">
<g id="Iconly/Light-Outline/Video">
<g id="Video">
<g id="Group 3">
<mask id="mask0" mask-type="alpha" maskUnits="userSpaceOnUse" x="2" y="5" width="17" height="16">
<path id="Clip 2" fill-rule="evenodd" clip-rule="evenodd" d="M2.99805 5.00024H18.4983V20.5016H2.99805V5.00024Z" fill="white"/>
</mask>
<g mask="url(#mask0)">
<path id="Fill 1" fill-rule="evenodd" clip-rule="evenodd" d="M7.84515 6.50159C7.40615 6.50159 7.12315 6.50159 7.07415 6.50359C6.33615 6.53459 5.65515 6.84759 5.16415 7.38359C4.70615 7.88459 4.47015 8.52459 4.50115 9.18859C4.50115 12.0816 4.50215 16.4236 4.50915 16.6616C4.62315 18.0466 5.92115 19.1056 7.40715 18.9916C10.1572 18.9956 14.2312 19.0046 14.4222 18.9976C15.1572 18.9676 15.8392 18.6556 16.3302 18.1206C16.7892 17.6216 17.0252 16.9816 16.9962 16.3206C16.9952 16.3096 16.9952 16.2986 16.9952 16.2876C16.9962 13.4276 16.9962 9.08859 16.9892 8.85559C16.8762 7.46359 15.5722 6.39159 14.0782 6.50859C12.0122 6.50559 9.19315 6.50159 7.84515 6.50159ZM7.14415 20.5016C5.03015 20.5026 3.18615 18.8826 3.01215 16.7576C3.00915 16.7166 2.99915 16.5916 3.00215 9.22259C2.95415 8.19159 3.32815 7.16759 4.05815 6.37059C4.82015 5.53859 5.87115 5.05359 7.01815 5.00459C7.15715 4.99459 11.9652 5.00659 14.0242 5.01059C16.2742 4.85259 18.3052 6.52259 18.4862 8.76359C18.4942 8.87259 18.4972 11.3976 18.4952 16.2726C18.5372 17.3286 18.1612 18.3456 17.4352 19.1356C16.6722 19.9666 15.6202 20.4496 14.4742 20.4966C14.3342 20.5066 9.52415 20.4936 7.46215 20.4896C7.35615 20.4976 7.25015 20.5016 7.14415 20.5016Z" fill="#8C8C91"/>
</g>
</g>
<path id="Fill 4" fill-rule="evenodd" clip-rule="evenodd" d="M21.8159 18.3493C21.3649 18.3493 20.9199 18.1943 20.5529 17.8933L17.2719 15.1973C16.9519 14.9343 16.9059 14.4613 17.1689 14.1413C17.4309 13.8223 17.9039 13.7743 18.2239 14.0383L21.5039 16.7343C21.7249 16.9143 21.9469 16.8403 22.0329 16.7983C22.1189 16.7583 22.3179 16.6333 22.3179 16.3493L22.3299 9.00031C22.3309 8.71631 22.1309 8.59131 22.0449 8.55031C21.9599 8.51031 21.7349 8.43531 21.5159 8.61531L18.2229 11.3103C17.9009 11.5733 17.4299 11.5263 17.1679 11.2043C16.9049 10.8843 16.9529 10.4123 17.2729 10.1503L20.5659 7.45431C21.1699 6.95931 21.9829 6.86231 22.6879 7.19531C23.3929 7.53031 23.8309 8.22231 23.8299 9.00231L23.8179 16.3513C23.8169 17.1313 23.3779 17.8233 22.6739 18.1553C22.3979 18.2863 22.1059 18.3493 21.8159 18.3493Z" fill="#8C8C91"/>
</g>
</g>
</svg>
