<svg width="24" height="24" viewBox="0 0 24 24" fill="none" xmlns="http://www.w3.org/2000/svg">
<g id="Iconly/Light-Outline/Video">
<g id="Video">
<g id="Group 3">
<mask id="mask0" mask-type="alpha" maskUnits="userSpaceOnUse" x="2" y="5" width="16" height="16">
<path id="Clip 2" fill-rule="evenodd" clip-rule="evenodd" d="M2 5.00026H17.5003V20.5016H2V5.00026Z" fill="white"/>
</mask>
<g mask="url(#mask0)">
<path id="Fill 1" fill-rule="evenodd" clip-rule="evenodd" d="M6.84711 6.50161C6.40811 6.50161 6.12511 6.50161 6.07611 6.50361C5.33811 6.53461 4.65711 6.84761 4.16611 7.38361C3.70811 7.88461 3.47211 8.52461 3.50311 9.18861C3.50311 12.0816 3.50411 16.4236 3.51111 16.6616C3.62511 18.0466 4.92311 19.1056 6.40911 18.9916C9.15911 18.9956 13.2331 19.0046 13.4241 18.9976C14.1591 18.9676 14.8411 18.6556 15.3321 18.1206C15.7911 17.6216 16.0271 16.9816 15.9981 16.3206C15.9971 16.3096 15.9971 16.2986 15.9971 16.2876C15.9981 13.4276 15.9981 9.08861 15.9911 8.85561C15.8781 7.46361 14.5741 6.39161 13.0801 6.50861C11.0141 6.50561 8.19511 6.50161 6.84711 6.50161ZM6.14611 20.5016C4.03211 20.5026 2.18811 18.8826 2.01411 16.7576C2.01111 16.7166 2.00111 16.5916 2.00411 9.22261C1.95611 8.19161 2.33011 7.16761 3.06011 6.37061C3.82211 5.53861 4.87311 5.05361 6.02011 5.00461C6.15911 4.99461 10.9671 5.00661 13.0261 5.01061C15.2761 4.85261 17.3071 6.52261 17.4881 8.76361C17.4961 8.87261 17.4991 11.3976 17.4971 16.2726C17.5391 17.3286 17.1631 18.3456 16.4371 19.1356C15.6741 19.9666 14.6221 20.4496 13.4761 20.4966C13.3361 20.5066 8.52611 20.4936 6.46411 20.4896C6.35811 20.4976 6.25211 20.5016 6.14611 20.5016Z" fill="#75A856"/>
</g>
</g>
<path id="Fill 4" fill-rule="evenodd" clip-rule="evenodd" d="M20.8179 18.3493C20.3669 18.3493 19.9219 18.1943 19.5549 17.8933L16.2739 15.1973C15.9539 14.9343 15.9079 14.4613 16.1709 14.1413C16.4329 13.8223 16.9059 13.7743 17.2259 14.0383L20.5059 16.7343C20.7269 16.9143 20.9489 16.8403 21.0349 16.7983C21.1209 16.7583 21.3199 16.6333 21.3199 16.3493L21.3319 9.00031C21.3329 8.71631 21.1329 8.59131 21.0469 8.55031C20.9619 8.51031 20.7369 8.43531 20.5179 8.61531L17.2249 11.3103C16.9029 11.5733 16.4319 11.5263 16.1699 11.2043C15.9069 10.8843 15.9549 10.4123 16.2749 10.1503L19.5679 7.45431C20.1719 6.95931 20.9849 6.86231 21.6899 7.19531C22.3949 7.53031 22.8329 8.22231 22.8319 9.00231L22.8199 16.3513C22.8189 17.1313 22.3799 17.8233 21.6759 18.1553C21.3999 18.2863 21.1079 18.3493 20.8179 18.3493Z" fill="#75A856"/>
</g>
</g>
</svg>
