<svg width="334" height="389" viewBox="0 0 334 389" fill="none" xmlns="http://www.w3.org/2000/svg">
<path fill-rule="evenodd" clip-rule="evenodd" d="M4.16989 0H327.92V385.386H4.16989V0Z" fill="#FFF392"/>
<path fill-rule="evenodd" clip-rule="evenodd" d="M167.516 0H327.915V4.48269H167.516V0Z" fill="white"/>
<path fill-rule="evenodd" clip-rule="evenodd" d="M325.078 97.2469H246.662V73.882H325.078V97.2469Z" fill="white"/>
<path fill-rule="evenodd" clip-rule="evenodd" d="M163.22 97.2469H84.8049V73.882H163.22V97.2469Z" fill="white"/>
<path fill-rule="evenodd" clip-rule="evenodd" d="M6.52692 0H166.926V4.48269H6.52692V0Z" fill="white"/>
<path fill-rule="evenodd" clip-rule="evenodd" d="M44.3338 97.0145H4.16989V74.1116H44.3338V97.0145Z" fill="#1A1A24"/>
<path fill-rule="evenodd" clip-rule="evenodd" d="M7.70734 388.632V0.052124H0.0759888V388.632H7.70734Z" fill="#1A1A24"/>
<path fill-rule="evenodd" clip-rule="evenodd" d="M333.653 384.825V0.052124H326.021V384.825H333.653Z" fill="#1A1A24"/>
<path fill-rule="evenodd" clip-rule="evenodd" d="M168.106 97.0145H129.818V74.1116H168.106V97.0145Z" fill="#1A1A24"/>
<path fill-rule="evenodd" clip-rule="evenodd" d="M329.057 97.0145H290.769V74.1116H329.057V97.0145Z" fill="#1A1A24"/>
<path fill-rule="evenodd" clip-rule="evenodd" d="M97.1164 381.773H0V389H97.1164V381.773Z" fill="#1A1A24"/>
<path fill-rule="evenodd" clip-rule="evenodd" d="M30.3676 270.123H117.125V264.411H30.3676V270.123Z" fill="#1A1A24"/>
<path fill-rule="evenodd" clip-rule="evenodd" d="M92.2135 267.996V318.081H97.288V267.996H92.2135Z" fill="#1A1A24"/>
<path fill-rule="evenodd" clip-rule="evenodd" d="M333.652 381.773H146.725V389H333.652V381.773Z" fill="#1A1A24"/>
<path d="M10.7251 275.395V298.906" stroke="black" stroke-width="0.177385" stroke-miterlimit="10" stroke-linecap="round" stroke-linejoin="round"/>
<path d="M13.7403 301.924H66.3104" stroke="black" stroke-width="0.177385" stroke-miterlimit="10" stroke-linecap="round" stroke-linejoin="round"/>
<path d="M13.7403 272.373H66.3104" stroke="black" stroke-width="0.177385" stroke-miterlimit="10" stroke-linecap="round" stroke-linejoin="round"/>
<path d="M83.9787 304.943H7.70898" stroke="black" stroke-width="0.177385" stroke-miterlimit="10" stroke-linecap="round" stroke-linejoin="round"/>
<path d="M83.9787 305.713V270.124H7.70898V305.713" stroke="black" stroke-width="0.177385" stroke-miterlimit="10" stroke-linecap="round" stroke-linejoin="round"/>
<path d="M57.0462 277.767H17.403" stroke="black" stroke-width="0.177385" stroke-miterlimit="10" stroke-linecap="round" stroke-linejoin="round"/>
<path d="M15.8959 279.275V295.021" stroke="black" stroke-width="0.177385" stroke-miterlimit="10" stroke-linecap="round" stroke-linejoin="round"/>
<path d="M56.8302 296.531H17.403" stroke="black" stroke-width="0.177385" stroke-miterlimit="10" stroke-linecap="round" stroke-linejoin="round"/>
<path d="M26.6687 286.178V284.236" stroke="black" stroke-width="0.177385" stroke-miterlimit="10" stroke-linecap="round" stroke-linejoin="round"/>
<path d="M25.8054 287.042H23.8664" stroke="black" stroke-width="0.177385" stroke-miterlimit="10" stroke-linecap="round" stroke-linejoin="round"/>
<path d="M26.6687 288.119V290.06" stroke="black" stroke-width="0.177385" stroke-miterlimit="10" stroke-linecap="round" stroke-linejoin="round"/>
<path d="M27.53 287.042H29.4691" stroke="black" stroke-width="0.177385" stroke-miterlimit="10" stroke-linecap="round" stroke-linejoin="round"/>
<path d="M66.4503 301.693C74.3228 301.331 80.5218 294.841 80.5314 286.952C80.5411 279.062 74.3573 272.557 66.4856 272.175" stroke="black" stroke-width="0.177385" stroke-miterlimit="10" stroke-linecap="round" stroke-linejoin="round"/>
<path d="M10.7251 298.796C10.7251 300.524 12.1237 301.924 13.8491 301.924" stroke="black" stroke-width="0.177385" stroke-miterlimit="10" stroke-linecap="round" stroke-linejoin="round"/>
<path d="M13.8491 272.158C12.1237 272.158 10.7251 273.558 10.7251 275.286" stroke="black" stroke-width="0.177385" stroke-miterlimit="10" stroke-linecap="round" stroke-linejoin="round"/>
<path d="M28.3913 286.933C28.3913 286.04 27.6679 285.316 26.7754 285.316C25.8832 285.316 25.1597 286.04 25.1597 286.933C25.1597 287.827 25.8832 288.551 26.7754 288.551C27.6679 288.551 28.3913 287.827 28.3913 286.933Z" stroke="black" stroke-width="0.177385" stroke-miterlimit="10" stroke-linecap="round" stroke-linejoin="round"/>
<path d="M57.1185 296.308C62.1311 296.096 66.0883 291.971 66.0961 286.948C66.1039 281.926 62.1589 277.788 57.1467 277.561" stroke="black" stroke-width="0.177385" stroke-miterlimit="10" stroke-linecap="round" stroke-linejoin="round"/>
<path d="M17.5119 277.55C16.6196 277.55 15.8959 278.274 15.8959 279.168" stroke="black" stroke-width="0.177385" stroke-miterlimit="10" stroke-linecap="round" stroke-linejoin="round"/>
<path d="M15.8959 294.915C15.8959 295.808 16.6196 296.532 17.5119 296.532" stroke="black" stroke-width="0.177385" stroke-miterlimit="10" stroke-linecap="round" stroke-linejoin="round"/>
<path d="M28.8237 286.932C28.8237 285.801 27.9074 284.883 26.7767 284.883C25.6463 284.883 24.7304 285.801 24.7304 286.932C24.7304 288.064 25.6463 288.981 26.7767 288.981C27.9074 288.981 28.8237 288.064 28.8237 286.932Z" stroke="black" stroke-width="0.177385" stroke-miterlimit="10" stroke-linecap="round" stroke-linejoin="round"/>
<path d="M41.75 361.238V349.591" stroke="black" stroke-width="0.177385" stroke-miterlimit="10" stroke-linecap="round" stroke-linejoin="round"/>
<path d="M39.165 347.435L49.9377 346.356" stroke="black" stroke-width="0.177385" stroke-miterlimit="10" stroke-linecap="round" stroke-linejoin="round"/>
<path d="M29.9003 365.121V345.709" stroke="black" stroke-width="0.177385" stroke-miterlimit="10" stroke-linecap="round" stroke-linejoin="round"/>
<path d="M39.165 363.398L49.9377 364.477" stroke="black" stroke-width="0.177385" stroke-miterlimit="10" stroke-linecap="round" stroke-linejoin="round"/>
<path d="M49.9378 346.356H50.153H50.3681L50.584 346.14H50.7996H51.0147H51.2303H51.4458H51.661H51.8769H52.092H52.3072H52.5231L52.7383 346.356H52.9538H53.1693H53.3845H53.6H53.816H54.0308H54.2463L54.4622 346.572H54.6777H54.8929H55.1084H55.3239V346.788H55.5391H55.7547H55.9702L56.1854 347.003H56.4013H56.6164L56.8316 347.219H57.0475H57.2627V347.435H57.4782H57.6941L57.9093 347.65H58.1244H58.3403V347.866" stroke="black" stroke-width="0.177385" stroke-miterlimit="10" stroke-linecap="round" stroke-linejoin="round"/>
<path d="M58.3403 362.965V363.181H58.1244H57.9093L57.6941 363.396H57.4782L57.2627 363.612H57.0475H56.8316L56.6164 363.828H56.4013H56.1854L55.9702 364.043H55.7547H55.5391H55.3239V364.259H55.1084H54.8929H54.6777H54.4622V364.475H54.2463H54.0308H53.816H53.6H53.3845H53.1693H52.9538H52.7383V364.69H52.5231H52.3072H52.092H51.8769H51.661H51.4458H51.2303H51.0147H50.7996H50.584H50.3681V364.475H50.153H49.9378" stroke="black" stroke-width="0.177385" stroke-miterlimit="10" stroke-linecap="round" stroke-linejoin="round"/>
<path d="M41.75 349.593H41.9652V349.377H42.1807H42.3962V349.161H42.6114L42.8277 348.945H43.0428L43.2576 348.73H43.4739V348.514H43.6891L43.9043 348.298H44.1201H44.3353V348.082H44.5509H44.7664L44.9816 347.866H45.1971H45.4126V347.651H45.6282H45.8433L46.0589 347.436H46.2744H46.4896L46.7055 347.219H46.921H47.1362H47.3521L47.5672 347.004H47.7824H47.9983H48.2135H48.429V346.789H48.6446H48.8597H49.0753H49.2908H49.506H49.7215H49.9374H50.1526H50.3677V346.572H50.5837H50.7992H51.0143H51.2299H51.4454H51.6606H51.8765H52.0916L52.3068 346.789H52.5227H52.7379H52.9534H53.169H53.3842H53.5997H53.8156H54.0304V347.004H54.2459H54.4618H54.6774H54.8925H55.1081V347.219H55.3236H55.5388H55.7543L55.9698 347.436H56.185H56.4009H56.6161V347.651H56.8313H57.0471H57.2623V347.866H57.4778H57.6938L57.9089 348.082H58.1241L58.34 348.298H58.5552L58.7707 348.514H58.9862V348.73H59.2018L59.4169 348.945H59.6325V349.161H59.848V349.377H60.0632V349.593H60.2787V349.808H60.4942V350.024H60.7094V350.24H60.9253V350.455H61.1405V350.671V350.886H61.3557V351.102H61.5719V351.318V351.533H61.7871V351.749V351.965H62.0023V352.18V352.396H62.2182V352.612V352.828V353.043H62.4333V353.259V353.475V353.69V353.906H62.6489V354.122V354.337V354.553V354.769V354.984V355.2V355.416V355.631V355.848V356.063V356.278V356.495V356.71V356.926H62.4333V357.142V357.357V357.573V357.789H62.2182V358.004V358.22V358.436H62.0023V358.652V358.867H61.7871V359.083V359.298H61.5719V359.514V359.73H61.3557V359.945H61.1405V360.161V360.377H60.9253V360.593H60.7094V360.808H60.4942V361.024H60.2787V361.24H60.0632V361.455H59.848V361.671H59.6325V361.887H59.4169L59.2018 362.102H58.9862V362.318H58.7707L58.5552 362.534H58.34L58.1241 362.749H57.9089L57.6938 362.965H57.4778H57.2623V363.181H57.0471H56.8313L56.6161 363.396H56.4009H56.185L55.9698 363.613H55.7543H55.5388H55.3236L55.1081 363.828H54.8925H54.6774H54.4618H54.2459L54.0304 364.043H53.8156H53.5997H53.3842H53.169H52.9534H52.7379H52.5227H52.3068V364.26H52.0916H51.8765H51.6606H51.4454H51.2299H51.0143H50.7992H50.5837H50.3677L50.1526 364.043H49.9374H49.7215H49.506H49.2908H49.0753H48.8597H48.6446H48.429V363.828H48.2135H47.9983H47.7824H47.5672L47.3521 363.613H47.1362H46.921H46.7055L46.4896 363.396H46.2744H46.0589L45.8433 363.181H45.6282H45.4126V362.965H45.1971H44.9816L44.7664 362.749H44.5509H44.3353L44.1201 362.534H43.9043L43.6891 362.318H43.4739V362.102H43.2576L43.0428 361.887H42.8277L42.6114 361.671H42.3962V361.455H42.1807H41.9652V361.24H41.75" stroke="black" stroke-width="0.177385" stroke-miterlimit="10" stroke-linecap="round" stroke-linejoin="round"/>
<path d="M29.9003 345.709H30.1155H30.3306V345.493H30.5466H30.7617L30.9773 345.277H31.1932H31.408V345.061H31.6235H31.8394L32.055 344.846H32.2701H32.4856H32.7012V344.63H32.9163H33.1319H33.3474H33.5626V344.414H33.7785H33.9937H34.2088H34.4247H34.6399H34.855V344.199H35.0713H35.2861H35.5017H35.7176H35.9328H36.1483H36.3638H36.5794H36.7945H37.01H37.2256L37.4407 344.414H37.6563H37.8718V344.63H38.087L38.3029 344.846H38.5181V345.061H38.7332V345.277V345.493H38.9495V345.709H39.1646V345.924V346.14V346.356V346.571H39.3798V346.787V347.003V347.218H39.1646V347.434" stroke="black" stroke-width="0.177385" stroke-miterlimit="10" stroke-linecap="round" stroke-linejoin="round"/>
<path d="M39.1646 347.436V347.651V347.866V348.083V348.298L38.9495 348.514V348.73V348.945V349.161V349.377V349.593L38.7332 349.808V350.024V350.24V350.455V350.671V350.887V351.102V351.318V351.533L38.5181 351.749V351.965V352.18V352.396V352.612V352.828V353.043V353.259V353.475V353.691V353.906V354.122V354.337V354.553V354.769V354.984V355.2V355.416V355.631V355.848V356.063V356.278V356.495V356.71V356.926V357.142V357.357V357.573V357.789V358.004V358.22V358.436V358.652V358.867V359.083V359.299H38.7332V359.514V359.73V359.945V360.161V360.377V360.593V360.808V361.024L38.9495 361.24V361.455V361.671V361.887V362.103V362.318L39.1646 362.534V362.749V362.965V363.181V363.396V363.613H39.3798V363.828V364.043V364.26H39.1646V364.475V364.691V364.907V365.122H38.9495V365.338H38.7332V365.554V365.769H38.5181V365.985H38.3029V366.201H38.087H37.8718V366.416H37.6563H37.4407L37.2256 366.632H37.01H36.7945H36.5794H36.3638H36.1483H35.9328H35.7176H35.5017H35.2861H35.0713H34.855V366.416H34.6399H34.4247H34.2088H33.9937H33.7785H33.5626V366.201H33.3474H33.1319H32.9163H32.7012V365.985H32.4856H32.2701H32.055L31.8394 365.769H31.6235H31.408V365.554H31.1932H30.9773L30.7617 365.338H30.5466H30.3306V365.122H30.1155H29.9003" stroke="black" stroke-width="0.177385" stroke-miterlimit="10" stroke-linecap="round" stroke-linejoin="round"/>
<path d="M58.3394 347.867H58.5546H58.7701V348.083H58.9857L59.2012 348.298H59.4164V348.514H59.6319L59.8474 348.73H60.0626V348.946H60.2782V349.161H60.4937V349.377H60.7089V349.593H60.9248V349.808H61.14V350.024L61.3551 350.24V350.455H61.5714V350.671H61.7866V350.887V351.102H62.0017V351.318V351.534H62.2177V351.749L62.4328 351.965V352.181V352.396H62.6484V352.613V352.828V353.044H62.8639V353.26V353.475V353.691V353.907L63.0791 354.122V354.338V354.554V354.769V354.985V355.201V355.416V355.632V355.848V356.063V356.279V356.495V356.711V356.926H62.8639V357.142V357.358V357.573V357.789H62.6484V358.005V358.22V358.436H62.4328V358.652V358.867L62.2177 359.083V359.299H62.0017V359.514V359.73H61.7866V359.946V360.161H61.5714V360.378L61.3551 360.593L61.14 360.809V361.025H60.9248V361.24H60.7089V361.456H60.4937V361.672H60.2782V361.887H60.0626V362.103H59.8474L59.6319 362.319H59.4164V362.534H59.2012L58.9857 362.75H58.7701V362.966H58.5546H58.3394" stroke="black" stroke-width="0.177385" stroke-miterlimit="10" stroke-linecap="round" stroke-linejoin="round"/>
<path d="M11.802 322.846V312.708" stroke="black" stroke-width="0.177385" stroke-miterlimit="10" stroke-linecap="round" stroke-linejoin="round"/>
<path d="M15.8959 327.592H18.0505" stroke="black" stroke-width="0.177385" stroke-miterlimit="10" stroke-linecap="round" stroke-linejoin="round"/>
<path d="M15.8959 307.748H18.0505" stroke="black" stroke-width="0.177385" stroke-miterlimit="10" stroke-linecap="round" stroke-linejoin="round"/>
<path d="M22.7897 310.335L23.0052 310.551V310.767L23.2204 310.982V311.199H23.4359V311.414V311.629L23.6515 311.846V312.061L23.8667 312.277V312.493V312.708L24.0825 312.924V313.14V313.355H24.2981V313.571V313.787V314.002H24.5129V314.218V314.434V314.649V314.865L24.7292 315.081V315.297V315.512V315.728V315.944V316.159V316.375L24.9443 316.591V316.806V317.022V317.238V317.453V317.669V317.885V318.1V318.316V318.532V318.747V318.963H24.7292V319.179V319.394V319.611V319.826V320.042V320.258V320.473H24.5129V320.688V320.905V321.12V321.336L24.2981 321.552V321.767V321.983H24.0825V322.199V322.414V322.63H23.8667V322.846V323.062V323.277H23.6515V323.493V323.709H23.4359V323.924V324.14H23.2204V324.356V324.571H23.0052V324.787V325.003H22.7897V325.218H22.5742V325.434V325.65H22.3586V325.865H22.1435V326.081H21.9279V326.296H21.7124V326.512H21.4972L21.2813 326.728H21.0661V326.944H20.851H20.6347V327.16H20.4199H20.2047V327.375H19.9885H19.7733H19.5577V327.591H19.3422H19.1271H18.9115H18.696H18.4808H18.2653H18.0497" stroke="black" stroke-width="0.177385" stroke-miterlimit="10" stroke-linecap="round" stroke-linejoin="round"/>
<path d="M15.8954 327.591H15.6802H15.4643H15.2491H15.0336H14.8181V327.375H14.6029H14.3873H14.1718V327.159H13.9566V326.944H13.7411L13.5256 326.728H13.31V326.512H13.0949V326.296H12.879V326.081L12.6634 325.865V325.649H12.4486V325.434V325.218H12.2324V325.002V324.787L12.0172 324.571V324.355V324.14V323.924H11.802V323.708V323.493V323.277V323.061V322.846" stroke="black" stroke-width="0.177385" stroke-miterlimit="10" stroke-linecap="round" stroke-linejoin="round"/>
<path d="M18.0497 307.748H18.2653H18.4808H18.696H18.9115H19.1271V307.964H19.3422H19.5577H19.7733H19.9885V308.179H20.2047H20.4199L20.6347 308.395H20.851V308.611H21.0661H21.2813V308.826H21.4972V309.042H21.7124L21.9279 309.258L22.1434 309.473L22.3586 309.689L22.5742 309.905V310.12H22.7897V310.336" stroke="black" stroke-width="0.177385" stroke-miterlimit="10" stroke-linecap="round" stroke-linejoin="round"/>
<path d="M11.802 312.709V312.493V312.277V312.062V311.846V311.63V311.414H12.0172V311.199V310.983V310.767H12.2324V310.552V310.336L12.4486 310.12V309.905H12.6634V309.689V309.473H12.879V309.258H13.0949V309.042H13.31V308.826H13.5256V308.611H13.7411V308.395H13.9566L14.1718 308.179H14.3873V307.964H14.6029H14.8181H15.0336V307.748H15.2491H15.4643H15.6802H15.8954" stroke="black" stroke-width="0.177385" stroke-miterlimit="10" stroke-linecap="round" stroke-linejoin="round"/>
<path d="M10.0784 316.375L12.2322 316.591" stroke="black" stroke-width="0.177385" stroke-miterlimit="10" stroke-linecap="round" stroke-linejoin="round"/>
<path d="M12.6506 316.745C12.5189 316.66 12.369 316.609 12.2128 316.594" stroke="black" stroke-width="0.177385" stroke-miterlimit="10" stroke-linecap="round" stroke-linejoin="round"/>
<path d="M12.6642 316.806L15.2499 317.238" stroke="black" stroke-width="0.177385" stroke-miterlimit="10" stroke-linecap="round" stroke-linejoin="round"/>
<path d="M15.4249 318.096C15.6942 318.062 15.896 317.833 15.896 317.561C15.896 317.288 15.6942 317.059 15.4241 317.026" stroke="black" stroke-width="0.177385" stroke-miterlimit="10" stroke-linecap="round" stroke-linejoin="round"/>
<path d="M15.2499 318.316L12.6642 318.532" stroke="black" stroke-width="0.177385" stroke-miterlimit="10" stroke-linecap="round" stroke-linejoin="round"/>
<path d="M12.2146 318.528C12.37 318.514 12.5203 318.462 12.6516 318.377" stroke="black" stroke-width="0.177385" stroke-miterlimit="10" stroke-linecap="round" stroke-linejoin="round"/>
<path d="M12.2322 318.747L10.0784 318.963" stroke="black" stroke-width="0.177385" stroke-miterlimit="10" stroke-linecap="round" stroke-linejoin="round"/>
<path d="M10.1853 316.375C9.53056 316.375 8.99969 316.906 8.99969 317.561C8.99969 318.217 9.53056 318.748 10.1853 318.748" stroke="black" stroke-width="0.177385" stroke-miterlimit="10" stroke-linecap="round" stroke-linejoin="round"/>
<path d="M11.3709 318.316H12.0171" stroke="black" stroke-width="0.177385" stroke-miterlimit="10" stroke-linecap="round" stroke-linejoin="round"/>
<path d="M12.0171 317.023H11.3709V318.317" stroke="black" stroke-width="0.177385" stroke-miterlimit="10" stroke-linecap="round" stroke-linejoin="round"/>
<path d="M12.1262 318.316C12.5425 318.316 12.88 317.978 12.88 317.561C12.88 317.145 12.5428 316.806 12.1262 316.806" stroke="black" stroke-width="0.177385" stroke-miterlimit="10" stroke-linecap="round" stroke-linejoin="round"/>
<path d="M12.6492 318.379C12.9264 318.2 13.0941 317.893 13.0941 317.563C13.0941 317.232 12.9264 316.925 12.6492 316.746" stroke="black" stroke-width="0.177385" stroke-miterlimit="10" stroke-linecap="round" stroke-linejoin="round"/>
<path d="M7.70898 330.446V304.994H18.051L19.559 305.21L21.0674 305.426L22.3598 306.073L23.6527 306.935L24.7304 307.798L25.5918 309.092L26.8842 311.896L27.746 314.7L27.9619 317.72L27.746 320.74L26.8842 323.759L25.5918 326.563L24.7304 327.642L23.6527 328.505L22.3598 329.367L21.0674 330.014L19.559 330.446H18.051H7.70898Z" stroke="black" stroke-width="0.177385" stroke-miterlimit="10" stroke-linecap="round" stroke-linejoin="round"/>
<path d="M76.0071 101.113L44.3359 82.7792" stroke="black" stroke-width="0.236548" stroke-miterlimit="10" stroke-linecap="round" stroke-linejoin="round"/>
<path d="M144.089 117.721L152.276 107.798L146.674 111.034" stroke="black" stroke-width="0.177385" stroke-miterlimit="10" stroke-linecap="round" stroke-linejoin="round"/>
<path d="M152.276 107.798L150.337 114.054" stroke="black" stroke-width="0.177385" stroke-miterlimit="10" stroke-linecap="round" stroke-linejoin="round"/>
<path d="M143.013 127.643L150.984 117.721H144.09" stroke="black" stroke-width="0.177385" stroke-miterlimit="10" stroke-linecap="round" stroke-linejoin="round"/>
<path d="M132.886 102.191H163.264V132.82H132.886V102.191Z" stroke="black" stroke-width="0.177385" stroke-miterlimit="10" stroke-linecap="round" stroke-linejoin="round"/>
<path d="M163.266 265.472L128.148 245.197" stroke="black" stroke-width="0.236548" stroke-miterlimit="10" stroke-linecap="round" stroke-linejoin="round"/>
<path d="M8.57123 333.199L11.372 330.395" stroke="black" stroke-width="0.118325" stroke-miterlimit="10" stroke-linecap="round" stroke-linejoin="round"/>
<path d="M8.57123 340.101L11.5872 336.865" stroke="black" stroke-width="0.118325" stroke-miterlimit="10" stroke-linecap="round" stroke-linejoin="round"/>
<path d="M16.1115 332.552L18.2664 330.395" stroke="black" stroke-width="0.118325" stroke-miterlimit="10" stroke-linecap="round" stroke-linejoin="round"/>
<path d="M8.57123 346.788L11.5872 343.768" stroke="black" stroke-width="0.118325" stroke-miterlimit="10" stroke-linecap="round" stroke-linejoin="round"/>
<path d="M23.0059 332.552L24.945 330.395" stroke="black" stroke-width="0.118325" stroke-miterlimit="10" stroke-linecap="round" stroke-linejoin="round"/>
<path d="M14.3861 341.18L16.3256 339.023" stroke="black" stroke-width="0.118325" stroke-miterlimit="10" stroke-linecap="round" stroke-linejoin="round"/>
<path d="M8.57123 353.691L11.5872 350.671" stroke="black" stroke-width="0.118325" stroke-miterlimit="10" stroke-linecap="round" stroke-linejoin="round"/>
<path d="M26.8833 335.357L29.9002 332.337" stroke="black" stroke-width="0.118325" stroke-miterlimit="10" stroke-linecap="round" stroke-linejoin="round"/>
<path d="M21.2814 341.18L23.2205 339.023" stroke="black" stroke-width="0.118325" stroke-miterlimit="10" stroke-linecap="round" stroke-linejoin="round"/>
<path d="M8.57123 360.593L11.5872 357.573" stroke="black" stroke-width="0.118325" stroke-miterlimit="10" stroke-linecap="round" stroke-linejoin="round"/>
<path d="M26.8833 342.257L29.9002 339.237" stroke="black" stroke-width="0.118325" stroke-miterlimit="10" stroke-linecap="round" stroke-linejoin="round"/>
<path d="M8.57123 367.494L11.5872 364.474" stroke="black" stroke-width="0.118325" stroke-miterlimit="10" stroke-linecap="round" stroke-linejoin="round"/>
<path d="M26.8833 349.16L29.9002 346.14" stroke="black" stroke-width="0.118325" stroke-miterlimit="10" stroke-linecap="round" stroke-linejoin="round"/>
<path d="M8.57123 374.396L13.3112 369.651" stroke="black" stroke-width="0.118325" stroke-miterlimit="10" stroke-linecap="round" stroke-linejoin="round"/>
<path d="M26.8833 356.062L29.9002 352.826" stroke="black" stroke-width="0.118325" stroke-miterlimit="10" stroke-linecap="round" stroke-linejoin="round"/>
<path d="M9.43082 380.436L11.5847 378.063" stroke="black" stroke-width="0.118325" stroke-miterlimit="10" stroke-linecap="round" stroke-linejoin="round"/>
<path d="M26.8833 362.748L29.9002 359.729" stroke="black" stroke-width="0.118325" stroke-miterlimit="10" stroke-linecap="round" stroke-linejoin="round"/>
<path d="M18.0497 371.807L20.2048 369.651" stroke="black" stroke-width="0.118325" stroke-miterlimit="10" stroke-linecap="round" stroke-linejoin="round"/>
<path d="M16.327 380.437L18.2657 378.279" stroke="black" stroke-width="0.118325" stroke-miterlimit="10" stroke-linecap="round" stroke-linejoin="round"/>
<path d="M24.9442 371.809L29.8996 366.632" stroke="black" stroke-width="0.118325" stroke-miterlimit="10" stroke-linecap="round" stroke-linejoin="round"/>
<path d="M23.2197 380.437L25.1587 378.279" stroke="black" stroke-width="0.118325" stroke-miterlimit="10" stroke-linecap="round" stroke-linejoin="round"/>
<path d="M26.8833 376.553L29.9002 373.533" stroke="black" stroke-width="0.118325" stroke-miterlimit="10" stroke-linecap="round" stroke-linejoin="round"/>
<path d="M8.57123 336.651L9.43333 335.788" stroke="black" stroke-width="0.118325" stroke-miterlimit="10" stroke-linecap="round" stroke-linejoin="round"/>
<path d="M10.2935 334.924H10.5087C10.5087 334.805 10.4122 334.709 10.2935 334.709C10.1752 334.709 10.0784 334.805 10.0784 334.924C10.0784 335.042 10.1752 335.139 10.2935 335.139C10.4122 335.139 10.5087 335.042 10.5087 334.924H10.2935Z" fill="black"/>
<path d="M11.1571 334.061L11.5874 333.629" stroke="black" stroke-width="0.118325" stroke-miterlimit="10" stroke-linecap="round" stroke-linejoin="round"/>
<path d="M12.6642 332.552L14.8189 330.395" stroke="black" stroke-width="0.118325" stroke-miterlimit="10" stroke-linecap="round" stroke-linejoin="round"/>
<path d="M8.57123 343.551L12.8801 339.237" stroke="black" stroke-width="0.118325" stroke-miterlimit="10" stroke-linecap="round" stroke-linejoin="round"/>
<path d="M19.7747 332.336H19.9899C19.9899 332.218 19.893 332.121 19.7747 332.121C19.656 332.121 19.5595 332.218 19.5595 332.336C19.5595 332.455 19.656 332.552 19.7747 332.552C19.893 332.552 19.9899 332.455 19.9899 332.336H19.7747Z" fill="black"/>
<path d="M20.6338 331.474L21.7115 330.395" stroke="black" stroke-width="0.118325" stroke-miterlimit="10" stroke-linecap="round" stroke-linejoin="round"/>
<path d="M8.57123 350.238L10.2947 348.728" stroke="black" stroke-width="0.118325" stroke-miterlimit="10" stroke-linecap="round" stroke-linejoin="round"/>
<path d="M11.1567 347.867H11.3715C11.3715 347.748 11.275 347.651 11.1567 347.651C11.0379 347.651 10.9415 347.748 10.9415 347.867C10.9415 347.985 11.0379 348.082 11.1567 348.082C11.275 348.082 11.3715 347.985 11.3715 347.867H11.1567Z" fill="black"/>
<path d="M26.4513 332.552L28.3904 330.611" stroke="black" stroke-width="0.118325" stroke-miterlimit="10" stroke-linecap="round" stroke-linejoin="round"/>
<path d="M18.0497 340.965L19.7733 339.023" stroke="black" stroke-width="0.118325" stroke-miterlimit="10" stroke-linecap="round" stroke-linejoin="round"/>
<path d="M9.43082 356.279L11.5847 354.122" stroke="black" stroke-width="0.118325" stroke-miterlimit="10" stroke-linecap="round" stroke-linejoin="round"/>
<path d="M27.53 338.377L29.9002 335.788" stroke="black" stroke-width="0.118325" stroke-miterlimit="10" stroke-linecap="round" stroke-linejoin="round"/>
<path d="M24.7304 341.18L25.8069 340.101" stroke="black" stroke-width="0.118325" stroke-miterlimit="10" stroke-linecap="round" stroke-linejoin="round"/>
<path d="M26.6691 339.239H26.8843C26.8843 339.12 26.7875 339.023 26.6691 339.023C26.5504 339.023 26.454 339.12 26.454 339.239C26.454 339.357 26.5504 339.454 26.6691 339.454C26.7875 339.454 26.8843 339.357 26.8843 339.239H26.6691Z" fill="black"/>
<path d="M8.57123 364.043L11.1569 361.455" stroke="black" stroke-width="0.118325" stroke-miterlimit="10" stroke-linecap="round" stroke-linejoin="round"/>
<path d="M26.8833 345.711L29.2539 343.554" stroke="black" stroke-width="0.118325" stroke-miterlimit="10" stroke-linecap="round" stroke-linejoin="round"/>
<path d="M9.43394 370.082H9.64914C9.64914 369.963 9.55229 369.866 9.43394 369.866C9.31523 369.866 9.21878 369.963 9.21878 370.082C9.21878 370.201 9.31523 370.297 9.43394 370.297C9.55229 370.297 9.64914 370.201 9.64914 370.082H9.43394Z" fill="black"/>
<path d="M10.2948 369.22L11.5872 367.925" stroke="black" stroke-width="0.118325" stroke-miterlimit="10" stroke-linecap="round" stroke-linejoin="round"/>
<path d="M27.5296 352.179H27.7448C27.7448 352.06 27.648 351.963 27.5296 351.963C27.4109 351.963 27.3145 352.06 27.3145 352.179C27.3145 352.298 27.4109 352.394 27.5296 352.394C27.648 352.394 27.7448 352.298 27.7448 352.179H27.5296Z" fill="black"/>
<path d="M28.3923 351.317L29.9007 349.591" stroke="black" stroke-width="0.118325" stroke-miterlimit="10" stroke-linecap="round" stroke-linejoin="round"/>
<path d="M8.57123 377.847L11.5872 374.611" stroke="black" stroke-width="0.118325" stroke-miterlimit="10" stroke-linecap="round" stroke-linejoin="round"/>
<path d="M26.8833 359.513L29.9002 356.277" stroke="black" stroke-width="0.118325" stroke-miterlimit="10" stroke-linecap="round" stroke-linejoin="round"/>
<path d="M14.6025 371.807L16.7564 369.651" stroke="black" stroke-width="0.118325" stroke-miterlimit="10" stroke-linecap="round" stroke-linejoin="round"/>
<path d="M12.878 380.437L14.8171 378.279" stroke="black" stroke-width="0.118325" stroke-miterlimit="10" stroke-linecap="round" stroke-linejoin="round"/>
<path d="M26.8833 366.2L27.5299 365.769" stroke="black" stroke-width="0.118325" stroke-miterlimit="10" stroke-linecap="round" stroke-linejoin="round"/>
<path d="M28.3936 364.907H28.6088C28.6088 364.788 28.512 364.692 28.3936 364.692C28.2749 364.692 28.1785 364.788 28.1785 364.907C28.1785 365.026 28.2749 365.123 28.3936 365.123C28.512 365.123 28.6088 365.026 28.6088 364.907H28.3936Z" fill="black"/>
<path d="M29.2536 364.044L29.8999 363.181" stroke="black" stroke-width="0.118325" stroke-miterlimit="10" stroke-linecap="round" stroke-linejoin="round"/>
<path d="M22.3597 370.946H22.5748C22.5748 370.827 22.4784 370.73 22.3597 370.73C22.2413 370.73 22.1445 370.827 22.1445 370.946C22.1445 371.065 22.2413 371.161 22.3597 371.161C22.4784 371.161 22.5748 371.065 22.5748 370.946H22.3597Z" fill="black"/>
<path d="M23.2197 370.082L23.6507 369.651" stroke="black" stroke-width="0.118325" stroke-miterlimit="10" stroke-linecap="round" stroke-linejoin="round"/>
<path d="M19.7747 380.437H19.9899C19.9899 380.318 19.893 380.221 19.7747 380.221C19.656 380.221 19.5595 380.318 19.5595 380.437C19.5595 380.555 19.656 380.652 19.7747 380.652C19.893 380.652 19.9899 380.555 19.9899 380.437H19.7747Z" fill="black"/>
<path d="M20.6338 379.574L21.7115 378.279" stroke="black" stroke-width="0.118325" stroke-miterlimit="10" stroke-linecap="round" stroke-linejoin="round"/>
<path d="M26.8833 373.102L29.9002 370.083" stroke="black" stroke-width="0.118325" stroke-miterlimit="10" stroke-linecap="round" stroke-linejoin="round"/>
<path d="M26.6687 380.435L28.3922 378.709" stroke="black" stroke-width="0.118325" stroke-miterlimit="10" stroke-linecap="round" stroke-linejoin="round"/>
<path d="M29.2559 377.848H29.4711C29.4711 377.73 29.3746 377.633 29.2559 377.633C29.1375 377.633 29.0407 377.73 29.0407 377.848C29.0407 377.967 29.1375 378.063 29.2559 378.063C29.3746 378.063 29.4711 377.967 29.4711 377.848H29.2559Z" fill="black"/>
<path d="M8.57123 380.436V330.395H29.9012V380.436H8.57123Z" stroke="black" stroke-width="0.236548" stroke-miterlimit="10" stroke-linecap="round" stroke-linejoin="round"/>
<path d="M11.5873 369.651V341.179H26.8844V369.651H11.5873Z" stroke="black" stroke-width="0.236548" stroke-miterlimit="10" stroke-linecap="round" stroke-linejoin="round"/>
<path d="M11.5873 339.024V332.553H26.8844V339.024H11.5873Z" stroke="black" stroke-width="0.236548" stroke-miterlimit="10" stroke-linecap="round" stroke-linejoin="round"/>
<path d="M26.8844 371.807V378.278H11.5873V371.807H26.8844Z" stroke="black" stroke-width="0.236548" stroke-miterlimit="10" stroke-linecap="round" stroke-linejoin="round"/>
<path d="M8.57123 222.117L11.372 219.313" stroke="black" stroke-width="0.118325" stroke-miterlimit="10" stroke-linecap="round" stroke-linejoin="round"/>
<path d="M8.57123 229.019L11.5872 225.784" stroke="black" stroke-width="0.118325" stroke-miterlimit="10" stroke-linecap="round" stroke-linejoin="round"/>
<path d="M16.1115 221.47L18.2664 219.313" stroke="black" stroke-width="0.118325" stroke-miterlimit="10" stroke-linecap="round" stroke-linejoin="round"/>
<path d="M8.57123 235.708L11.5872 232.688" stroke="black" stroke-width="0.118325" stroke-miterlimit="10" stroke-linecap="round" stroke-linejoin="round"/>
<path d="M23.0059 221.47L24.945 219.313" stroke="black" stroke-width="0.118325" stroke-miterlimit="10" stroke-linecap="round" stroke-linejoin="round"/>
<path d="M14.3861 230.096L16.3256 227.939" stroke="black" stroke-width="0.118325" stroke-miterlimit="10" stroke-linecap="round" stroke-linejoin="round"/>
<path d="M8.57123 242.607L11.5872 239.587" stroke="black" stroke-width="0.118325" stroke-miterlimit="10" stroke-linecap="round" stroke-linejoin="round"/>
<path d="M26.8833 224.273L29.9002 221.254" stroke="black" stroke-width="0.118325" stroke-miterlimit="10" stroke-linecap="round" stroke-linejoin="round"/>
<path d="M21.2814 230.096L23.2205 227.939" stroke="black" stroke-width="0.118325" stroke-miterlimit="10" stroke-linecap="round" stroke-linejoin="round"/>
<path d="M8.57123 249.51L11.5872 246.49" stroke="black" stroke-width="0.118325" stroke-miterlimit="10" stroke-linecap="round" stroke-linejoin="round"/>
<path d="M26.8833 231.175L29.9002 228.155" stroke="black" stroke-width="0.118325" stroke-miterlimit="10" stroke-linecap="round" stroke-linejoin="round"/>
<path d="M8.57123 256.412L11.5872 253.392" stroke="black" stroke-width="0.118325" stroke-miterlimit="10" stroke-linecap="round" stroke-linejoin="round"/>
<path d="M26.8833 238.079L29.9002 235.059" stroke="black" stroke-width="0.118325" stroke-miterlimit="10" stroke-linecap="round" stroke-linejoin="round"/>
<path d="M8.57123 263.316L13.3112 258.57" stroke="black" stroke-width="0.118325" stroke-miterlimit="10" stroke-linecap="round" stroke-linejoin="round"/>
<path d="M26.8833 244.982L29.9002 241.746" stroke="black" stroke-width="0.118325" stroke-miterlimit="10" stroke-linecap="round" stroke-linejoin="round"/>
<path d="M9.43082 269.354L11.5847 266.981" stroke="black" stroke-width="0.118325" stroke-miterlimit="10" stroke-linecap="round" stroke-linejoin="round"/>
<path d="M26.8833 251.666L29.9002 248.647" stroke="black" stroke-width="0.118325" stroke-miterlimit="10" stroke-linecap="round" stroke-linejoin="round"/>
<path d="M18.0497 260.727L20.2048 258.57" stroke="black" stroke-width="0.118325" stroke-miterlimit="10" stroke-linecap="round" stroke-linejoin="round"/>
<path d="M16.327 269.356L18.2657 267.199" stroke="black" stroke-width="0.118325" stroke-miterlimit="10" stroke-linecap="round" stroke-linejoin="round"/>
<path d="M24.9442 260.725L29.8996 255.548" stroke="black" stroke-width="0.118325" stroke-miterlimit="10" stroke-linecap="round" stroke-linejoin="round"/>
<path d="M23.2197 269.356L25.1587 267.199" stroke="black" stroke-width="0.118325" stroke-miterlimit="10" stroke-linecap="round" stroke-linejoin="round"/>
<path d="M26.8833 265.472L29.9002 262.452" stroke="black" stroke-width="0.118325" stroke-miterlimit="10" stroke-linecap="round" stroke-linejoin="round"/>
<path d="M8.57123 225.567L9.43333 224.704" stroke="black" stroke-width="0.118325" stroke-miterlimit="10" stroke-linecap="round" stroke-linejoin="round"/>
<path d="M10.2935 223.845H10.5087C10.5087 223.726 10.4122 223.629 10.2935 223.629C10.1752 223.629 10.0784 223.726 10.0784 223.845C10.0784 223.963 10.1752 224.06 10.2935 224.06C10.4122 224.06 10.5087 223.963 10.5087 223.845H10.2935Z" fill="black"/>
<path d="M11.1571 222.98L11.5874 222.333" stroke="black" stroke-width="0.118325" stroke-miterlimit="10" stroke-linecap="round" stroke-linejoin="round"/>
<path d="M12.6642 221.47L14.8189 219.313" stroke="black" stroke-width="0.118325" stroke-miterlimit="10" stroke-linecap="round" stroke-linejoin="round"/>
<path d="M8.57123 232.253L12.8801 228.155" stroke="black" stroke-width="0.118325" stroke-miterlimit="10" stroke-linecap="round" stroke-linejoin="round"/>
<path d="M19.7747 221.255H19.9899C19.9899 221.136 19.893 221.04 19.7747 221.04C19.656 221.04 19.5595 221.136 19.5595 221.255C19.5595 221.374 19.656 221.47 19.7747 221.47C19.893 221.47 19.9899 221.374 19.9899 221.255H19.7747Z" fill="black"/>
<path d="M20.6338 220.392L21.7115 219.313" stroke="black" stroke-width="0.118325" stroke-miterlimit="10" stroke-linecap="round" stroke-linejoin="round"/>
<path d="M8.57123 239.157L10.2947 237.648" stroke="black" stroke-width="0.118325" stroke-miterlimit="10" stroke-linecap="round" stroke-linejoin="round"/>
<path d="M11.1567 236.784H11.3715C11.3715 236.665 11.275 236.568 11.1567 236.568C11.0379 236.568 10.9415 236.665 10.9415 236.784C10.9415 236.902 11.0379 236.999 11.1567 236.999C11.275 236.999 11.3715 236.902 11.3715 236.784H11.1567Z" fill="black"/>
<path d="M26.4513 221.47L28.3904 219.529" stroke="black" stroke-width="0.118325" stroke-miterlimit="10" stroke-linecap="round" stroke-linejoin="round"/>
<path d="M18.0497 229.881L19.7733 227.939" stroke="black" stroke-width="0.118325" stroke-miterlimit="10" stroke-linecap="round" stroke-linejoin="round"/>
<path d="M9.43082 245.195L11.5847 243.038" stroke="black" stroke-width="0.118325" stroke-miterlimit="10" stroke-linecap="round" stroke-linejoin="round"/>
<path d="M27.53 227.292L29.9002 224.704" stroke="black" stroke-width="0.118325" stroke-miterlimit="10" stroke-linecap="round" stroke-linejoin="round"/>
<path d="M24.7304 230.097L25.8069 229.019" stroke="black" stroke-width="0.118325" stroke-miterlimit="10" stroke-linecap="round" stroke-linejoin="round"/>
<path d="M26.6691 228.155H26.8843C26.8843 228.036 26.7875 227.939 26.6691 227.939C26.5504 227.939 26.454 228.036 26.454 228.155C26.454 228.274 26.5504 228.37 26.6691 228.37C26.7875 228.37 26.8843 228.274 26.8843 228.155H26.6691Z" fill="black"/>
<path d="M8.57123 252.961L11.1569 250.373" stroke="black" stroke-width="0.118325" stroke-miterlimit="10" stroke-linecap="round" stroke-linejoin="round"/>
<path d="M26.8833 234.628L29.2539 232.472" stroke="black" stroke-width="0.118325" stroke-miterlimit="10" stroke-linecap="round" stroke-linejoin="round"/>
<path d="M9.43394 259.002H9.64914C9.64914 258.883 9.55229 258.787 9.43394 258.787C9.31523 258.787 9.21878 258.883 9.21878 259.002C9.21878 259.121 9.31523 259.217 9.43394 259.217C9.55229 259.217 9.64914 259.121 9.64914 259.002H9.43394Z" fill="black"/>
<path d="M10.2948 258.138L11.5872 256.844" stroke="black" stroke-width="0.118325" stroke-miterlimit="10" stroke-linecap="round" stroke-linejoin="round"/>
<path d="M27.5296 240.882H27.7448C27.7448 240.763 27.648 240.666 27.5296 240.666C27.4109 240.666 27.3145 240.763 27.3145 240.882C27.3145 241 27.4109 241.097 27.5296 241.097C27.648 241.097 27.7448 241 27.7448 240.882H27.5296Z" fill="black"/>
<path d="M28.3923 240.235L29.9007 238.51" stroke="black" stroke-width="0.118325" stroke-miterlimit="10" stroke-linecap="round" stroke-linejoin="round"/>
<path d="M8.57123 266.766L11.5872 263.53" stroke="black" stroke-width="0.118325" stroke-miterlimit="10" stroke-linecap="round" stroke-linejoin="round"/>
<path d="M26.8833 248.432L29.9002 245.197" stroke="black" stroke-width="0.118325" stroke-miterlimit="10" stroke-linecap="round" stroke-linejoin="round"/>
<path d="M14.6025 260.727L16.7564 258.57" stroke="black" stroke-width="0.118325" stroke-miterlimit="10" stroke-linecap="round" stroke-linejoin="round"/>
<path d="M12.878 269.356L14.8171 267.199" stroke="black" stroke-width="0.118325" stroke-miterlimit="10" stroke-linecap="round" stroke-linejoin="round"/>
<path d="M26.8833 255.118L27.5299 254.687" stroke="black" stroke-width="0.118325" stroke-miterlimit="10" stroke-linecap="round" stroke-linejoin="round"/>
<path d="M28.3936 253.825H28.6088C28.6088 253.707 28.512 253.61 28.3936 253.61C28.2749 253.61 28.1785 253.707 28.1785 253.825C28.1785 253.944 28.2749 254.041 28.3936 254.041C28.512 254.041 28.6088 253.944 28.6088 253.825H28.3936Z" fill="black"/>
<path d="M29.2536 252.96L29.8999 252.096" stroke="black" stroke-width="0.118325" stroke-miterlimit="10" stroke-linecap="round" stroke-linejoin="round"/>
<path d="M22.3597 259.863H22.5748C22.5748 259.744 22.4784 259.647 22.3597 259.647C22.2413 259.647 22.1445 259.744 22.1445 259.863C22.1445 259.981 22.2413 260.078 22.3597 260.078C22.4784 260.078 22.5748 259.981 22.5748 259.863H22.3597Z" fill="black"/>
<path d="M23.2197 259.002L23.6507 258.57" stroke="black" stroke-width="0.118325" stroke-miterlimit="10" stroke-linecap="round" stroke-linejoin="round"/>
<path d="M19.7747 269.354H19.9899C19.9899 269.235 19.893 269.138 19.7747 269.138C19.656 269.138 19.5595 269.235 19.5595 269.354C19.5595 269.472 19.656 269.569 19.7747 269.569C19.893 269.569 19.9899 269.472 19.9899 269.354H19.7747Z" fill="black"/>
<path d="M20.6338 268.493L21.7115 267.199" stroke="black" stroke-width="0.118325" stroke-miterlimit="10" stroke-linecap="round" stroke-linejoin="round"/>
<path d="M26.8833 262.019L29.9002 258.999" stroke="black" stroke-width="0.118325" stroke-miterlimit="10" stroke-linecap="round" stroke-linejoin="round"/>
<path d="M26.6687 269.354L28.3922 267.628" stroke="black" stroke-width="0.118325" stroke-miterlimit="10" stroke-linecap="round" stroke-linejoin="round"/>
<path d="M8.57123 269.354V219.313H29.9012V269.354H8.57123Z" stroke="black" stroke-width="0.236548" stroke-miterlimit="10" stroke-linecap="round" stroke-linejoin="round"/>
<path d="M11.5873 258.568V230.097H26.8844V258.568H11.5873Z" stroke="black" stroke-width="0.236548" stroke-miterlimit="10" stroke-linecap="round" stroke-linejoin="round"/>
<path d="M11.5873 227.941V221.47H26.8844V227.941H11.5873Z" stroke="black" stroke-width="0.236548" stroke-miterlimit="10" stroke-linecap="round" stroke-linejoin="round"/>
<path d="M26.8844 260.726V267.197H11.5873V260.726H26.8844Z" stroke="black" stroke-width="0.236548" stroke-miterlimit="10" stroke-linecap="round" stroke-linejoin="round"/>
<path d="M234.389 101.113L202.718 82.7792" stroke="black" stroke-width="0.236548" stroke-miterlimit="10" stroke-linecap="round" stroke-linejoin="round"/>
<path d="M170.375 361.886L190.843 326.512" stroke="black" stroke-width="0.236548" stroke-miterlimit="10" stroke-linecap="round" stroke-linejoin="round"/>
<path d="M114.573 326.082L96.6908 356.925" stroke="black" stroke-width="0.236548" stroke-miterlimit="10" stroke-linecap="round" stroke-linejoin="round"/>
<path d="M88.826 264.41C88.826 264.582 88.6809 264.723 88.5029 264.723C88.3248 264.723 88.1797 264.582 88.1797 264.41H88.826ZM88.826 234.843V264.41H88.1797V234.843L88.5029 234.53L88.826 234.843ZM88.1797 234.843C88.1797 234.67 88.3248 234.53 88.5029 234.53C88.6809 234.53 88.826 234.67 88.826 234.843H88.1797ZM57.9089 234.53H88.5029V235.155H57.9089L57.5858 234.842L57.9089 234.53V234.53ZM57.9089 235.155C57.7309 235.155 57.5858 235.015 57.5858 234.842C57.5858 234.67 57.7309 234.53 57.9089 234.53V235.154V235.155ZM57.5858 264.41V234.843H58.2321V264.41L57.9089 264.723L57.5858 264.41ZM58.2321 264.41C58.2321 264.582 58.087 264.723 57.9089 264.723C57.7309 264.723 57.5858 264.582 57.5858 264.41H58.2321ZM88.5029 264.723H57.9089V264.098H88.5029V264.723ZM88.5029 264.098C88.6809 264.098 88.826 264.238 88.826 264.411C88.826 264.583 88.6809 264.723 88.5029 264.723V264.099V264.098Z" fill="black"/>
<path d="M38.0877 137.781H7.70898V168.409H38.0877V137.781Z" stroke="black" stroke-width="0.177385" stroke-miterlimit="10" stroke-linecap="round" stroke-linejoin="round"/>
<path d="M15.3557 156.544C13.0353 156.544 11.1544 158.427 11.1544 160.75C11.1544 163.073 13.0353 164.956 15.3557 164.956C17.6762 164.956 19.557 163.073 19.557 160.75C19.557 158.427 17.6762 156.544 15.3557 156.544Z" stroke="black" stroke-width="0.177385" stroke-miterlimit="10" stroke-linecap="round" stroke-linejoin="round"/>
<path d="M29.5775 141.233C27.257 141.233 25.3762 143.115 25.3762 145.439C25.3762 147.762 27.257 149.645 29.5775 149.645C31.8979 149.645 33.7788 147.762 33.7788 145.439C33.7788 143.115 31.8979 141.233 29.5775 141.233Z" stroke="black" stroke-width="0.177385" stroke-miterlimit="10" stroke-linecap="round" stroke-linejoin="round"/>
<path d="M29.5775 156.544C27.257 156.544 25.3762 158.427 25.3762 160.75C25.3762 163.073 27.257 164.956 29.5775 164.956C31.8979 164.956 33.7788 163.073 33.7788 160.75C33.7788 158.427 31.8979 156.544 29.5775 156.544Z" stroke="black" stroke-width="0.177385" stroke-miterlimit="10" stroke-linecap="round" stroke-linejoin="round"/>
<path d="M15.3557 141.233C13.0353 141.233 11.1544 143.115 11.1544 145.439C11.1544 147.762 13.0353 149.645 15.3557 149.645C17.6762 149.645 19.557 147.762 19.557 145.439C19.557 143.115 17.6762 141.233 15.3557 141.233Z" stroke="black" stroke-width="0.177385" stroke-miterlimit="10" stroke-linecap="round" stroke-linejoin="round"/>
<path d="M29.5761 234.843C29.5761 234.67 29.7211 234.53 29.8992 234.53C30.0773 234.53 30.2223 234.67 30.2223 234.843H29.5761ZM29.5761 264.41V234.843H30.2223V264.41L29.8992 264.723L29.5761 264.41ZM30.2223 264.41C30.2223 264.582 30.0773 264.723 29.8992 264.723C29.7211 264.723 29.5761 264.582 29.5761 264.41H30.2223ZM57.9077 264.723H29.8988V264.098H57.9077L58.2308 264.411L57.9077 264.723V264.723ZM57.9077 264.098C58.0858 264.098 58.2308 264.238 58.2308 264.411C58.2308 264.583 58.0858 264.723 57.9077 264.723V264.099V264.098ZM58.2308 234.843V264.41H57.5846V234.843L57.9077 234.53L58.2308 234.843ZM57.5846 234.843C57.5846 234.67 57.7296 234.53 57.9077 234.53C58.0858 234.53 58.2308 234.67 58.2308 234.843H57.5846ZM29.8992 234.53H57.9081V235.155H29.8992V234.53ZM29.8992 235.155C29.7211 235.155 29.5761 235.015 29.5761 234.842C29.5761 234.67 29.7211 234.53 29.8992 234.53V235.154V235.155Z" fill="black"/>
<path d="M37.8717 239.157H50.1524" stroke="black" stroke-width="0.177385" stroke-miterlimit="10" stroke-linecap="round" stroke-linejoin="round"/>
<path d="M54.6775 256.626V243.684" stroke="black" stroke-width="0.177385" stroke-miterlimit="10" stroke-linecap="round" stroke-linejoin="round"/>
<path d="M33.3466 256.626V243.684" stroke="black" stroke-width="0.177385" stroke-miterlimit="10" stroke-linecap="round" stroke-linejoin="round"/>
<path d="M37.979 238.941C35.4208 238.941 33.3466 241.018 33.3466 243.579" stroke="black" stroke-width="0.177385" stroke-miterlimit="10" stroke-linecap="round" stroke-linejoin="round"/>
<path d="M54.8931 243.578C54.8931 241.018 52.819 238.941 50.2611 238.941" stroke="black" stroke-width="0.177385" stroke-miterlimit="10" stroke-linecap="round" stroke-linejoin="round"/>
<path d="M50.3018 261.158C52.8537 261.134 54.9063 259.05 54.8922 256.495" stroke="black" stroke-width="0.177385" stroke-miterlimit="10" stroke-linecap="round" stroke-linejoin="round"/>
<path d="M50.1524 261.157H37.8717" stroke="black" stroke-width="0.177385" stroke-miterlimit="10" stroke-linecap="round" stroke-linejoin="round"/>
<path d="M41.9656 257.923H46.0593" stroke="black" stroke-width="0.177385" stroke-miterlimit="10" stroke-linecap="round" stroke-linejoin="round"/>
<path d="M43.9047 255.548V260.509" stroke="black" stroke-width="0.177385" stroke-miterlimit="10" stroke-linecap="round" stroke-linejoin="round"/>
<path d="M66.5263 251.235L68.0343 249.725L69.7579 248.862L70.62 248.647L71.2663 248.862L72.9895 250.156L74.4982 251.235L75.3596 251.666L76.4373 251.45L77.2991 251.235L78.376 250.588L80.3155 248.647" stroke="black" stroke-width="0.177385" stroke-miterlimit="10" stroke-linecap="round" stroke-linejoin="round"/>
<path d="M66.3125 249.079L68.0361 247.568L69.7596 246.706L70.4059 246.49L71.268 246.706L72.7764 248L74.4999 249.079L75.3613 249.51L76.2231 249.294L77.3008 249.079L78.1622 248.215L80.1013 246.49" stroke="black" stroke-width="0.177385" stroke-miterlimit="10" stroke-linecap="round" stroke-linejoin="round"/>
<path d="M66.5263 253.824L68.0343 252.315L69.7579 251.236H70.62L71.2663 251.451L72.9895 252.53L74.4982 253.824L75.3596 254.04H76.4373L77.2991 253.609L78.376 252.962L80.3155 251.236" stroke="black" stroke-width="0.177385" stroke-miterlimit="10" stroke-linecap="round" stroke-linejoin="round"/>
<path d="M38.0877 203.135V168.408H7.70898V219.312H29.9011L38.0877 203.135Z" stroke="black" stroke-width="0.177385" stroke-miterlimit="10" stroke-linecap="round" stroke-linejoin="round"/>
<path d="M96.7588 382.098L131.932 358.715" stroke="black" stroke-width="0.236548" stroke-miterlimit="10" stroke-linecap="round" stroke-linejoin="round"/>
<path d="M90.2662 185.115C91.5717 185.115 92.5874 185.549 93.3142 186.415C94.0405 187.281 94.4041 188.471 94.4041 189.986C94.4041 190.768 94.305 191.51 94.1077 192.212C93.9099 192.915 93.6206 193.546 93.24 194.105C92.8593 194.665 92.36 195.108 91.7423 195.435C91.1243 195.761 90.4246 195.924 89.6433 195.924C88.7537 195.924 87.9725 195.702 87.3003 195.256V193.326C87.9528 193.771 88.6547 193.994 89.4059 193.994C90.2662 193.994 90.9384 193.73 91.4229 193.2C91.9074 192.67 92.1797 191.995 92.2387 191.173C91.6752 191.816 90.8694 192.138 89.8214 192.138C88.8725 192.138 88.0815 191.834 87.4486 191.225C86.8158 190.617 86.4993 189.802 86.4993 188.783C86.4993 187.704 86.8577 186.823 87.5748 186.14C88.2915 185.457 89.1885 185.115 90.2662 185.115V185.115ZM90.3997 186.956C89.8756 186.956 89.4482 187.12 89.1166 187.447C88.7853 187.773 88.6198 188.204 88.6198 188.738C88.6198 189.243 88.7879 189.659 89.124 189.986C89.4597 190.312 89.8848 190.475 90.3994 190.475C90.8045 190.475 91.1851 190.352 91.5413 190.104C91.897 189.857 92.1493 189.54 92.2977 189.154C92.268 188.451 92.0877 187.909 91.7564 187.528C91.4251 187.147 90.9733 186.956 90.3997 186.956ZM94.4927 197.973L95.7681 193.474H98.0077L96.2129 197.973H94.4927ZM102.205 195.924C101.107 195.924 100.123 195.677 99.2531 195.182V193.178C100.123 193.733 101.077 194.01 102.116 194.01C102.778 194.01 103.326 193.861 103.762 193.564C104.197 193.267 104.414 192.837 104.414 192.273C104.414 191.758 104.209 191.342 103.799 191.025C103.388 190.709 102.822 190.55 102.101 190.55C101.28 190.55 100.449 190.699 99.6092 190.995L100.291 185.323H105.838V187.164H101.864L101.641 188.931C101.968 188.862 102.299 188.827 102.635 188.827C103.772 188.827 104.709 189.144 105.445 189.778C106.182 190.411 106.55 191.242 106.55 192.272C106.55 193.41 106.132 194.303 105.297 194.952C104.462 195.6 103.431 195.924 102.205 195.924V195.924ZM112.809 195.716V193.118H107.603V191.574L112.779 185.323H114.885V191.396H116.413V193.118H114.885V195.716H112.809ZM109.961 191.396H112.809V188.011L109.961 191.396Z" fill="#2B2A29"/>
<path d="M187.518 23.0625V20.4643H182.313V18.9201L187.489 12.6696H189.595V18.7422H191.122V20.4643H189.595V23.0625H187.518ZM184.671 18.7422H187.518V15.3573L184.671 18.7422ZM191.567 25.3195L192.842 20.8205H195.082L193.287 25.3195H191.567ZM199.368 23.2705C198.142 23.2705 197.089 22.9935 196.209 22.439V20.4049C197.129 21.0385 198.142 21.3553 199.249 21.3553C199.852 21.3553 200.364 21.2019 200.784 20.8951C201.204 20.588 201.414 20.1624 201.414 19.6183C201.414 19.1136 201.232 18.705 200.866 18.3931C200.5 18.0811 199.996 17.9255 199.353 17.9255C198.859 17.9255 198.369 18.0194 197.885 18.2074V16.7968L200.362 14.5105H196.535V12.6696H203.09V14.2732L200.747 16.4262C201.489 16.5643 202.141 16.906 202.705 17.4505C203.269 17.9949 203.55 18.7176 203.55 19.6183C203.55 20.7265 203.15 21.6126 202.349 22.2756C201.548 22.9389 200.554 23.2705 199.368 23.2705ZM207.836 23.2705C206.739 23.2705 205.755 23.0228 204.885 22.5285V20.5241C205.755 21.0786 206.709 21.3556 207.747 21.3556C208.409 21.3556 208.958 21.2067 209.394 20.91C209.829 20.6132 210.046 20.1828 210.046 19.6186C210.046 19.1039 209.841 18.6883 209.43 18.3711C209.02 18.0547 208.454 17.8961 207.732 17.8961C206.912 17.8961 206.081 18.0447 205.241 18.3414L205.923 12.6696H211.47V14.5105H207.495L207.273 16.2772C207.599 16.2078 207.931 16.1732 208.267 16.1732C209.404 16.1732 210.34 16.49 211.077 17.1236C211.814 17.7572 212.182 18.5884 212.182 19.6179C212.182 20.7562 211.764 21.6494 210.929 22.2979C210.093 22.9459 209.062 23.2702 207.836 23.2702V23.2705Z" fill="#2B2A29"/>
<path d="M32.9995 256.657C32.9995 259.217 35.0736 261.294 37.6314 261.294" stroke="black" stroke-width="0.177385" stroke-miterlimit="10" stroke-linecap="round" stroke-linejoin="round"/>
<path d="M46.7699 333.917C45.5438 333.917 44.491 333.64 43.6115 333.085V331.051C44.5311 331.685 45.5442 332.002 46.6516 332.002C47.2544 332.002 47.7663 331.848 48.1863 331.542C48.6062 331.234 48.8166 330.809 48.8166 330.265C48.8166 329.76 48.6337 329.352 48.2679 329.04C47.9021 328.728 47.398 328.572 46.7555 328.572C46.261 328.572 45.7713 328.666 45.2871 328.854V327.443L47.7638 325.157H43.9375V323.316H50.4926V324.92L48.1492 327.073C48.8908 327.211 49.5433 327.552 50.1072 328.097C50.6707 328.641 50.9523 329.364 50.9523 330.265C50.9523 331.373 50.552 332.259 49.7511 332.922C48.9498 333.585 47.9563 333.917 46.7699 333.917ZM51.679 335.966L52.9544 331.467H55.194L53.3992 335.966H51.679ZM58.2342 333.709V325.602L56.0391 326.716V324.623L58.4712 323.316H60.3253V333.709H58.2342V333.709ZM62.0455 333.709V332.15L65.1005 329.374C65.7924 328.74 66.2743 328.226 66.5466 327.83C66.8185 327.434 66.9543 327.013 66.9543 326.568C66.9543 326.122 66.791 325.768 66.4649 325.506C66.1385 325.244 65.7086 325.112 65.1747 325.112C64.1957 325.112 63.2616 325.509 62.3716 326.301V324.103C63.2122 323.44 64.2206 323.108 65.3973 323.108C66.396 323.108 67.2585 323.4 67.9849 323.984C68.7116 324.568 69.0748 325.335 69.0748 326.286C69.0748 327.018 68.9141 327.664 68.5929 328.223C68.2716 328.783 67.7007 329.443 66.8801 330.205L65.1005 331.839H69.4309V333.709H62.0455V333.709Z" fill="#2B2A29"/>
<path d="M116.612 301.003V299.445L119.667 296.668C120.358 296.034 120.84 295.52 121.113 295.124C121.385 294.728 121.52 294.307 121.52 293.862C121.52 293.416 121.357 293.063 121.031 292.8C120.705 292.538 120.275 292.407 119.741 292.407C118.762 292.407 117.828 292.803 116.938 293.595V291.397C117.778 290.734 118.787 290.402 119.963 290.402C120.962 290.402 121.825 290.695 122.551 291.278C123.278 291.862 123.641 292.629 123.641 293.58C123.641 294.312 123.48 294.958 123.159 295.517C122.838 296.077 122.267 296.737 121.446 297.5L119.667 299.133H123.997V301.004H116.612V301.003ZM124.753 303.26L126.029 298.761H128.268L126.474 303.26H124.753ZM135.758 295.465C136.341 295.673 136.808 296.005 137.159 296.46C137.51 296.916 137.686 297.445 137.686 298.049C137.686 299.029 137.288 299.801 136.492 300.365C135.696 300.929 134.715 301.211 133.548 301.211C132.381 301.211 131.398 300.929 130.597 300.365C129.796 299.801 129.395 299.029 129.395 298.049C129.395 297.445 129.571 296.916 129.922 296.46C130.273 296.005 130.74 295.673 131.323 295.465C130.354 295.01 129.87 294.283 129.87 293.283C129.87 292.432 130.219 291.739 130.915 291.204C131.612 290.669 132.49 290.402 133.548 290.402C134.596 290.402 135.468 290.669 136.165 291.204C136.862 291.739 137.211 292.432 137.211 293.283C137.211 294.283 136.726 295.01 135.757 295.465H135.758ZM134.69 292.548C134.384 292.306 134.003 292.184 133.548 292.184C133.093 292.184 132.71 292.306 132.399 292.548C132.087 292.791 131.932 293.105 131.932 293.491C131.932 293.867 132.087 294.176 132.399 294.419C132.71 294.661 133.093 294.782 133.548 294.782C134.003 294.782 134.384 294.661 134.69 294.419C134.997 294.176 135.15 293.867 135.15 293.491C135.15 293.105 134.997 292.791 134.69 292.548ZM132.162 298.977C132.532 299.269 132.995 299.415 133.548 299.415C134.102 299.415 134.562 299.269 134.928 298.977C135.294 298.685 135.476 298.331 135.476 297.915C135.476 297.47 135.296 297.106 134.935 296.824C134.574 296.542 134.112 296.401 133.548 296.401C132.985 296.401 132.52 296.542 132.154 296.824C131.789 297.106 131.606 297.47 131.606 297.915C131.606 298.331 131.791 298.685 132.162 298.977H132.162ZM141.912 301.212C140.815 301.212 139.831 300.964 138.961 300.47V298.465C139.831 299.02 140.785 299.297 141.823 299.297C142.486 299.297 143.034 299.148 143.47 298.851C143.905 298.554 144.122 298.124 144.122 297.56C144.122 297.045 143.917 296.629 143.507 296.312C143.096 295.996 142.53 295.837 141.809 295.837C140.988 295.837 140.157 295.986 139.317 296.282L139.999 290.611H145.546V292.452H141.572L141.349 294.218C141.675 294.149 142.007 294.114 142.343 294.114C143.48 294.114 144.417 294.431 145.153 295.065C145.89 295.698 146.258 296.529 146.258 297.559C146.258 298.697 145.84 299.59 145.005 300.239C144.169 300.887 143.139 301.211 141.912 301.211V301.212Z" fill="#2B2A29"/>
<path d="M237.719 129.672H298.083V155.083H237.719V129.672Z" stroke="black" stroke-width="0.234104" stroke-miterlimit="10" stroke-linecap="round" stroke-linejoin="round"/>
<path d="M237.719 155.082H298.083V180.28H237.719V155.082Z" stroke="black" stroke-width="0.234104" stroke-miterlimit="10" stroke-linecap="round" stroke-linejoin="round"/>
<path d="M237.719 180.279H298.083V205.477H237.719V180.279Z" stroke="black" stroke-width="0.234104" stroke-miterlimit="10" stroke-linecap="round" stroke-linejoin="round"/>
<path d="M237.719 205.05C238.03 205.05 238.282 205.241 238.282 205.477C238.282 205.712 238.03 205.904 237.719 205.904V205.05ZM204.215 205.05H237.719V205.904H204.215L203.652 205.477L204.215 205.05ZM204.215 205.904C203.904 205.904 203.652 205.712 203.652 205.477C203.652 205.241 203.905 205.05 204.215 205.05V205.904ZM204.778 129.67V205.477H203.652V129.67L204.215 129.243L204.778 129.67H204.778ZM203.652 129.67C203.652 129.435 203.904 129.243 204.215 129.243C204.526 129.243 204.778 129.435 204.778 129.67H203.652H203.652ZM237.719 130.097H204.215V129.243H237.719L238.282 129.67L237.719 130.097ZM237.719 129.243C238.03 129.243 238.282 129.435 238.282 129.67C238.282 129.906 238.03 130.097 237.719 130.097V129.243ZM237.156 205.477V129.67H238.282V205.477H237.156ZM238.282 205.477C238.282 205.712 238.03 205.904 237.719 205.904C237.408 205.904 237.157 205.712 237.157 205.477H238.282H238.282Z" fill="black"/>
<path d="M217.325 179.685V160.871L212.231 163.456V158.597L217.876 155.565H222.179V179.685H217.325Z" fill="#2B2A29"/>
<path d="M243.787 151.247V140.27L240.815 141.778V138.943L244.109 137.174H246.619V151.247H243.787ZM254.954 151.529C253.186 151.529 251.811 150.943 250.827 149.77C249.842 148.597 249.351 146.985 249.351 144.934C249.351 143.875 249.484 142.87 249.752 141.919C250.02 140.967 250.412 140.112 250.927 139.355C251.442 138.598 252.118 137.998 252.955 137.555C253.792 137.113 254.739 136.892 255.797 136.892C257.002 136.892 258.06 137.194 258.97 137.797V140.41C258.087 139.807 257.136 139.506 256.119 139.506C254.954 139.506 254.043 139.864 253.387 140.581C252.731 141.299 252.363 142.213 252.283 143.326C253.046 142.455 254.137 142.019 255.557 142.019C256.842 142.019 257.913 142.431 258.77 143.255C259.627 144.08 260.055 145.182 260.055 146.563C260.055 148.023 259.57 149.216 258.599 150.141C257.629 151.066 256.414 151.529 254.954 151.529H254.954ZM254.773 149.036C255.483 149.036 256.061 148.815 256.51 148.373C256.958 147.93 257.183 147.347 257.183 146.623C257.183 145.94 256.955 145.377 256.5 144.934C256.045 144.492 255.469 144.271 254.773 144.271C254.224 144.271 253.708 144.439 253.226 144.773C252.745 145.108 252.403 145.531 252.202 146.04C252.242 146.992 252.49 147.729 252.945 148.252C253.4 148.775 254.01 149.036 254.773 149.036H254.773ZM260.778 154.304L262.505 148.212H265.538L263.108 154.304H260.778H260.778ZM272.386 136.892C274.153 136.892 275.529 137.479 276.513 138.651C277.498 139.824 277.989 141.436 277.989 143.487C277.989 144.546 277.855 145.551 277.588 146.503C277.32 147.454 276.928 148.309 276.413 149.066C275.897 149.824 275.221 150.423 274.384 150.866C273.547 151.308 272.6 151.529 271.543 151.529C270.337 151.529 269.28 151.227 268.369 150.624V148.011C269.253 148.614 270.204 148.915 271.221 148.915C272.386 148.915 273.296 148.557 273.952 147.84C274.608 147.122 274.977 146.208 275.057 145.095C274.294 145.966 273.202 146.402 271.783 146.402C270.498 146.402 269.427 145.99 268.57 145.166C267.713 144.341 267.284 143.239 267.284 141.858C267.284 140.397 267.77 139.205 268.74 138.28C269.711 137.355 270.926 136.892 272.385 136.892H272.386ZM272.566 139.385C271.857 139.385 271.278 139.606 270.83 140.049C270.381 140.491 270.157 141.074 270.157 141.798C270.157 142.481 270.384 143.045 270.84 143.487C271.295 143.929 271.87 144.15 272.566 144.15C273.116 144.15 273.631 143.982 274.113 143.647C274.595 143.312 274.936 142.884 275.138 142.36C275.097 141.409 274.853 140.675 274.404 140.159C273.956 139.643 273.343 139.385 272.567 139.385L272.566 139.385ZM284.155 151.529C282.495 151.529 281.068 151.154 279.877 150.403V147.648C281.122 148.506 282.495 148.936 283.994 148.936C284.811 148.936 285.503 148.728 286.073 148.312C286.642 147.896 286.926 147.32 286.926 146.583C286.926 145.899 286.678 145.347 286.183 144.925C285.688 144.502 285.005 144.291 284.135 144.291C283.465 144.291 282.803 144.419 282.147 144.673V142.763L285.501 139.666H280.319V137.174H289.196V139.345L286.022 142.26C287.027 142.448 287.91 142.91 288.673 143.647C289.437 144.385 289.818 145.363 289.818 146.583C289.818 148.084 289.276 149.284 288.192 150.182C287.107 151.08 285.762 151.529 284.155 151.529H284.155ZM245.475 176.822C243.815 176.822 242.388 176.447 241.197 175.696V172.942C242.442 173.799 243.815 174.229 245.314 174.229C246.131 174.229 246.823 174.021 247.393 173.606C247.962 173.19 248.246 172.614 248.246 171.876C248.246 171.193 247.998 170.64 247.503 170.218C247.008 169.795 246.325 169.584 245.455 169.584C244.785 169.584 244.123 169.712 243.467 169.966V168.056L246.821 164.96H241.639V162.467H250.516V164.638L247.342 167.553C248.347 167.741 249.23 168.203 249.993 168.941C250.757 169.678 251.138 170.656 251.138 171.876C251.138 173.377 250.596 174.577 249.512 175.475C248.427 176.373 247.082 176.822 245.475 176.822H245.475ZM252.705 176.541V174.43L256.842 170.67C257.779 169.812 258.432 169.115 258.8 168.579C259.168 168.042 259.352 167.473 259.352 166.87C259.352 166.267 259.131 165.787 258.689 165.432C258.248 165.077 257.665 164.899 256.942 164.899C255.617 164.899 254.352 165.436 253.146 166.508V163.532C254.284 162.634 255.65 162.185 257.243 162.185C258.596 162.185 259.764 162.581 260.748 163.372C261.732 164.163 262.224 165.201 262.224 166.488C262.224 167.48 262.006 168.355 261.571 169.112C261.136 169.869 260.363 170.764 259.251 171.796L256.841 174.008H262.706V176.541H252.704L252.705 176.541ZM263.731 179.597L265.458 173.505H268.491L266.06 179.597H263.731H263.731ZM276.744 176.541V173.022H269.695V170.931L276.704 162.467H279.556V170.69H281.625V173.022H279.556V176.541H276.744ZM272.888 170.69H276.744V166.106L272.888 170.69ZM289.618 176.541V173.022H282.568V170.931L289.578 162.467H292.429V170.69H294.498V173.022H292.429V176.541H289.618ZM285.762 170.69H289.618V166.106L285.762 170.69ZM245.475 202.115C243.815 202.115 242.389 201.74 241.197 200.989V198.235C242.443 199.093 243.815 199.522 245.314 199.522C246.131 199.522 246.824 199.314 247.393 198.899C247.962 198.483 248.247 197.907 248.247 197.17C248.247 196.486 247.999 195.933 247.503 195.511C247.008 195.089 246.325 194.877 245.455 194.877C244.786 194.877 244.123 195.005 243.467 195.26V193.349L246.821 190.253H241.639V187.76H250.516V189.931L247.343 192.847C248.347 193.034 249.231 193.497 249.994 194.234C250.757 194.971 251.139 195.95 251.139 197.169C251.139 198.67 250.597 199.87 249.512 200.768C248.427 201.666 247.082 202.115 245.475 202.115H245.475ZM258.71 202.115C256.943 202.115 255.567 201.529 254.583 200.356C253.599 199.184 253.107 197.571 253.107 195.521C253.107 194.462 253.24 193.457 253.508 192.505C253.776 191.553 254.168 190.698 254.683 189.941C255.199 189.184 255.875 188.584 256.711 188.142C257.548 187.699 258.495 187.479 259.553 187.479C260.758 187.479 261.816 187.78 262.726 188.383V190.997C261.843 190.394 260.892 190.092 259.875 190.092C258.71 190.092 257.799 190.45 257.144 191.168C256.487 191.885 256.119 192.8 256.039 193.912C256.802 193.041 257.893 192.605 259.313 192.605C260.598 192.605 261.669 193.017 262.526 193.842C263.383 194.666 263.811 195.768 263.811 197.149C263.811 198.61 263.326 199.803 262.355 200.728C261.385 201.653 260.17 202.115 258.711 202.115H258.71ZM258.529 199.622C259.239 199.622 259.818 199.401 260.266 198.959C260.715 198.517 260.939 197.934 260.939 197.21C260.939 196.526 260.711 195.963 260.256 195.521C259.801 195.079 259.226 194.857 258.529 194.857C257.98 194.857 257.464 195.025 256.983 195.36C256.501 195.695 256.159 196.117 255.958 196.627C255.998 197.578 256.246 198.316 256.701 198.838C257.157 199.361 257.766 199.622 258.529 199.622H258.529ZM264.534 204.89L266.261 198.798H269.294L266.864 204.89H264.535H264.534ZM271.644 201.834L277.387 190.353H270.74V187.76H280.661V189.992L274.716 201.834H271.644ZM287.328 187.479C289.096 187.479 290.472 188.065 291.456 189.238C292.44 190.41 292.932 192.022 292.932 194.073C292.932 195.132 292.798 196.137 292.53 197.089C292.262 198.041 291.871 198.895 291.355 199.653C290.84 200.41 290.164 201.01 289.327 201.452C288.49 201.894 287.543 202.115 286.485 202.115C285.28 202.115 284.223 201.814 283.312 201.211V198.597C284.195 199.2 285.146 199.502 286.163 199.502C287.328 199.502 288.239 199.143 288.895 198.426C289.551 197.709 289.919 196.794 289.999 195.681C289.236 196.553 288.145 196.989 286.726 196.989C285.44 196.989 284.369 196.576 283.512 195.752C282.655 194.928 282.227 193.825 282.227 192.445C282.227 190.984 282.712 189.791 283.683 188.866C284.653 187.941 285.868 187.479 287.328 187.479H287.328ZM287.509 189.972C286.8 189.972 286.221 190.193 285.772 190.635C285.324 191.077 285.099 191.66 285.099 192.384C285.099 193.068 285.327 193.631 285.782 194.073C286.237 194.515 286.813 194.737 287.509 194.737C288.058 194.737 288.574 194.569 289.056 194.234C289.537 193.899 289.879 193.47 290.08 192.947C290.04 191.995 289.796 191.261 289.347 190.745C288.898 190.229 288.286 189.971 287.509 189.971L287.509 189.972Z" fill="#2B2A29"/>
<path d="M124.981 23.0625V20.4643H119.775V18.9201L124.951 12.6696H127.057V18.7422H128.585V20.4643H127.057V23.0625H124.981ZM122.133 18.7422H124.981V15.3573L122.133 18.7422ZM129.029 25.3195L130.305 20.8205H132.544L130.749 25.3195H129.029ZM136.83 23.2705C135.604 23.2705 134.551 22.9935 133.672 22.439V20.4049C134.591 21.0385 135.604 21.3553 136.712 21.3553C137.315 21.3553 137.827 21.2019 138.247 20.8951C138.666 20.588 138.877 20.1624 138.877 19.6183C138.877 19.1136 138.694 18.705 138.328 18.3931C137.962 18.0811 137.458 17.9255 136.816 17.9255C136.321 17.9255 135.831 18.0194 135.347 18.2074V16.7968L137.824 14.5105H133.998V12.6696H140.553V14.2732L138.209 16.4262C138.951 16.5643 139.604 16.906 140.167 17.4505C140.731 17.9949 141.013 18.7176 141.013 19.6183C141.013 20.7265 140.612 21.6126 139.811 22.2756C139.01 22.9389 138.017 23.2705 136.83 23.2705ZM145.299 23.2705C144.201 23.2705 143.218 23.0228 142.347 22.5285V20.5241C143.217 21.0786 144.171 21.3556 145.21 21.3556C145.872 21.3556 146.421 21.2067 146.856 20.91C147.291 20.6132 147.509 20.1828 147.509 19.6186C147.509 19.1039 147.303 18.6883 146.893 18.3711C146.483 18.0547 145.916 17.8961 145.195 17.8961C144.374 17.8961 143.544 18.0447 142.703 18.3414L143.386 12.6696H148.932V14.5105H144.958L144.735 16.2772C145.062 16.2078 145.393 16.1732 145.729 16.1732C146.866 16.1732 147.803 16.49 148.539 17.1236C149.276 17.7572 149.644 18.5884 149.644 19.6179C149.644 20.7562 149.227 21.6494 148.391 22.2979C147.556 22.9459 146.525 23.2702 145.299 23.2702V23.2705Z" fill="#2B2A29"/>
<path d="M276.554 366.028V357.921L274.358 359.035V356.941L276.791 355.634H278.645V366.027H276.554V366.028ZM284.799 366.236C283.494 366.236 282.478 365.803 281.752 364.936C281.025 364.07 280.662 362.88 280.662 361.366C280.662 360.584 280.76 359.841 280.958 359.139C281.156 358.436 281.445 357.805 281.826 357.246C282.206 356.687 282.706 356.243 283.323 355.917C283.941 355.59 284.641 355.427 285.422 355.427C286.312 355.427 287.093 355.649 287.765 356.095V358.025C287.113 357.58 286.411 357.357 285.66 357.357C284.799 357.357 284.127 357.622 283.642 358.151C283.158 358.681 282.886 359.357 282.827 360.178C283.39 359.535 284.196 359.213 285.244 359.213C286.193 359.213 286.984 359.518 287.617 360.126C288.25 360.735 288.566 361.549 288.566 362.568C288.566 363.647 288.208 364.528 287.491 365.211C286.774 365.894 285.877 366.236 284.799 366.236V366.236ZM284.666 364.395C285.19 364.395 285.618 364.231 285.949 363.905C286.28 363.578 286.446 363.147 286.446 362.613C286.446 362.108 286.278 361.692 285.942 361.366C285.606 361.039 285.18 360.876 284.666 360.876C284.261 360.876 283.881 361 283.524 361.247C283.169 361.494 282.916 361.806 282.768 362.183C282.798 362.885 282.981 363.43 283.317 363.816C283.652 364.202 284.102 364.395 284.666 364.395V364.395ZM289.1 368.285L290.376 363.786H292.615L290.82 368.285H289.1ZM297.672 355.427C298.978 355.427 299.993 355.86 300.72 356.726C301.447 357.592 301.81 358.782 301.81 360.297C301.81 361.079 301.711 361.821 301.514 362.524C301.316 363.226 301.027 363.857 300.646 364.417C300.265 364.976 299.766 365.419 299.148 365.746C298.53 366.072 297.831 366.236 297.049 366.236C296.16 366.236 295.379 366.013 294.706 365.567V363.637C295.359 364.083 296.061 364.305 296.812 364.305C297.672 364.305 298.344 364.041 298.829 363.511C299.313 362.981 299.586 362.306 299.645 361.484C299.081 362.128 298.275 362.449 297.227 362.449C296.279 362.449 295.488 362.145 294.855 361.536C294.222 360.928 293.905 360.114 293.905 359.094C293.905 358.015 294.264 357.134 294.981 356.451C295.698 355.768 296.595 355.426 297.672 355.426V355.427ZM297.806 357.268C297.282 357.268 296.854 357.431 296.523 357.758C296.191 358.084 296.026 358.515 296.026 359.049C296.026 359.554 296.194 359.97 296.53 360.297C296.866 360.623 297.291 360.787 297.805 360.787C298.211 360.787 298.591 360.663 298.947 360.415C299.303 360.168 299.555 359.851 299.704 359.465C299.674 358.762 299.494 358.22 299.163 357.84C298.831 357.459 298.379 357.268 297.806 357.268ZM306.363 366.236C305.137 366.236 304.084 365.959 303.204 365.404V363.37C304.124 364.004 305.137 364.32 306.244 364.32C306.847 364.32 307.359 364.167 307.779 363.86C308.199 363.553 308.409 363.127 308.409 362.583C308.409 362.079 308.227 361.67 307.861 361.358C307.495 361.046 306.991 360.891 306.348 360.891C305.854 360.891 305.364 360.984 304.88 361.172V359.762L307.357 357.476H303.53V355.635H310.086V357.238L307.742 359.391C308.484 359.529 309.136 359.871 309.7 360.416C310.264 360.96 310.545 361.683 310.545 362.583C310.545 363.692 310.145 364.578 309.344 365.241C308.543 365.904 307.549 366.236 306.363 366.236Z" fill="#2B2A29"/>
<path fill-rule="evenodd" clip-rule="evenodd" d="M205.024 97.0145H166.737V74.1116H205.024V97.0145Z" fill="#1A1A24"/>
<path fill-rule="evenodd" clip-rule="evenodd" d="M170.684 315.944V0.052124H163.052V315.944H170.684Z" fill="#1A1A24"/>
<path fill-rule="evenodd" clip-rule="evenodd" d="M92.2135 356.925V383.228H97.288V356.925H92.2135Z" fill="#1A1A24"/>
<path fill-rule="evenodd" clip-rule="evenodd" d="M163.319 360.154V388.17H170.537V360.154H163.319Z" fill="#1A1A24"/>
<path fill-rule="evenodd" clip-rule="evenodd" d="M274.146 47.6178V12.6227H318.026V47.6178H274.146Z" stroke="#2B2A29" stroke-width="0.0847213" stroke-miterlimit="22.9256"/>
</svg>
