<svg width="166" height="17" viewBox="0 0 166 17" fill="none" xmlns="http://www.w3.org/2000/svg">
<path d="M4.23484 6.52L9.97684 13H7.92484L2.48884 6.952V13H0.814844V0.399999H2.48884V6.088L7.74484 0.399999H9.79684L4.23484 6.52ZM17.2992 8.374C18.2232 8.758 18.6852 9.454 18.6852 10.462C18.6852 11.23 18.4332 11.848 17.9292 12.316C17.4252 12.772 16.7172 13 15.8052 13H11.3052V4H15.4452C16.3332 4 17.0232 4.222 17.5152 4.666C18.0192 5.11 18.2712 5.704 18.2712 6.448C18.2712 7.312 17.9472 7.954 17.2992 8.374ZM15.3732 5.404H12.8352V7.762H15.3732C16.2852 7.762 16.7412 7.36 16.7412 6.556C16.7412 5.788 16.2852 5.404 15.3732 5.404ZM12.8352 11.578H15.7152C16.1712 11.578 16.5192 11.47 16.7592 11.254C17.0112 11.038 17.1372 10.732 17.1372 10.336C17.1372 9.964 17.0112 9.676 16.7592 9.472C16.5192 9.256 16.1712 9.148 15.7152 9.148H12.8352V11.578ZM27.8275 5.548V4H29.3935V13H27.8275V11.452C27.0595 12.64 25.9255 13.234 24.4255 13.234C23.1535 13.234 22.0795 12.778 21.2035 11.866C20.3155 10.942 19.8715 9.82 19.8715 8.5C19.8715 7.192 20.3155 6.076 21.2035 5.152C22.0915 4.228 23.1655 3.766 24.4255 3.766C25.9255 3.766 27.0595 4.36 27.8275 5.548ZM24.6235 11.722C25.5355 11.722 26.2975 11.416 26.9095 10.804C27.5215 10.168 27.8275 9.4 27.8275 8.5C27.8275 7.588 27.5215 6.826 26.9095 6.214C26.2975 5.59 25.5355 5.278 24.6235 5.278C23.7235 5.278 22.9675 5.59 22.3555 6.214C21.7435 6.826 21.4375 7.588 21.4375 8.5C21.4375 9.4 21.7435 10.168 22.3555 10.804C22.9675 11.416 23.7235 11.722 24.6235 11.722ZM36.7341 3.766C37.9941 3.766 39.0681 4.228 39.9561 5.152C40.8441 6.076 41.2881 7.192 41.2881 8.5C41.2881 9.82 40.8441 10.942 39.9561 11.866C39.0801 12.778 38.0061 13.234 36.7341 13.234C35.2461 13.234 34.1121 12.64 33.3321 11.452V16.6H31.7661V4H33.3321V5.548C34.1121 4.36 35.2461 3.766 36.7341 3.766ZM36.5361 11.722C37.4361 11.722 38.1921 11.416 38.8041 10.804C39.4161 10.168 39.7221 9.4 39.7221 8.5C39.7221 7.588 39.4161 6.826 38.8041 6.214C38.1921 5.59 37.4361 5.278 36.5361 5.278C35.6241 5.278 34.8621 5.59 34.2501 6.214C33.6381 6.826 33.3321 7.588 33.3321 8.5C33.3321 9.4 33.6381 10.168 34.2501 10.804C34.8621 11.416 35.6241 11.722 36.5361 11.722ZM41.7972 4H49.5012V5.512H46.4412V13H44.8752V5.512H41.7972V4ZM52.4215 10.318L57.4075 4H58.6675V13H57.1195V6.682L52.1335 13H50.8735V4H52.4215V10.318ZM66.0193 3.766C67.2793 3.766 68.3533 4.228 69.2413 5.152C70.1293 6.076 70.5733 7.192 70.5733 8.5C70.5733 9.82 70.1293 10.942 69.2413 11.866C68.3653 12.778 67.2913 13.234 66.0193 13.234C64.5313 13.234 63.3973 12.64 62.6173 11.452V16.6H61.0513V4H62.6173V5.548C63.3973 4.36 64.5313 3.766 66.0193 3.766ZM65.8213 11.722C66.7213 11.722 67.4773 11.416 68.0893 10.804C68.7013 10.168 69.0073 9.4 69.0073 8.5C69.0073 7.588 68.7013 6.826 68.0893 6.214C67.4773 5.59 66.7213 5.278 65.8213 5.278C64.9093 5.278 64.1473 5.59 63.5353 6.214C62.9233 6.826 62.6173 7.588 62.6173 8.5C62.6173 9.4 62.9233 10.168 63.5353 10.804C64.1473 11.416 64.9093 11.722 65.8213 11.722ZM74.0079 7.24H76.2399C77.1399 7.24 77.8839 7.51 78.4719 8.05C79.0719 8.578 79.3719 9.268 79.3719 10.12C79.3719 10.972 79.0719 11.668 78.4719 12.208C77.8719 12.736 77.1279 13 76.2399 13H72.4419V4H74.0079V7.24ZM80.5419 13V4H82.1079V13H80.5419ZM74.0079 11.542H76.2399C76.6959 11.542 77.0739 11.41 77.3739 11.146C77.6739 10.882 77.8239 10.54 77.8239 10.12C77.8239 9.7 77.6679 9.358 77.3559 9.094C77.0559 8.818 76.6839 8.68 76.2399 8.68H74.0079V11.542ZM95.2285 7.744V4H96.7945V13H95.2285V9.238H90.5665V13H89.0005V4H90.5665V7.744H95.2285ZM106.63 5.548V4H108.196V13H106.63V11.452C105.862 12.64 104.728 13.234 103.228 13.234C101.956 13.234 100.882 12.778 100.006 11.866C99.1182 10.942 98.6742 9.82 98.6742 8.5C98.6742 7.192 99.1182 6.076 100.006 5.152C100.894 4.228 101.968 3.766 103.228 3.766C104.728 3.766 105.862 4.36 106.63 5.548ZM103.426 11.722C104.338 11.722 105.1 11.416 105.712 10.804C106.324 10.168 106.63 9.4 106.63 8.5C106.63 7.588 106.324 6.826 105.712 6.214C105.1 5.59 104.338 5.278 103.426 5.278C102.526 5.278 101.77 5.59 101.158 6.214C100.546 6.826 100.24 7.588 100.24 8.5C100.24 9.4 100.546 10.168 101.158 10.804C101.77 11.416 102.526 11.722 103.426 11.722ZM115.069 4H122.863V13H121.297V5.494H116.635V13H115.069V4ZM126.075 4H132.753V13H131.187V5.512H127.641V9.184C127.641 10.624 127.353 11.65 126.777 12.262C126.201 12.862 125.355 13.108 124.239 13V11.524C124.863 11.608 125.325 11.47 125.625 11.11C125.925 10.738 126.075 10.084 126.075 9.148V4ZM142.578 5.548V4H144.144V13H142.578V11.452C141.81 12.64 140.676 13.234 139.176 13.234C137.904 13.234 136.83 12.778 135.954 11.866C135.066 10.942 134.622 9.82 134.622 8.5C134.622 7.192 135.066 6.076 135.954 5.152C136.842 4.228 137.916 3.766 139.176 3.766C140.676 3.766 141.81 4.36 142.578 5.548ZM139.374 11.722C140.286 11.722 141.048 11.416 141.66 10.804C142.272 10.168 142.578 9.4 142.578 8.5C142.578 7.588 142.272 6.826 141.66 6.214C141.048 5.59 140.286 5.278 139.374 5.278C138.474 5.278 137.718 5.59 137.106 6.214C136.494 6.826 136.188 7.588 136.188 8.5C136.188 9.4 136.494 10.168 137.106 10.804C137.718 11.416 138.474 11.722 139.374 11.722ZM152.744 7.744V4H154.31V13H152.744V9.238H148.082V13H146.516V4H148.082V7.744H152.744ZM165.334 9.22H157.792C157.948 10.012 158.314 10.636 158.89 11.092C159.466 11.536 160.186 11.758 161.05 11.758C162.238 11.758 163.102 11.32 163.642 10.444L164.974 11.2C164.086 12.556 162.766 13.234 161.014 13.234C159.598 13.234 158.434 12.79 157.522 11.902C156.634 10.99 156.19 9.856 156.19 8.5C156.19 7.132 156.628 6.004 157.504 5.116C158.38 4.216 159.514 3.766 160.906 3.766C162.226 3.766 163.3 4.234 164.128 5.17C164.968 6.082 165.388 7.198 165.388 8.518C165.388 8.746 165.37 8.98 165.334 9.22ZM160.906 5.242C160.078 5.242 159.382 5.476 158.818 5.944C158.266 6.412 157.924 7.048 157.792 7.852H163.804C163.672 7.024 163.342 6.382 162.814 5.926C162.286 5.47 161.65 5.242 160.906 5.242Z" fill="#8C8C91"/>
</svg>
