<svg width="26" height="26" viewBox="0 0 26 26" fill="none" xmlns="http://www.w3.org/2000/svg">
<path d="M23.9474 17.119C22.3436 17.119 20.7726 16.8685 19.2838 16.3773C18.5572 16.1268 17.732 16.3198 17.2544 16.807L14.3027 19.0361C10.9159 17.2285 8.74832 15.0622 6.96529 11.7L9.13422 8.81811C9.68022 8.27211 9.87592 7.47293 9.64192 6.72443C9.14653 5.226 8.89477 3.65369 8.89477 2.05263C8.89477 0.920927 7.97384 0 6.84213 0H2.05263C0.920927 0 0 0.920927 0 2.05263C0 15.2565 10.7435 26 23.9474 26C25.0791 26 26 25.0791 26 23.9474V19.1716C26 18.0399 25.0791 17.119 23.9474 17.119Z" fill="white"/>
</svg>
