<svg width="515" height="188" viewBox="0 0 515 188" fill="none" xmlns="http://www.w3.org/2000/svg">
<path d="M0 1.49285H41.3711V18.7104H17.8875V71.1593H0V1.49285Z" fill="#323232"/>
<path d="M108.869 62.2022C101.741 69.1689 93.0804 72.6522 82.8875 72.6522C72.5613 72.6522 63.8674 69.1689 56.8057 62.2022C49.7439 55.1692 46.2131 46.5439 46.2131 36.3261C46.2131 26.1083 49.7439 17.5161 56.8057 10.5495C63.8674 3.5165 72.5613 0 82.8875 0C93.147 0 101.808 3.5165 108.869 10.5495C115.998 17.5161 119.562 26.1083 119.562 36.3261C119.562 46.4775 115.998 55.1029 108.869 62.2022ZM69.3969 49.9608C73.061 53.4773 77.5579 55.2356 82.8875 55.2356C88.2171 55.2356 92.714 53.4773 96.3781 49.9608C99.9755 46.378 101.774 41.8331 101.774 36.3261C101.774 30.7528 99.9755 26.241 96.3781 22.7909C92.7806 19.208 88.2837 17.4166 82.8875 17.4166C77.4912 17.4166 72.9944 19.208 69.3969 22.7909C65.7994 26.241 64.0006 30.7528 64.0006 36.3261C64.0006 41.8331 65.7994 46.378 69.3969 49.9608Z" fill="#323232"/>
<path d="M132.857 1.49285H160.038C167.099 1.49285 173.028 3.78189 177.825 8.35998C182.622 12.9381 185.02 18.7768 185.02 25.8761C185.02 32.9755 182.622 38.8142 177.825 43.3923C173.028 47.9704 167.099 50.2594 160.038 50.2594H150.744V71.1593H132.857V1.49285ZM150.744 33.3404H160.038C162.036 33.3404 163.702 32.6437 165.034 31.2504C166.433 29.8571 167.133 28.0656 167.133 25.8761C167.133 23.6866 166.433 21.9284 165.034 20.6014C163.702 19.208 162.036 18.5114 160.038 18.5114H150.744V33.3404Z" fill="#323232"/>
<path d="M256.852 62.2022C249.724 69.1689 241.063 72.6522 230.87 72.6522C220.544 72.6522 211.85 69.1689 204.788 62.2022C197.727 55.1692 194.196 46.5439 194.196 36.3261C194.196 26.1083 197.727 17.5161 204.788 10.5495C211.85 3.5165 220.544 0 230.87 0C241.13 0 249.79 3.5165 256.852 10.5495C263.98 17.5161 267.545 26.1083 267.545 36.3261C267.545 46.4775 263.98 55.1029 256.852 62.2022ZM217.38 49.9608C221.044 53.4773 225.541 55.2356 230.87 55.2356C236.2 55.2356 240.697 53.4773 244.361 49.9608C247.958 46.378 249.757 41.8331 249.757 36.3261C249.757 30.7528 247.958 26.241 244.361 22.7909C240.763 19.208 236.266 17.4166 230.87 17.4166C225.474 17.4166 220.977 19.208 217.38 22.7909C213.782 26.241 211.983 30.7528 211.983 36.3261C211.983 41.8331 213.782 46.378 217.38 49.9608Z" fill="#323232"/>
<path d="M334.175 1.49285V53.9418H341.669V84.4955H323.882V71.1593H291.205V84.4955H273.317V53.9418H280.712C283.91 48.8329 285.509 41.4682 285.509 31.8475V1.49285H334.175ZM299.299 53.9418H316.387V18.0138H303.296V32.0466C303.296 41.4018 301.964 48.7002 299.299 53.9418Z" fill="#323232"/>
<path d="M419.163 27.2695V1.49285H436.951V71.1593H419.163V44.3875H399.477V71.1593H381.589V1.49285H399.477V27.2695H419.163Z" fill="#323232"/>
<path d="M515 71.1593H495.713L492.716 61.1075H469.432L466.434 71.1593H447.047L470.131 1.49285H491.916L515 71.1593ZM481.024 22.0942L474.029 45.7808H488.119L481.024 22.0942Z" fill="#323232"/>
<path fill-rule="evenodd" clip-rule="evenodd" d="M0 124.705V104.997H35.6794C35.8154 105.756 35.9494 106.568 36.085 107.44C37.101 113.977 37.9665 116.908 39.6975 119.575C41.8925 123.01 47.111 127.156 53.9623 130.948V135.617C48.5533 135.97 41.8511 136.122 36.0748 136.032V122.215H17.8875V134.291C10.8137 132.873 5.77326 130.665 2.40617 127.54C1.51859 126.715 0.72923 125.795 0 124.705ZM0 141.435V129.175C1.64584 130.863 3.68984 132.266 6.28206 133.551C7.78726 134.303 9.9698 135.204 11.1363 135.58C12.3405 135.956 13.3189 136.369 13.3189 136.482C13.3189 137.178 5.54947 139.919 0 141.435ZM0 158.152V142.772C2.70665 142.064 6.90852 140.708 9.74402 139.638C12.8673 138.435 16.254 137.271 17.27 137.008C17.4903 136.953 17.6966 136.904 17.8875 136.863V138.008C13.4046 141.525 9.16387 145.909 5.41657 150.909C4.25832 152.499 2.72128 154.556 1.57701 156.088C1.23425 156.546 0.92673 156.958 0.675191 157.296C0.472878 157.56 0.244697 157.85 0 158.152ZM0 170.377V162.83C1.67601 159.703 3.78789 156.054 5.41705 153.614C9.56097 147.393 13.6819 142.914 17.8875 140.069V174.664H10.2682C6.90174 173.372 2.7183 171.619 0 170.377ZM6.97504 174.664H0V172.369C1.86164 172.839 4.13594 173.592 6.97504 174.664ZM149.774 172.168L148.015 174.664H134.125V173.236C135.903 172.865 137.552 172.558 139.04 172.324C143.218 171.677 146.341 171.563 149.774 172.168ZM241.224 152.792C238.888 153.44 236.392 153.764 233.736 153.764H224.443V174.664H206.555V165.544C209.159 161.107 211.273 156.677 212.984 151.998C214.413 148.053 216.897 138.736 216.897 137.308C216.897 136.031 217.988 136.219 222.466 138.097C229.616 141.14 236.465 146.475 240.943 152.411C241.035 152.534 241.129 152.661 241.224 152.792ZM311.606 175.561C309.348 175.958 307.002 176.157 304.569 176.157C298.6 176.157 293.177 174.993 288.299 172.665C288.938 172.552 289.548 172.45 290.125 172.361C297.99 171.159 301.753 171.685 311.01 175.329C311.208 175.407 311.407 175.484 311.606 175.561ZM399.231 188H397.58V174.664H364.903V188H360.618C357.901 185.084 355.991 182.277 354.961 179.65C354.058 177.396 354.095 178.072 355.187 184.91C355.36 185.971 355.519 187.001 355.664 188H347.016V180.248C348.661 178.608 350.473 176.591 351.348 175.404L353.305 172.775L353.531 174.24C353.644 175.029 353.794 175.367 353.832 174.954C353.983 172.737 355.111 169.919 357.557 165.899C362.111 158.272 365.61 149.331 367.492 140.351C368.094 137.383 368.432 136.444 368.884 136.444C370.073 136.444 373.48 137.912 376.9 139.734C376.552 147.109 375.251 153.013 372.998 157.446H390.086V149.968C394.07 154.551 397.033 159.934 398.875 165.974C399.854 169.13 399.929 169.769 399.929 176.644C399.929 181.498 399.809 184.352 399.231 188ZM404.027 188H400.797C400.822 187.931 400.847 187.865 400.87 187.803C401.096 187.239 401.397 186.788 401.51 186.788C401.632 186.788 402.69 187.305 404.027 188ZM469.622 137.368V139.527C469.546 139.589 469.471 139.651 469.395 139.713C466.827 141.808 464.228 144.436 461.522 147.693H445.538V157.944H453.716C449.64 163.057 446.827 165.101 440.984 168.003C436.481 170.224 431.882 172.14 427.651 173.562V144.804C429.74 145.228 431.403 145.264 436.092 145.236C441.925 145.198 443.543 145.085 447.757 144.184C453.816 142.944 457.503 141.817 464.427 139.224C466.532 138.425 468.28 137.801 469.622 137.368ZM359.207 131.074V104.997H387.275C388.011 106.716 388.637 108.417 389.054 109.882C390.936 116.344 391.274 119.876 391.274 132.124C391.274 138.323 391.124 144.371 390.973 145.536L390.71 147.678L390.086 147.168V121.518H376.995V135.551C376.995 136.47 376.982 137.37 376.956 138.25C374.166 136.876 371.072 135.63 367.417 134.378C364.588 133.414 361.758 132.267 359.207 131.074ZM84.9326 104.997H69.9902V136.233C76.5811 138.875 80.5368 141.282 85.5678 145.386L88.3901 147.715L88.6911 143.695C88.8167 142.026 88.8828 139.597 88.8995 136.845H87.8777V122.016H88.6008C88.4563 118.983 88.2676 116.541 88.0514 115.405C87.3142 111.578 86.3229 108.235 84.9326 104.997ZM92.6734 122.016C91.223 118.979 90.3957 116.525 88.5418 110.333C87.9369 108.282 87.3907 106.531 86.8709 104.997H97.1713C104.233 104.997 110.162 107.286 114.959 111.864C119.756 116.442 122.154 122.281 122.154 129.381C122.154 133.675 121.276 137.508 119.521 140.88C119.431 140.854 119.34 140.828 119.248 140.802C113.141 139.047 107.626 136.511 103.164 133.515C103.899 132.346 104.266 130.968 104.266 129.381C104.266 127.191 103.567 125.433 102.168 124.106C100.835 122.712 99.1699 122.016 97.1713 122.016H92.6734ZM90.4983 136.845H97.1713C99.1292 136.845 100.767 136.176 102.086 134.839C107.511 138.281 113.391 141.232 118.334 142.89C117.386 144.319 116.261 145.654 114.959 146.897C110.162 151.475 104.233 153.764 97.1713 153.764H92.999C92.8296 153.196 92.6726 152.643 92.53 152.111C91.2466 147.37 90.6471 142.957 90.4983 136.845ZM134.125 145.444V170.102C135.169 169.63 136.23 169.131 137.31 168.604C145.814 164.472 148.373 162.292 154.243 154.102C159.06 147.415 164.14 141.854 168.919 138.06C169.781 137.353 170.137 137.062 170.085 136.934C170.049 136.844 169.812 136.835 169.408 136.82C168.881 136.82 166.849 137.421 164.893 138.172C152.341 143.019 142.757 145.37 134.125 145.444ZM134.125 142.976V104.997H142.047C143.122 107.538 144.029 110.523 144.836 114.09C146.906 123.407 148.072 126.075 151.572 129.494C151.713 129.632 151.86 129.771 152.013 129.909V140.03L156.823 133.202C158.585 134.151 160.509 134.976 162.41 135.58C163.614 135.956 164.592 136.369 164.592 136.482C164.592 136.857 157.48 139.713 154.018 140.69C147.433 142.606 144.573 142.981 136.558 142.981C135.692 142.986 134.885 142.984 134.125 142.976ZM158.457 130.883L176.695 104.997H186.833C186.947 105.646 187.058 106.334 187.169 107.064C188.059 113.029 188.863 116.198 190.486 118.867V136.057C186.277 136.054 182.336 135.937 179.455 135.693C170.443 134.925 163.391 133.3 158.457 130.883ZM152.013 125.841V104.997H143.789C144.624 107.178 145.458 109.699 146.303 112.587C148.185 118.872 149.992 123.11 152.013 125.841ZM206.555 136.884C208.285 136.688 210.02 136.443 211.817 136.144C215.279 135.543 215.58 135.543 215.693 136.106C215.919 137.308 213.849 146.325 212.231 151.247C210.555 156.308 208.73 160.481 206.555 164.115V136.884ZM190.486 137.416V174.664H172.698V139.631L151.121 170.256C149.496 169.457 148.411 168.846 148.411 168.679C148.411 167.778 154.017 157.446 156.764 153.313C158.985 149.932 160.979 147.49 163.989 144.484C167.564 140.915 168.655 140.089 171.478 138.698C171.585 138.646 171.688 138.595 171.789 138.546C172.597 138.149 173.213 137.847 173.857 137.622C175.932 136.897 178.293 136.982 188.263 137.342L189.427 137.383C189.784 137.395 190.137 137.406 190.486 137.416ZM206.555 135.526V131.728C207.048 131.988 207.548 132.245 208.054 132.499L212.72 134.866L210.952 135.092C209.705 135.256 208.213 135.401 206.555 135.526ZM206.555 130.465V104.997H233.736C234.591 104.997 235.43 105.031 236.252 105.098C236.788 106.442 237.281 107.87 237.744 109.394C239.341 114.707 239.846 117.538 239.971 125.705C239.648 125.116 239.236 124.583 238.733 124.106C237.4 122.712 235.735 122.016 233.736 122.016H224.443V136.845H233.736C235.735 136.845 237.4 136.148 238.733 134.755C239.253 134.236 239.677 133.663 240.004 133.034C240.003 133.266 240.003 133.501 240.002 133.739C239.965 141.216 239.852 147.452 239.701 147.603C239.588 147.753 238.836 147.264 238.046 146.513C232.815 141.591 226.455 138.06 215.957 134.303C211.956 132.869 209.007 131.679 206.555 130.465ZM190.486 116.537V104.997H188.721C188.411 109.944 188.989 113.916 190.486 116.537ZM69.9902 137.544C70.417 137.718 70.8803 137.915 71.3819 138.135C79.2963 141.541 85.9873 147.06 90.6743 153.764H87.8777V174.664H69.9902V137.544ZM53.9623 166.29C51.7424 169.691 49.3166 172.542 46.8174 174.664H36.0748V137.308C36.7323 137.331 37.425 137.357 38.1551 137.383C44.3158 137.59 49.1766 137.495 53.9623 137.024V166.29ZM53.9623 167.915V174.664H51.6868L51.7391 174.127C51.9408 171.941 52.2087 170.922 53.9623 167.915ZM51.1598 174.664H49.5583C49.799 174.328 50.0363 173.986 50.2715 173.639L50.8736 172.699L51.1598 174.664ZM53.9623 129.754V104.997H37.4728C37.1595 110.024 37.8536 113.986 39.5463 116.87C41.0515 119.425 47.3358 125.474 50.9859 127.916C52.0494 128.62 52.9935 129.211 53.9623 129.754ZM238.144 105.316C243.301 106.09 247.761 108.273 251.524 111.864C256.32 116.442 258.719 122.281 258.719 129.381C258.719 131.62 258.48 133.734 258.003 135.723C254.563 133.814 251.553 131.604 249.033 129.118C245.007 125.173 243.502 122.393 241.168 114.841C239.87 110.587 238.937 107.617 238.144 105.316ZM267.895 139.996C267.894 139.941 267.894 139.886 267.894 139.83C267.894 129.613 271.425 121.021 278.487 114.054C282.799 109.76 287.719 106.777 293.248 105.104C294.132 107.234 294.889 109.654 295.544 112.399C296.571 116.737 297.369 119.729 298.109 121.914C295.473 122.792 293.129 124.252 291.078 126.295C287.481 129.745 285.682 134.257 285.682 139.83C285.682 140.916 285.752 141.964 285.892 142.974C281.502 142.94 279.166 142.772 276.917 142.343C273.746 141.718 270.732 140.933 267.895 139.996ZM267.965 142.303C268.495 151.447 272.002 159.248 278.487 165.707C280.36 167.554 282.347 169.157 284.449 170.514C289.412 168.385 294.002 165.991 296.597 164.058C298.092 162.927 299.765 161.224 301.935 158.589C297.741 158.095 294.122 156.387 291.078 153.465C288.777 151.174 287.212 148.489 286.383 145.41C280.804 145.567 275.611 144.811 270.444 143.169C269.65 142.919 268.821 142.629 267.965 142.303ZM257.556 137.331C256.403 140.971 254.392 144.159 251.524 146.897C249.18 149.133 246.567 150.823 243.683 151.967C242.298 146.573 241.75 141.255 241.582 133.702C241.507 129.644 241.545 126.3 241.657 126.3C241.77 126.3 243.125 127.352 244.668 128.63C248.336 131.666 252.927 134.731 257.556 137.331ZM304.591 158.74C302.203 162.882 299.683 167.896 299.683 168.567C299.683 168.83 301.489 169.882 303.747 170.934C307.173 172.555 310.511 173.954 313.728 175.124C320.056 173.622 325.663 170.483 330.551 165.707C337.679 158.607 341.243 149.982 341.243 139.83C341.243 139.014 341.22 138.207 341.175 137.411C340.893 137.402 340.609 137.393 340.323 137.383C328.395 136.895 326.513 136.97 324.293 137.834C323.997 137.95 323.701 138.076 323.403 138.213C323.438 138.742 323.456 139.281 323.456 139.83C323.456 145.337 321.657 149.882 318.059 153.465C314.4 156.977 309.911 158.735 304.591 158.74ZM322.897 134.782C323.67 134.919 324.462 135.047 325.271 135.167C328.632 135.658 334.69 135.921 341.066 135.965C340.266 127.427 336.761 120.124 330.551 114.054C323.489 107.021 314.828 103.504 304.569 103.504C301.163 103.504 297.934 103.887 294.884 104.652C295.624 106.651 296.709 109.908 297.613 112.85C298.742 116.518 299.663 119.206 300.552 121.283C301.83 121.042 303.169 120.921 304.569 120.921C309.965 120.921 314.462 122.712 318.059 126.295C320.5 128.636 322.112 131.465 322.897 134.782ZM359.207 135.411C359.207 135.392 359.207 135.372 359.207 135.352V132.521L363.692 134.829L362.262 135.054C361.421 135.188 360.388 135.307 359.207 135.411ZM359.196 136.714C360.51 136.551 361.805 136.361 363.09 136.144C365.159 135.768 366.89 135.505 366.965 135.543C367.041 135.58 366.815 137.196 366.476 139.112C363.618 155.819 355.851 170.31 347.016 176.228V157.446H354.41C357.456 152.581 359.051 145.67 359.196 136.714ZM389.234 104.997H407.873V134.943C402.361 131.709 398.068 127.842 396.015 124.046C394.209 120.74 393.268 118.185 391.123 110.897C390.472 108.704 389.847 106.751 389.234 104.997ZM427.651 142.167V104.997H444.435C445.444 107.33 446.25 110.091 447.23 114.353C447.951 117.426 448.55 119.756 449.156 121.618H445.538V131.271H456.14C458.537 133.015 461.716 134.627 464.615 135.543C465.781 135.918 466.76 136.331 466.76 136.444C466.76 136.857 461.755 138.999 457.954 140.239C448.353 143.337 437.75 143.979 427.651 142.167ZM461.827 131.271C463.932 132.197 466.909 133.174 469.622 133.887V131.271H461.827ZM451.927 121.618H472.12V104.997H446.113C446.954 107.163 447.808 109.673 448.698 112.587C449.88 116.397 450.891 119.313 451.927 121.618ZM407.873 136.928C403.925 134.654 400.037 131.988 396.279 128.968C394.473 127.503 392.893 126.3 392.817 126.3C392.705 126.3 392.629 128.63 392.629 131.447C392.629 145.01 394.548 153.877 400.193 166.613C403.542 174.24 406.214 176.043 414.267 176.043C414.656 176.043 415.022 176.041 415.368 176.036V157.446H407.873V136.928ZM415.368 178.856C408.497 181.033 401.256 183.537 401.359 183.82C401.462 184.088 403.663 185.873 406.448 188H415.368V178.856ZM430.305 174.664H460.492C457.442 173.537 454.369 172.543 453.213 172.286C450.203 171.647 445.8 171.685 441.397 172.361C438.381 172.838 434.507 173.651 430.305 174.664ZM456.23 157.944C455.067 159.934 453.921 162.05 452.799 164.284L450.579 168.755L454.229 170.595C456.261 171.61 459.911 173.225 462.357 174.165C462.761 174.322 463.206 174.49 463.681 174.664H472.619V157.944H456.23ZM463.264 147.693H469.622V141.313C467.511 142.981 465.38 145.121 463.264 147.693ZM356.613 188C356.404 186.533 356.285 185.422 356.316 185.361C356.351 185.325 357.568 186.471 359.047 188H356.613ZM354.133 177.283C354.02 177.659 353.945 177.433 353.945 176.832C353.945 176.193 354.02 175.93 354.133 176.156C354.208 176.419 354.208 176.945 354.133 177.283Z" fill="#67A15F"/>
</svg>
