<svg width="40" height="40" viewBox="0 0 40 40" fill="none" xmlns="http://www.w3.org/2000/svg">
<circle cx="20" cy="20" r="19.5" stroke="#8C8C91"/>
<g clip-path="url(#clip0)">
<path d="M20.1208 26.25C23.0142 26.25 21.9825 24.4183 22.2058 23.8917C22.2025 23.4983 22.1992 23.12 22.2125 22.89C22.3958 22.9417 22.8283 23.1608 23.7217 24.0292C25.1008 25.4208 25.4533 26.25 26.5675 26.25H28.6183C29.2683 26.25 29.6067 25.9808 29.7758 25.755C29.9392 25.5367 30.0992 25.1533 29.9242 24.5567C29.4667 23.12 26.7983 20.6392 26.6325 20.3775C26.6575 20.3292 26.6975 20.265 26.7183 20.2317H26.7167C27.2433 19.5358 29.2533 16.5242 29.5492 15.3192C29.55 15.3175 29.5508 15.315 29.5508 15.3125C29.7108 14.7625 29.5642 14.4058 29.4125 14.2042C29.1842 13.9025 28.8208 13.75 28.33 13.75H26.2792C25.5925 13.75 25.0717 14.0958 24.8083 14.7267C24.3675 15.8475 23.1292 18.1525 22.2008 18.9683C22.1725 17.8125 22.1917 16.93 22.2067 16.2742C22.2367 14.995 22.3333 13.75 21.0058 13.75H17.7825C16.9508 13.75 16.155 14.6583 17.0167 15.7367C17.77 16.6817 17.2875 17.2083 17.45 19.83C16.8167 19.1508 15.69 17.3167 14.8933 14.9725C14.67 14.3383 14.3317 13.7508 13.3792 13.7508H11.3283C10.4967 13.7508 10 14.2042 10 14.9633C10 16.6683 13.7742 26.25 20.1208 26.25ZM13.3792 15.0008C13.56 15.0008 13.5783 15.0008 13.7125 15.3817C14.5283 17.7842 16.3583 21.3392 17.695 21.3392C18.6992 21.3392 18.6992 20.31 18.6992 19.9225L18.6983 16.8375C18.6433 15.8167 18.2717 15.3083 18.0275 15L20.9508 15.0033C20.9525 15.0175 20.9342 18.4158 20.9592 19.2392C20.9592 20.4083 21.8875 21.0783 23.3367 19.6117C24.8658 17.8858 25.9233 15.3058 25.9658 15.2008C26.0283 15.0508 26.0825 15 26.2792 15H28.33H28.3383C28.3375 15.0025 28.3375 15.005 28.3367 15.0075C28.1492 15.8825 26.2983 18.6708 25.6792 19.5367C25.6692 19.55 25.66 19.5642 25.6508 19.5783C25.3783 20.0233 25.1567 20.515 25.6883 21.2067H25.6892C25.7375 21.265 25.8633 21.4017 26.0467 21.5917C26.6167 22.18 28.5717 24.1917 28.745 24.9917C28.63 25.01 28.505 24.9967 26.5675 25.0008C26.155 25.0008 25.8325 24.3842 24.6017 23.1425C23.495 22.0658 22.7767 21.6258 22.1225 21.6258C20.8525 21.6258 20.945 22.6567 20.9567 23.9033C20.9608 25.255 20.9525 24.8275 20.9617 24.9125C20.8875 24.9417 20.675 25 20.1208 25C14.8333 25 11.39 16.6075 11.2575 15.0033C11.3033 14.9992 11.9342 15.0017 13.3792 15.0008Z" fill="#8C8C91"/>
</g>
<defs>
<clipPath id="clip0">
<rect width="20" height="20" fill="white" transform="translate(10 10)"/>
</clipPath>
</defs>
</svg>
