<svg width="80" height="80" viewBox="0 0 80 80" fill="none" xmlns="http://www.w3.org/2000/svg">
<circle opacity="0.3" cx="40" cy="40" r="39.5" stroke="#323232"/>
<path d="M40.1208 46.25C43.0142 46.25 41.9825 44.4183 42.2058 43.8917C42.2025 43.4983 42.1992 43.12 42.2125 42.89C42.3958 42.9417 42.8283 43.1608 43.7217 44.0292C45.1008 45.4208 45.4533 46.25 46.5675 46.25H48.6183C49.2683 46.25 49.6067 45.9808 49.7758 45.755C49.9392 45.5367 50.0992 45.1533 49.9242 44.5567C49.4667 43.12 46.7983 40.6392 46.6325 40.3775C46.6575 40.3292 46.6975 40.265 46.7183 40.2317H46.7167C47.2433 39.5358 49.2533 36.5242 49.5492 35.3192C49.55 35.3175 49.5508 35.315 49.5508 35.3125C49.7108 34.7625 49.5642 34.4058 49.4125 34.2042C49.1842 33.9025 48.8208 33.75 48.33 33.75H46.2792C45.5925 33.75 45.0717 34.0958 44.8083 34.7267C44.3675 35.8475 43.1292 38.1525 42.2008 38.9683C42.1725 37.8125 42.1917 36.93 42.2067 36.2742C42.2367 34.995 42.3333 33.75 41.0058 33.75H37.7825C36.9508 33.75 36.155 34.6583 37.0167 35.7367C37.77 36.6817 37.2875 37.2083 37.45 39.83C36.8167 39.1508 35.69 37.3167 34.8933 34.9725C34.67 34.3383 34.3317 33.7508 33.3792 33.7508H31.3283C30.4967 33.7508 30 34.2042 30 34.9633C30 36.6683 33.7742 46.25 40.1208 46.25ZM33.3792 35.0008C33.56 35.0008 33.5783 35.0008 33.7125 35.3817C34.5283 37.7842 36.3583 41.3392 37.695 41.3392C38.6992 41.3392 38.6992 40.31 38.6992 39.9225L38.6983 36.8375C38.6433 35.8167 38.2717 35.3083 38.0275 35L40.9508 35.0033C40.9525 35.0175 40.9342 38.4158 40.9592 39.2392C40.9592 40.4083 41.8875 41.0783 43.3367 39.6117C44.8658 37.8858 45.9233 35.3058 45.9658 35.2008C46.0283 35.0508 46.0825 35 46.2792 35H48.33H48.3383C48.3375 35.0025 48.3375 35.005 48.3367 35.0075C48.1492 35.8825 46.2983 38.6708 45.6792 39.5367C45.6692 39.55 45.66 39.5642 45.6508 39.5783C45.3783 40.0233 45.1567 40.515 45.6883 41.2067H45.6892C45.7375 41.265 45.8633 41.4017 46.0467 41.5917C46.6167 42.18 48.5717 44.1917 48.745 44.9917C48.63 45.01 48.505 44.9967 46.5675 45.0008C46.155 45.0008 45.8325 44.3842 44.6017 43.1425C43.495 42.0658 42.7767 41.6258 42.1225 41.6258C40.8525 41.6258 40.945 42.6567 40.9567 43.9033C40.9608 45.255 40.9525 44.8275 40.9617 44.9125C40.8875 44.9417 40.675 45 40.1208 45C34.8333 45 31.39 36.6075 31.2575 35.0033C31.3033 34.9992 31.9342 35.0017 33.3792 35.0008Z" fill="#323232"/>
</svg>
