<svg width="40" height="40" viewBox="0 0 40 40" fill="none" xmlns="http://www.w3.org/2000/svg">
<path fill-rule="evenodd" clip-rule="evenodd" d="M20 40C31.0457 40 40 31.0457 40 20C40 8.9543 31.0457 0 20 0C8.9543 0 0 8.9543 0 20C0 31.0457 8.9543 40 20 40ZM22.1886 24.4328C22.2502 25.1726 22.3399 26.25 20.1208 26.25C13.7742 26.25 10 16.6683 10 14.9633C10 14.2042 10.4967 13.7508 11.3283 13.7508H13.3792C14.3317 13.7508 14.67 14.3383 14.8933 14.9725C15.69 17.3167 16.8167 19.1508 17.45 19.83C17.3902 18.8649 17.4178 18.1837 17.4389 17.6611C17.4753 16.7639 17.4927 16.3338 17.0167 15.7367C16.155 14.6583 16.9508 13.75 17.7825 13.75H21.0058C22.2719 13.75 22.2426 14.8824 22.2111 16.0969C22.2096 16.1558 22.2081 16.215 22.2067 16.2742C22.1917 16.93 22.1725 17.8125 22.2008 18.9683C23.1292 18.1525 24.3675 15.8475 24.8083 14.7267C25.0717 14.0958 25.5925 13.75 26.2792 13.75H28.33C28.8208 13.75 29.1842 13.9025 29.4125 14.2042C29.5642 14.4058 29.7108 14.7625 29.5508 15.3125C29.5508 15.315 29.55 15.3175 29.5492 15.3192C29.2533 16.5242 27.2433 19.5358 26.7167 20.2317H26.7183C26.6975 20.265 26.6575 20.3292 26.6325 20.3775C26.6712 20.4386 26.8465 20.6208 27.0983 20.8825C27.9243 21.7412 29.5735 23.4556 29.9242 24.5567C30.0992 25.1533 29.9392 25.5367 29.7758 25.755C29.6067 25.9808 29.2683 26.25 28.6183 26.25H26.5675C25.7414 26.25 25.334 25.7942 24.6164 24.9912C24.3662 24.7112 24.0782 24.389 23.7217 24.0292C22.8283 23.1608 22.3958 22.9417 22.2125 22.89C22.1993 23.1181 22.2024 23.4921 22.2058 23.882L22.2058 23.8917C22.1538 24.0144 22.1699 24.208 22.1886 24.4328ZM13.7125 15.3817C13.5783 15.0008 13.56 15.0008 13.3792 15.0008C12.8652 15.0011 12.4542 15.001 12.1359 15.0009C11.5594 15.0007 11.287 15.0006 11.2575 15.0033C11.39 16.6075 14.8333 25 20.1208 25C20.675 25 20.8875 24.9417 20.9617 24.9125C20.9586 24.8838 20.9575 24.9135 20.9572 24.9135C20.9567 24.9135 20.9594 24.799 20.9567 23.9033C20.956 23.8305 20.955 23.7584 20.9541 23.6872C20.9388 22.5397 20.9267 21.6258 22.1225 21.6258C22.7767 21.6258 23.495 22.0658 24.6017 23.1425C25.0384 23.583 25.3607 23.9449 25.6133 24.2285C26.0727 24.7441 26.3014 25.0008 26.5675 25.0008C27.3645 24.9991 27.8548 25.0004 28.1639 25.0012C28.6061 25.0023 28.6773 25.0025 28.745 24.9917C28.5733 24.1993 26.654 22.2185 26.0634 21.609L26.0467 21.5917C25.8633 21.4017 25.7375 21.265 25.6892 21.2067H25.6883C25.1567 20.515 25.3783 20.0233 25.6508 19.5783C25.66 19.5642 25.6692 19.55 25.6792 19.5367C26.2983 18.6708 28.1492 15.8825 28.3367 15.0075C28.3373 15.0057 28.3374 15.0039 28.3378 15.0021C28.3379 15.0014 28.3381 15.0007 28.3383 15H28.33H26.2792C26.0825 15 26.0283 15.0508 25.9658 15.2008C25.9233 15.3058 24.8658 17.8858 23.3367 19.6117C21.8875 21.0783 20.9592 20.4083 20.9592 19.2392C20.9391 18.5797 20.9469 16.2682 20.95 15.367C20.9507 15.143 20.9512 15.0062 20.9508 15.0033L18.0275 15C18.2717 15.3083 18.6433 15.8167 18.6983 16.8375L18.6992 19.9225C18.6992 20.31 18.6992 21.3392 17.695 21.3392C16.3583 21.3392 14.5283 17.7842 13.7125 15.3817Z" fill="white"/>
</svg>
